{"glyphs":{"0":{"ha":899,"x_min":83,"x_max":842,"o":"m 433 153 q 506 167 475 153 q 560 206 537 182 q 598 263 583 231 q 623 331 614 295 q 636 404 633 367 q 640 475 640 441 q 601 616 640 571 q 489 661 562 661 q 395 635 434 661 q 332 565 357 608 q 297 465 308 522 q 286 350 286 409 q 292 279 286 315 q 314 216 298 244 q 359 170 330 188 q 433 153 388 153 m 508 833 q 650 810 588 833 q 755 744 713 787 q 820 640 798 701 q 842 503 842 579 q 814 294 842 390 q 734 129 787 199 q 601 20 681 60 q 415 -19 521 -19 q 268 7 330 -19 q 164 81 205 33 q 103 195 123 128 q 83 342 83 261 q 113 542 83 452 q 198 697 142 633 q 332 797 253 762 q 508 833 410 833 z "},"1":{"ha":527,"x_min":109,"x_max":481,"o":"m 165 0 l 255 635 l 144 597 l 109 753 l 280 816 l 481 816 l 367 0 l 165 0 z "},"2":{"ha":720,"x_min":43,"x_max":692,"o":"m 490 572 q 483 612 490 597 q 464 637 476 628 q 432 648 451 646 q 389 651 413 651 q 346 644 370 650 q 298 631 322 639 q 250 615 273 623 q 208 599 227 606 q 178 586 190 591 q 165 581 166 581 l 131 738 q 145 745 133 739 q 176 762 157 752 q 223 782 196 771 q 282 801 250 792 q 351 817 315 810 q 427 823 388 823 q 526 812 478 823 q 610 776 573 801 q 670 712 648 751 q 692 616 692 673 q 677 522 692 567 q 632 434 662 477 q 557 346 602 390 q 456 253 513 301 l 364 177 l 614 177 l 589 0 l 43 0 l 62 144 l 298 334 q 356 382 323 354 q 418 441 389 410 q 469 507 448 473 q 490 572 490 541 z "},"3":{"ha":672,"x_min":15,"x_max":616,"o":"m 235 458 q 324 468 288 458 q 383 493 360 477 q 416 530 406 509 q 427 575 427 551 q 403 636 427 616 q 321 657 379 657 q 263 651 293 657 q 208 637 234 645 q 161 621 182 629 q 132 608 141 612 l 79 760 q 124 782 98 770 q 182 805 151 794 q 250 823 214 815 q 325 830 286 830 q 428 821 376 830 q 522 787 479 811 q 590 722 564 763 q 616 616 616 680 q 601 515 616 558 q 562 444 585 473 q 511 399 538 415 q 459 378 484 382 q 512 353 488 370 q 555 311 537 336 q 584 257 574 287 q 595 194 595 227 q 589 136 595 169 q 569 67 584 102 q 529 -2 555 32 q 463 -63 503 -37 q 367 -107 423 -90 q 233 -123 310 -123 q 158 -118 193 -123 q 95 -105 123 -113 q 46 -89 66 -97 q 15 -74 26 -80 l 64 85 q 85 78 65 84 q 132 66 104 73 q 191 54 160 59 q 246 48 222 48 q 321 60 292 48 q 367 89 351 71 q 389 129 383 107 q 395 172 395 151 q 352 264 395 233 q 217 296 309 294 l 235 458 z "},"4":{"ha":744,"x_min":30,"x_max":699,"o":"m 459 800 l 665 797 l 588 244 l 699 244 l 675 75 l 564 75 l 543 -102 l 352 -104 l 378 75 l 30 75 l 30 241 l 459 800 m 241 243 l 401 243 l 461 546 l 241 243 z "},"5":{"ha":734,"x_min":33,"x_max":688,"o":"m 671 232 q 642 86 671 152 q 562 -28 614 20 q 440 -101 511 -75 q 285 -127 369 -127 q 33 -65 165 -127 l 94 104 q 124 89 104 98 q 170 69 144 79 q 225 53 196 60 q 282 45 254 45 q 362 53 326 45 q 425 80 399 60 q 465 134 450 100 q 479 221 479 168 q 447 309 479 279 q 355 338 414 338 q 277 325 320 338 q 183 284 233 311 l 106 367 l 176 807 l 688 807 l 665 644 l 325 644 l 293 466 q 302 473 294 467 q 325 485 311 479 q 356 497 338 492 q 393 503 374 503 q 427 503 410 504 q 458 498 443 501 q 545 465 506 488 q 612 406 585 441 q 655 327 640 372 q 671 232 671 283 z "},"6":{"ha":812,"x_min":80,"x_max":752,"o":"m 306 381 q 293 334 298 360 q 284 283 288 313 q 280 218 280 253 q 313 104 280 142 q 409 66 347 66 q 482 87 453 66 q 529 140 511 107 q 554 213 547 172 q 562 294 562 254 q 554 344 562 321 q 531 383 546 367 q 495 409 516 399 q 448 418 474 418 q 390 412 415 418 q 345 399 364 406 q 306 381 323 391 m 752 285 q 730 145 752 214 q 663 20 708 75 q 551 -70 618 -36 q 392 -104 484 -104 q 262 -79 319 -104 q 164 -10 204 -54 q 102 96 123 35 q 80 229 80 157 q 102 401 80 321 q 163 550 124 481 q 255 675 201 618 q 371 776 309 732 q 503 852 433 821 q 644 903 572 884 l 673 729 q 497 658 576 709 q 366 535 417 608 q 379 542 368 537 q 407 552 390 547 q 444 562 423 557 q 488 566 465 566 q 601 544 551 566 q 684 484 650 522 q 735 395 718 446 q 752 285 752 344 z "},"7":{"ha":649,"x_min":54,"x_max":667,"o":"m 629 807 l 667 687 l 221 -150 l 54 -60 l 422 636 l 70 636 l 66 807 l 629 807 z "},"8":{"ha":785,"x_min":52,"x_max":745,"o":"m 444 723 q 376 711 402 723 q 336 679 351 699 q 316 634 321 659 q 312 584 311 609 q 341 500 313 533 q 419 467 369 468 q 485 485 459 467 q 526 528 511 503 q 546 583 541 553 q 551 637 551 612 q 523 702 549 680 q 444 723 497 723 m 402 342 q 327 320 357 341 q 281 269 298 298 q 257 206 264 239 q 252 150 251 174 q 371 54 254 54 q 426 60 399 54 q 473 85 452 67 q 506 134 494 103 q 516 213 518 165 q 508 264 515 241 q 486 305 500 288 q 450 332 471 322 q 402 342 429 342 m 121 587 q 141 705 118 651 q 208 797 164 758 q 315 856 252 835 q 457 878 378 878 q 569 865 517 878 q 659 827 621 852 q 721 761 698 801 q 745 666 743 721 q 731 569 746 614 q 689 490 716 525 q 627 432 663 455 q 551 399 591 408 q 608 378 580 394 q 659 336 636 361 q 696 275 682 310 q 711 199 710 241 q 706 130 713 166 q 681 59 699 94 q 634 -7 663 24 q 565 -62 606 -38 q 472 -99 525 -85 q 352 -113 418 -113 q 240 -100 294 -113 q 146 -60 187 -87 q 79 12 104 -32 q 52 117 54 56 q 69 228 50 178 q 119 313 88 277 q 189 371 151 349 q 265 399 228 393 q 209 424 235 407 q 164 464 183 440 q 133 519 144 488 q 121 587 121 551 z "},"9":{"ha":799,"x_min":73,"x_max":747,"o":"m 519 326 q 524 341 519 328 q 535 377 529 355 q 545 428 541 399 q 548 493 549 458 q 420 650 543 650 q 352 632 381 650 q 303 583 322 614 q 274 511 283 552 q 264 426 264 471 q 291 342 264 372 q 361 303 318 312 q 383 300 372 301 q 407 300 395 300 q 481 309 456 301 q 519 326 507 317 m 73 424 q 82 518 73 471 q 110 610 91 566 q 158 693 129 654 q 225 760 186 732 q 315 805 264 789 q 426 822 365 822 q 560 801 501 822 q 660 742 618 781 q 723 646 701 703 q 747 518 745 590 q 736 356 750 437 q 692 201 722 275 q 614 62 661 127 q 503 -55 567 -3 q 359 -140 439 -106 q 182 -186 279 -174 l 153 -11 q 336 57 258 12 q 458 173 414 102 q 351 151 410 151 q 238 171 290 151 q 150 226 187 191 q 93 312 113 262 q 73 424 73 363 z "},"\u0000":{"ha":1291,"x_min":0,"x_max":0,"o":""},"\r":{"ha":433,"x_min":0,"x_max":0,"o":""}," ":{"ha":296,"x_min":0,"x_max":0,"o":""},"!":{"ha":455,"x_min":50,"x_max":468,"o":"m 468 1087 l 289 370 l 161 370 l 169 1087 l 468 1087 m 320 -1 l 50 -1 l 90 286 l 361 286 l 320 -1 z "},"\"":{"ha":743,"x_min":162,"x_max":707,"o":"m 167 1088 l 414 1088 l 286 549 l 162 549 l 167 1088 m 458 1088 l 707 1088 l 578 549 l 477 549 l 458 1088 z "},"#":{"ha":760,"x_min":88,"x_max":727,"o":"m 433 372 l 309 372 l 267 188 l 145 188 l 186 372 l 88 372 l 98 468 l 207 468 l 242 616 l 134 616 l 145 713 l 265 713 l 307 905 l 427 905 l 385 713 l 511 713 l 552 904 l 673 904 l 631 713 l 727 713 l 715 616 l 610 616 l 575 468 l 684 468 l 673 372 l 553 372 l 513 188 l 391 188 l 433 372 m 330 468 l 452 468 l 487 616 l 364 616 l 330 468 z "},"$":{"ha":903,"x_min":72,"x_max":828,"o":"m 800 341 q 769 187 800 255 q 682 72 737 119 q 551 -1 626 24 q 388 -26 475 -26 l 375 -104 l 303 -104 l 318 -17 q 234 -2 273 -12 q 162 19 194 8 q 107 41 130 31 q 72 58 83 52 l 127 239 q 139 232 127 237 q 171 217 151 226 q 214 199 190 209 q 263 182 239 190 q 311 168 288 174 q 349 161 334 162 l 405 474 q 393 479 404 475 q 369 491 383 484 q 339 505 355 497 q 309 518 323 512 q 286 529 296 525 l 277 534 q 214 570 244 551 q 161 615 184 589 q 124 676 138 641 q 111 764 111 712 q 145 907 111 848 q 235 1005 179 967 q 364 1061 292 1043 q 511 1078 436 1078 l 531 1182 l 600 1182 l 579 1078 q 666 1067 622 1078 q 746 1042 709 1056 q 828 1006 788 1026 l 755 826 q 742 832 753 827 q 714 846 731 838 q 675 863 696 854 q 631 879 654 871 q 587 892 609 887 q 548 897 566 897 l 506 656 q 514 652 507 656 q 532 644 522 649 q 553 635 542 640 q 573 626 565 630 q 660 583 618 605 q 732 530 701 562 q 782 453 764 498 q 800 341 800 408 m 479 901 q 416 897 446 901 q 364 881 386 893 q 329 847 342 869 q 316 788 316 825 q 319 769 316 779 q 329 749 321 759 q 350 728 336 739 q 385 709 363 718 q 393 704 385 708 q 411 696 401 701 q 430 687 421 691 q 441 683 439 684 l 479 901 m 420 157 q 481 168 451 159 q 536 192 512 176 q 576 233 561 208 q 591 295 591 258 q 586 348 591 326 q 568 387 581 370 q 530 417 554 404 q 469 448 507 431 l 420 157 z "},"%":{"ha":1411,"x_min":170,"x_max":1261,"o":"m 996 124 q 1057 141 1032 124 q 1096 188 1081 158 q 1118 259 1112 218 q 1124 349 1124 300 q 1104 423 1124 397 q 1036 450 1084 450 q 971 427 996 450 q 933 371 947 404 q 916 298 920 337 q 912 227 912 260 q 934 148 912 172 q 996 124 956 124 m 524 811 q 522 867 524 840 q 510 914 519 894 q 484 947 501 935 q 437 959 466 959 q 345 904 376 959 q 313 736 313 849 q 336 654 313 678 q 400 629 359 629 q 450 642 427 629 q 489 677 473 654 q 515 734 506 701 q 524 811 524 768 m 347 -7 l 958 1154 l 1081 1089 l 471 -73 l 347 -7 m 1261 357 q 1255 276 1261 319 q 1237 191 1249 233 q 1204 112 1224 150 q 1154 46 1183 75 q 1086 1 1125 18 q 996 -16 1046 -16 q 885 4 930 -16 q 812 56 840 24 q 771 130 784 88 q 759 215 759 171 q 763 284 759 245 q 779 365 768 323 q 811 445 791 406 q 863 515 831 484 q 940 564 895 545 q 1046 583 985 583 q 1146 565 1105 583 q 1212 515 1187 547 q 1249 443 1238 484 q 1261 357 1261 402 m 675 861 q 670 790 675 829 q 653 710 665 751 q 620 631 641 669 q 567 562 600 592 q 491 513 535 531 q 387 494 446 494 q 282 516 324 494 q 216 571 241 538 q 180 646 191 605 q 170 726 170 688 q 185 856 170 791 q 234 973 201 921 q 319 1058 267 1025 q 446 1090 371 1090 q 552 1072 508 1090 q 623 1021 595 1053 q 663 947 650 989 q 675 861 675 906 z "},"&":{"ha":1128,"x_min":73,"x_max":1080,"o":"m 499 696 q 552 716 524 705 q 605 748 581 728 q 644 795 629 767 q 659 865 660 824 q 628 931 658 910 q 547 952 598 952 q 475 940 502 952 q 433 908 448 927 q 415 869 419 890 q 412 832 411 848 q 422 784 412 806 q 446 745 433 762 q 472 716 459 728 q 491 699 485 704 l 499 696 m 824 901 q 821 857 825 884 q 809 799 818 831 q 784 734 800 768 q 744 668 768 700 q 685 610 719 637 q 605 566 650 583 l 799 366 q 826 489 812 428 q 852 612 839 550 l 1027 608 q 1014 524 1022 566 q 997 445 1006 483 q 976 372 987 406 q 956 312 966 338 q 939 266 947 285 q 928 240 932 248 l 1080 87 l 977 -34 l 840 103 q 828 90 837 100 q 801 65 819 79 q 754 34 783 50 q 684 4 726 18 q 585 -19 642 -9 q 454 -28 528 -28 q 306 -12 375 -28 q 186 36 237 3 q 105 120 135 68 q 73 242 75 171 q 94 386 70 325 q 157 491 117 447 q 245 565 196 535 q 342 614 294 594 q 331 625 340 616 q 309 648 321 633 q 283 682 297 663 q 258 726 270 702 q 238 778 246 750 q 230 835 231 805 q 252 943 228 894 q 320 1027 277 992 q 424 1082 364 1062 q 553 1101 484 1101 q 662 1087 612 1101 q 747 1048 711 1074 q 803 985 783 1022 q 824 901 823 947 m 456 489 q 312 413 360 465 q 267 283 264 361 q 473 141 271 141 q 574 151 530 141 q 650 174 618 161 q 700 200 682 187 q 720 218 718 212 l 456 489 z "},"'":{"ha":486,"x_min":184,"x_max":434,"o":"m 184 1088 l 434 1088 l 285 547 l 184 547 l 184 1088 z "},"(":{"ha":536,"x_min":146,"x_max":619,"o":"m 619 1015 q 511 891 562 964 q 424 729 461 818 q 364 541 386 641 q 342 336 342 441 q 377 101 342 201 q 470 -66 412 1 l 352 -203 q 267 -104 304 -161 q 202 21 229 -47 q 160 164 175 88 q 146 323 146 241 q 175 568 146 447 q 256 799 203 690 q 380 999 308 907 q 541 1154 453 1090 l 619 1015 z "},")":{"ha":548,"x_min":38,"x_max":511,"o":"m 38 -66 q 149 63 98 -12 q 237 228 200 139 q 294 416 273 317 q 315 614 315 515 q 305 741 315 682 q 279 850 296 800 q 238 941 262 900 q 188 1015 215 983 l 305 1154 q 391 1054 353 1110 q 456 930 429 998 q 497 787 483 863 q 511 627 511 710 q 483 382 511 503 q 401 152 454 261 q 276 -48 349 43 q 116 -203 203 -139 l 38 -66 z "},"*":{"ha":714,"x_min":107,"x_max":692,"o":"m 419 962 l 520 1126 l 629 1054 l 513 886 l 692 886 l 674 758 l 499 758 l 572 591 l 443 519 l 380 686 l 270 519 l 161 591 l 283 759 l 107 759 l 126 886 l 304 886 l 237 1054 l 366 1126 l 419 962 z "},"+":{"ha":719,"x_min":106,"x_max":667,"o":"m 643 321 l 462 321 l 432 108 l 256 108 l 286 321 l 106 321 l 130 487 l 309 487 l 340 700 l 515 700 l 485 487 l 667 487 l 643 321 z "},",":{"ha":495,"x_min":75,"x_max":386,"o":"m 75 -1 l 115 286 l 386 286 l 345 1 q 314 -99 336 -58 q 262 -168 292 -140 q 200 -211 233 -195 q 139 -234 168 -227 l 87 -152 q 98 -144 90 -151 q 118 -125 106 -137 q 144 -98 130 -113 q 169 -66 157 -83 q 190 -33 181 -50 q 200 -1 198 -16 l 75 -1 z "},"-":{"ha":747,"x_min":106,"x_max":672,"o":"m 650 410 l 106 410 l 127 564 l 672 564 l 650 410 z "},".":{"ha":490,"x_min":75,"x_max":386,"o":"m 345 1 l 75 -1 l 115 286 l 386 286 l 345 1 z "},"/":{"ha":723,"x_min":37,"x_max":764,"o":"m 37 -49 l 607 1185 l 764 1113 l 192 -129 l 37 -49 z "},":":{"ha":545,"x_min":109,"x_max":467,"o":"m 168 500 l 208 786 l 467 786 l 427 500 l 168 500 m 109 0 l 149 287 l 409 287 l 369 0 l 109 0 z "},";":{"ha":553,"x_min":108,"x_max":477,"o":"m 108 -1 l 148 286 l 411 286 l 376 39 q 354 -44 370 -7 q 317 -112 338 -82 q 273 -163 296 -142 q 230 -200 250 -185 q 193 -223 209 -215 q 172 -234 178 -232 l 119 -152 q 140 -136 123 -151 q 177 -98 157 -120 q 213 -49 197 -75 q 233 -1 230 -23 l 108 -1 m 177 500 l 217 786 l 477 786 l 436 500 l 177 500 z "},"<":{"ha":727,"x_min":107,"x_max":683,"o":"m 651 595 l 294 400 l 595 197 l 564 -25 l 107 315 l 130 479 l 683 818 l 651 595 z "},"=":{"ha":764,"x_min":112,"x_max":709,"o":"m 651 184 l 112 184 l 136 356 l 675 356 l 651 184 m 684 407 l 145 407 l 170 580 l 709 580 l 684 407 z "},">":{"ha":717,"x_min":115,"x_max":684,"o":"m 203 608 l 227 818 l 684 479 l 669 328 l 115 -12 l 147 212 l 476 413 l 203 608 z "},"?":{"ha":744,"x_min":102,"x_max":725,"o":"m 515 834 q 503 878 515 861 q 471 905 492 895 q 423 917 451 914 q 363 920 395 920 q 271 911 321 920 q 160 884 220 901 l 138 1045 q 201 1067 165 1057 q 277 1085 237 1078 q 356 1096 317 1092 q 428 1100 395 1100 q 650 1046 576 1100 q 725 886 725 991 q 702 752 725 813 q 635 643 679 692 q 531 555 592 593 q 393 488 469 517 l 374 353 l 161 353 l 186 566 q 214 579 199 572 q 242 592 226 585 q 275 607 258 600 q 326 630 299 618 q 380 658 353 643 q 431 692 406 673 q 474 732 455 710 q 504 779 492 753 q 515 834 515 804 m 372 -1 l 102 -1 l 142 286 l 414 286 l 372 -1 z "},"@":{"ha":1280,"x_min":120,"x_max":1213,"o":"m 656 687 q 590 639 616 669 q 548 581 564 610 q 526 515 533 548 q 519 448 518 481 q 526 393 520 414 q 543 359 532 372 q 568 342 553 347 q 600 338 582 338 q 643 345 623 338 q 680 362 663 351 q 710 389 696 374 q 734 419 724 404 q 749 445 741 431 q 766 474 758 458 q 782 510 774 490 q 797 555 789 530 l 836 691 q 821 694 834 692 q 788 698 807 696 q 750 702 770 701 q 716 704 730 704 q 656 687 688 704 m 882 216 q 788 317 791 216 q 790 352 787 332 q 798 395 793 372 q 755 309 776 345 q 709 251 734 273 q 653 217 684 228 q 579 207 622 207 q 499 220 535 207 q 436 260 463 233 q 395 325 410 286 q 378 416 380 364 q 392 549 375 490 q 439 654 409 608 q 509 733 469 700 q 595 789 550 766 q 730 823 661 823 q 813 815 772 823 q 886 793 854 808 q 939 756 919 778 q 961 705 960 734 q 961 685 962 696 q 960 667 961 675 l 873 345 q 959 382 924 355 q 1015 446 994 408 q 1044 532 1036 484 q 1050 633 1052 579 q 1026 765 1048 709 q 963 859 1004 821 q 863 914 922 896 q 730 932 804 932 q 604 911 661 932 q 501 857 547 891 q 419 778 455 823 q 356 685 382 734 q 288 405 283 553 q 316 276 291 331 q 385 185 340 222 q 493 132 430 149 q 637 114 557 114 q 690 117 666 114 q 735 126 715 121 q 775 140 756 132 q 814 157 794 148 q 825 92 818 126 q 836 26 831 58 q 731 -16 791 1 q 598 -32 672 -32 q 406 -3 492 -32 q 257 81 319 26 q 158 213 194 135 q 120 389 123 291 q 135 549 118 467 q 188 709 153 632 q 276 854 223 787 q 400 970 330 922 q 572 1056 483 1027 q 760 1084 661 1084 q 870 1073 815 1084 q 974 1038 924 1061 q 1067 979 1024 1015 q 1141 895 1109 943 q 1192 785 1173 847 q 1213 649 1211 724 q 1206 544 1215 597 q 1177 444 1196 492 q 1128 354 1158 395 q 1062 282 1099 313 q 979 233 1024 251 q 882 216 934 216 z "},"A":{"ha":928,"x_min":-10,"x_max":893,"o":"m 559 810 l 493 649 l 374 376 l 618 376 l 583 616 l 559 810 m 488 1089 l 702 1089 l 893 0 l 679 0 l 639 269 l 334 269 l 214 0 l -10 0 l 488 1089 z "},"B":{"ha":930,"x_min":51,"x_max":897,"o":"m 460 648 q 574 661 528 648 q 647 695 620 673 q 686 744 675 716 q 698 803 698 772 q 690 851 699 828 q 660 892 682 875 q 596 921 637 910 q 492 931 556 931 l 401 931 l 360 648 l 460 648 m 398 158 q 514 168 463 158 q 601 202 565 178 q 656 266 637 226 q 676 366 675 306 q 665 426 676 401 q 628 466 653 450 q 561 489 602 481 q 460 496 519 496 l 338 496 l 290 158 l 398 158 m 891 375 q 881 295 890 337 q 849 211 872 252 q 789 131 827 169 q 692 63 751 92 q 551 17 633 35 q 359 0 469 0 l 51 0 l 213 1089 l 465 1089 q 660 1073 578 1089 q 795 1026 742 1057 q 873 947 848 994 q 897 836 898 899 q 841 671 897 731 q 674 590 786 610 q 761 561 721 580 q 830 515 801 543 q 876 453 859 488 q 891 375 892 418 z "},"C":{"ha":844,"x_min":98,"x_max":909,"o":"m 98 383 q 111 570 98 479 q 151 741 123 661 q 221 888 178 821 q 325 1003 264 955 q 463 1078 385 1051 q 639 1105 541 1105 q 744 1095 698 1105 q 825 1072 791 1084 q 880 1047 859 1059 q 909 1032 901 1036 l 838 858 q 815 868 833 859 q 767 890 796 878 q 699 910 737 901 q 616 920 660 920 q 490 882 545 920 q 395 775 434 844 q 335 612 355 707 q 314 404 314 517 q 505 157 314 157 q 581 166 544 157 q 648 187 617 175 q 702 212 679 199 q 736 231 725 224 l 774 64 q 720 30 751 46 q 650 1 689 14 q 566 -18 612 -11 q 469 -26 520 -26 q 318 -2 387 -26 q 201 71 250 21 q 125 198 152 120 q 98 383 98 275 z "},"D":{"ha":977,"x_min":52,"x_max":966,"o":"m 749 683 q 708 868 750 805 q 578 931 666 931 l 409 931 l 292 156 l 449 156 q 546 176 503 156 q 622 231 589 195 q 679 315 655 266 q 718 422 703 363 q 741 547 734 480 q 749 683 749 613 m 966 694 q 930 410 965 538 q 829 191 896 281 q 665 50 763 100 q 437 0 566 0 l 52 0 l 212 1090 l 594 1090 q 748 1068 680 1090 q 866 997 817 1045 q 941 874 915 949 q 966 694 967 799 z "},"E":{"ha":800,"x_min":52,"x_max":848,"o":"m 707 0 l 52 0 l 206 1089 l 848 1089 l 825 931 l 396 931 l 355 648 l 739 648 l 718 494 l 332 494 l 283 155 l 736 155 l 707 0 z "},"F":{"ha":777,"x_min":51,"x_max":881,"o":"m 339 494 l 264 0 l 51 0 l 212 1089 l 881 1089 l 856 911 l 398 911 l 361 648 l 782 648 l 759 494 l 339 494 z "},"G":{"ha":983,"x_min":98,"x_max":969,"o":"m 98 383 q 140 691 98 557 q 255 917 182 825 q 427 1057 328 1009 q 640 1105 526 1105 q 756 1092 703 1103 q 852 1066 810 1081 q 924 1035 895 1050 q 969 1008 954 1019 l 897 853 q 870 866 892 855 q 814 889 849 877 q 731 910 779 901 q 627 920 684 920 q 495 880 553 920 q 396 771 437 841 q 335 607 356 702 q 313 399 313 511 q 326 288 313 334 q 362 213 338 242 q 422 170 387 184 q 506 157 458 157 q 566 165 533 157 q 629 184 598 173 q 684 208 659 195 q 720 229 709 220 q 724 261 722 245 q 729 293 727 277 l 751 441 l 545 441 l 566 596 l 950 596 l 866 0 l 729 0 l 720 98 q 680 52 705 75 q 622 13 654 30 q 552 -15 590 -5 q 473 -26 514 -26 q 98 383 98 -26 z "},"H":{"ha":1005,"x_min":50,"x_max":1031,"o":"m 658 0 l 732 491 l 337 491 l 264 0 l 50 0 l 213 1088 l 427 1088 l 360 645 l 753 645 l 821 1088 l 1031 1088 l 869 0 l 658 0 z "},"I":{"ha":606,"x_min":24,"x_max":650,"o":"m 41 103 l 163 103 l 302 981 l 181 981 l 201 1088 l 650 1088 l 631 981 l 508 981 l 369 103 l 492 103 l 472 0 l 24 0 l 41 103 z "},"J":{"ha":578,"x_min":46,"x_max":602,"o":"m 46 98 q 166 131 121 111 q 234 180 210 151 q 269 250 258 210 q 286 345 279 290 l 390 1088 l 602 1088 l 501 370 q 485 272 494 321 q 458 177 475 223 q 413 91 441 132 q 340 19 385 51 q 233 -33 296 -12 q 82 -60 170 -54 l 46 98 z "},"K":{"ha":895,"x_min":56,"x_max":1006,"o":"m 768 1088 l 1006 1088 l 586 544 l 623 472 l 890 0 l 645 0 l 385 472 l 334 472 l 269 0 l 56 0 l 208 1088 l 421 1088 l 357 624 l 409 624 l 768 1088 z "},"L":{"ha":732,"x_min":56,"x_max":707,"o":"m 686 0 l 56 0 l 210 1088 l 422 1088 l 290 155 l 707 155 l 686 0 z "},"M":{"ha":1202,"x_min":56,"x_max":1225,"o":"m 473 0 l 439 208 l 362 786 l 250 0 l 56 0 q 113 399 85 201 q 169 798 140 597 l 216 1088 l 478 1088 l 524 795 l 581 380 l 598 210 l 659 374 l 846 823 l 962 1088 l 1225 1088 l 1184 721 l 1081 0 l 886 0 l 998 789 l 743 158 l 671 0 l 473 0 z "},"N":{"ha":1042,"x_min":56,"x_max":1065,"o":"m 907 0 l 684 0 l 573 256 l 363 785 l 254 0 l 56 0 l 214 1088 l 443 1088 l 549 836 l 763 305 l 867 1088 l 1065 1088 l 907 0 z "},"O":{"ha":1004,"x_min":98,"x_max":994,"o":"m 994 664 q 975 460 994 554 q 921 290 956 366 q 838 154 886 213 q 731 56 789 96 q 605 -5 672 16 q 467 -26 538 -26 q 314 1 382 -26 q 197 81 245 27 q 123 214 149 134 q 98 401 98 294 q 139 696 98 566 q 252 917 180 826 q 420 1055 323 1007 q 627 1103 516 1103 q 776 1076 709 1103 q 892 994 844 1048 q 967 856 941 939 q 994 664 994 774 m 777 660 q 735 856 777 790 q 601 921 694 921 q 494 889 546 921 q 402 795 442 858 q 339 638 363 732 q 315 417 315 543 q 493 157 315 157 q 612 196 559 157 q 701 301 665 234 q 757 460 738 368 q 777 660 777 552 z "},"P":{"ha":859,"x_min":51,"x_max":911,"o":"m 393 545 q 629 603 551 545 q 707 781 707 661 q 694 845 707 817 q 654 892 682 873 q 579 921 625 911 q 465 931 532 931 l 401 931 l 349 545 l 393 545 m 213 1089 l 489 1089 q 682 1072 602 1089 q 813 1019 762 1055 q 888 930 865 983 q 911 804 912 876 q 878 618 910 694 q 779 495 845 543 q 610 428 712 448 q 368 407 508 407 l 323 407 l 264 0 l 51 0 l 213 1089 z "},"Q":{"ha":1013,"x_min":98,"x_max":1002,"o":"m 326 515 q 317 385 315 441 q 365 212 319 267 q 498 157 410 157 q 681 248 613 157 q 776 524 749 339 q 784 600 781 564 q 787 668 787 635 q 606 920 787 920 q 500 892 547 920 q 418 813 453 865 q 361 686 384 761 q 326 515 338 610 m 1002 682 q 996 578 1002 638 q 976 451 991 518 q 935 316 962 385 q 865 186 908 247 q 762 77 823 125 q 617 4 701 29 l 790 -185 l 671 -290 l 427 -20 q 293 18 354 -10 q 189 95 233 45 q 122 218 146 144 q 98 392 98 291 q 103 495 98 439 q 121 610 109 551 q 154 728 134 669 q 204 843 174 787 q 275 946 235 898 q 368 1029 315 994 q 486 1084 420 1064 q 631 1105 551 1105 q 776 1082 709 1105 q 893 1008 843 1059 q 972 877 943 958 q 1002 682 1001 796 z "},"R":{"ha":933,"x_min":50,"x_max":935,"o":"m 598 0 q 622 172 611 94 q 643 324 633 250 q 645 351 644 339 q 645 376 646 363 q 636 431 644 410 q 610 464 627 452 q 567 479 593 475 q 508 484 542 484 q 479 486 494 486 q 447 486 464 486 l 338 486 l 262 0 l 50 0 l 214 1089 l 469 1089 q 731 1072 651 1089 q 886 998 836 1050 q 935 852 936 945 q 916 744 934 795 q 859 653 898 692 q 759 588 821 614 q 611 557 698 563 q 719 543 673 554 q 797 509 766 532 q 843 449 827 486 q 859 359 859 413 q 858 328 859 345 q 852 290 856 311 q 830 148 841 220 q 808 0 819 77 l 598 0 m 417 616 q 651 662 570 616 q 732 811 731 708 q 722 870 733 847 q 683 907 711 893 q 610 926 656 920 q 495 931 564 931 l 405 931 l 358 616 l 417 616 z "},"S":{"ha":874,"x_min":81,"x_max":861,"o":"m 831 863 q 817 868 830 863 q 784 879 804 873 q 736 893 763 886 q 681 906 710 900 q 623 916 652 911 q 568 920 594 920 q 491 917 530 920 q 422 903 453 913 q 372 871 391 892 q 353 814 353 850 q 366 766 353 786 q 399 732 378 747 q 447 707 420 718 q 502 684 474 696 l 633 625 q 722 570 686 600 q 779 504 758 540 q 810 426 801 468 q 820 338 820 385 q 792 197 820 263 q 712 81 764 131 q 584 3 659 32 q 412 -26 508 -26 q 334 -22 374 -26 q 258 -14 295 -19 q 190 -3 222 -9 q 134 9 158 3 q 96 19 111 15 q 81 24 82 22 l 115 217 q 131 211 117 216 q 166 199 144 205 q 216 185 188 193 q 274 172 243 178 q 335 161 304 165 q 394 157 366 157 q 610 318 610 157 q 531 427 610 391 l 362 507 q 320 528 341 517 q 278 549 299 538 q 223 587 248 564 q 181 638 198 610 q 154 700 163 667 q 144 771 144 734 q 174 908 144 846 q 255 1013 203 969 q 381 1081 308 1057 q 544 1105 455 1105 q 660 1098 604 1105 q 759 1082 715 1090 q 830 1065 803 1074 q 861 1055 857 1057 l 831 863 z "},"T":{"ha":734,"x_min":92,"x_max":866,"o":"m 843 930 l 574 930 l 444 0 l 235 0 l 363 930 l 92 930 l 114 1089 l 866 1089 l 843 930 z "},"U":{"ha":1020,"x_min":126,"x_max":1044,"o":"m 499 150 q 596 167 555 151 q 665 223 636 184 q 712 329 693 262 q 747 496 732 395 l 831 1089 l 1044 1089 l 962 498 q 921 315 947 394 q 860 177 895 235 q 783 80 825 119 q 691 17 740 41 q 587 -16 642 -6 q 475 -26 533 -26 q 332 -7 397 -26 q 222 54 268 11 q 151 170 176 98 q 126 349 126 242 q 129 419 126 383 q 136 495 131 454 q 176 781 155 634 q 218 1089 197 928 l 432 1089 q 388 779 409 927 q 347 492 367 631 q 339 415 342 448 q 336 353 336 381 q 345 258 336 297 q 373 196 353 220 q 423 161 392 172 q 499 150 454 150 z "},"V":{"ha":845,"x_min":102,"x_max":962,"o":"m 301 1087 l 404 267 l 754 1089 l 962 1089 l 493 -1 l 244 -1 l 102 1087 l 301 1087 z "},"W":{"ha":1300,"x_min":145,"x_max":1376,"o":"m 630 1081 l 873 1081 l 916 280 l 1171 1089 l 1376 1089 l 1006 0 l 758 0 l 722 801 l 454 0 l 207 0 l 145 1089 l 347 1089 l 385 280 l 630 1081 z "},"X":{"ha":907,"x_min":-3,"x_max":1019,"o":"m 628 545 l 863 0 l 624 0 l 481 350 l 236 0 l -3 0 l 387 545 l 150 1089 l 391 1089 l 532 734 l 778 1089 l 1019 1089 l 628 545 z "},"Y":{"ha":818,"x_min":99,"x_max":958,"o":"m 454 617 l 724 1088 l 958 1088 l 525 355 l 477 0 l 267 0 l 315 357 l 99 1088 l 323 1088 l 454 617 z "},"Z":{"ha":829,"x_min":35,"x_max":893,"o":"m 893 1088 l 871 935 l 300 157 l 760 157 l 743 0 l 35 0 l 58 167 l 626 930 l 168 930 l 186 1088 l 893 1088 z "},"[":{"ha":745,"x_min":141,"x_max":779,"o":"m 304 1061 l 779 1061 l 753 888 l 482 888 l 372 173 l 643 173 l 616 0 l 141 0 l 304 1061 z "},"\\":{"ha":829,"x_min":260,"x_max":690,"o":"m 442 1155 l 690 -69 l 504 -103 l 260 1122 l 442 1155 z "},"]":{"ha":760,"x_min":89,"x_max":713,"o":"m 238 1061 l 713 1061 l 564 0 l 89 0 l 113 173 l 384 173 l 484 888 l 214 888 l 238 1061 z "},"^":{"ha":1261,"x_min":412,"x_max":897,"o":"m 622 808 l 770 808 l 897 374 l 732 374 l 680 592 l 586 374 l 412 374 l 622 808 z "},"_":{"ha":791,"x_min":45,"x_max":703,"o":"m 682 -68 l 45 -68 l 66 104 l 703 104 l 682 -68 z "},"`":{"ha":465,"x_min":62,"x_max":345,"o":"m 345 100 l 214 100 l 62 583 l 326 583 l 345 100 z "},"a":{"ha":814,"x_min":64,"x_max":782,"o":"m 782 682 l 682 0 l 532 0 l 506 116 q 475 66 494 90 q 431 25 456 43 q 373 -2 405 8 q 304 -12 340 -12 q 195 9 240 -12 q 120 68 149 31 q 77 158 91 106 q 64 274 64 210 q 80 394 65 334 q 121 510 94 454 q 184 614 147 566 q 264 699 220 663 q 359 756 309 735 q 465 777 410 777 q 566 767 518 777 q 652 745 613 758 q 720 718 691 732 q 764 694 748 704 l 782 682 m 272 296 q 296 180 272 218 q 370 143 320 143 q 449 158 416 143 q 503 199 483 173 l 566 613 q 528 621 550 618 q 483 625 507 625 q 408 598 446 625 q 341 526 371 572 q 292 421 311 481 q 272 296 273 361 z "},"b":{"ha":795,"x_min":43,"x_max":769,"o":"m 762 391 q 725 238 751 311 q 658 110 700 165 q 557 21 616 54 q 416 -12 497 -12 q 350 -2 380 -12 q 298 25 320 8 q 263 65 276 42 q 246 115 250 89 l 186 0 l 43 0 l 203 1101 l 413 1131 l 347 677 q 436 750 383 724 q 553 777 488 776 q 647 755 606 776 q 716 696 688 734 q 756 604 743 658 q 769 484 770 550 q 767 440 770 463 q 762 391 764 417 m 395 144 q 454 162 428 144 q 498 208 479 180 q 530 274 517 237 q 551 349 543 311 q 563 425 559 387 q 566 492 566 462 q 548 588 566 555 q 485 621 530 621 q 401 600 441 621 q 328 546 361 579 q 324 519 326 532 q 320 493 321 507 l 276 198 q 317 160 287 176 q 395 144 347 144 z "},"c":{"ha":637,"x_min":65,"x_max":705,"o":"m 65 301 q 102 496 67 409 q 195 646 138 584 q 325 743 252 709 q 475 777 397 777 q 546 772 515 777 q 604 759 577 768 q 655 738 631 751 q 705 707 679 724 l 642 562 q 618 581 635 571 q 581 600 602 591 q 534 615 559 609 q 486 621 509 621 q 406 607 440 621 q 348 565 372 593 q 307 493 323 536 q 281 390 290 449 q 275 352 277 371 q 273 315 273 333 q 420 144 269 144 q 453 148 435 144 q 487 156 471 151 q 516 166 503 161 q 536 176 529 172 q 559 190 547 182 q 582 205 570 197 l 595 60 q 536 29 564 42 q 478 7 507 16 q 415 -6 448 -1 q 343 -12 382 -11 q 228 10 280 -11 q 139 70 176 31 q 83 168 102 110 q 65 301 63 226 z "},"d":{"ha":807,"x_min":60,"x_max":841,"o":"m 399 777 q 504 749 462 776 q 568 675 547 723 l 630 1097 l 841 1131 l 677 1 l 529 1 l 503 115 q 470 64 490 87 q 424 24 450 41 q 364 -2 397 7 q 294 -12 331 -12 q 186 9 231 -12 q 114 69 142 31 q 73 160 86 107 q 60 277 60 213 q 70 397 60 337 q 98 513 79 458 q 146 617 117 569 q 213 700 175 665 q 297 755 251 735 q 399 777 344 776 m 273 374 q 267 290 265 328 q 291 181 268 218 q 363 144 314 144 q 445 159 410 144 q 500 199 479 174 q 514 300 507 252 q 528 391 522 347 q 540 475 534 435 q 551 556 546 516 q 495 603 529 584 q 416 622 461 622 q 352 598 378 622 q 311 538 327 574 q 287 458 296 502 q 273 374 278 414 z "},"e":{"ha":740,"x_min":62,"x_max":737,"o":"m 299 443 q 409 448 364 444 q 484 457 454 452 q 529 469 513 463 q 553 482 545 475 q 562 494 560 488 q 563 505 563 500 q 459 634 563 635 q 400 620 427 634 q 353 580 373 606 q 319 519 332 555 q 299 443 305 484 m 658 53 q 399 -11 530 -11 q 259 9 321 -11 q 153 67 197 29 q 86 162 109 106 q 62 290 62 218 q 94 486 62 396 q 181 640 125 575 q 317 742 238 705 q 491 779 395 779 q 603 757 556 779 q 680 699 650 736 q 723 613 709 663 q 737 508 737 564 q 735 486 737 501 q 720 452 732 471 q 680 413 707 433 q 602 375 652 393 q 474 347 551 358 q 284 334 397 335 q 282 315 283 324 q 281 296 281 305 q 322 178 281 220 q 437 135 362 135 q 542 151 493 135 q 635 198 591 168 l 658 53 z "},"f":{"ha":537,"x_min":90,"x_max":624,"o":"m 511 935 q 443 892 470 935 q 404 764 415 849 l 573 764 l 557 660 l 389 660 l 296 0 l 90 0 l 182 660 l 91 660 l 107 764 l 197 764 q 232 899 208 836 q 292 1007 256 961 q 379 1080 329 1053 q 492 1106 429 1106 q 560 1098 527 1106 q 624 1080 593 1090 l 597 918 q 560 930 581 924 q 511 935 538 935 z "},"g":{"ha":766,"x_min":-14,"x_max":856,"o":"m 305 518 q 315 476 305 498 q 337 434 325 454 q 360 401 349 415 q 374 386 372 388 q 451 415 422 398 q 495 452 479 432 q 515 494 510 471 q 520 540 520 516 q 418 631 520 631 q 358 623 380 631 q 324 601 336 616 q 309 566 312 587 q 305 518 305 545 m 160 -142 q 171 -178 160 -163 q 204 -203 182 -193 q 262 -218 227 -213 q 347 -222 297 -222 q 424 -217 392 -222 q 477 -197 456 -211 q 508 -162 498 -184 q 518 -107 518 -140 q 512 -75 518 -90 q 490 -48 505 -60 q 448 -25 474 -35 q 385 -7 422 -14 l 270 14 q 232 -21 252 -1 q 196 -63 212 -41 q 170 -105 180 -84 q 160 -142 160 -125 m 704 540 q 686 436 703 479 q 632 358 669 392 q 540 299 596 325 q 406 249 484 273 l 271 209 q 236 198 252 203 q 205 185 220 192 q 302 160 250 170 q 406 140 355 150 q 545 101 487 123 q 641 51 604 79 q 697 -14 679 22 q 717 -94 715 -50 q 699 -190 717 -142 q 637 -278 682 -239 q 518 -342 593 -317 q 326 -367 442 -367 q 173 -352 237 -367 q 67 -313 109 -338 q 6 -257 26 -289 q -14 -192 -14 -226 q -11 -138 -14 -162 q 0 -94 -7 -114 q 19 -57 7 -74 q 48 -23 31 -39 q 93 20 70 -1 q 136 62 116 42 q 122 65 136 60 q 93 82 109 71 q 63 111 77 94 q 48 153 49 129 q 48 185 47 170 q 52 214 49 200 q 65 249 56 233 q 90 277 74 264 q 129 301 106 290 q 183 320 151 311 l 238 339 q 227 346 237 340 q 204 362 218 352 q 176 388 191 373 q 149 422 161 403 q 128 467 136 442 q 119 519 119 491 q 135 611 118 565 q 189 694 152 657 q 284 753 227 730 q 424 777 342 777 q 607 735 555 777 q 781 775 691 774 q 819 779 800 777 q 856 782 837 781 l 838 629 l 686 629 q 692 611 688 622 q 698 587 695 600 q 702 563 701 575 q 704 540 704 550 z "},"h":{"ha":801,"x_min":43,"x_max":768,"o":"m 412 1139 l 345 676 q 364 696 349 680 q 406 731 379 713 q 469 763 432 749 q 555 777 507 777 q 715 720 661 777 q 768 547 769 663 q 767 508 768 528 q 761 466 765 488 l 694 0 l 487 0 l 555 473 q 558 493 557 483 q 559 514 559 503 q 534 595 559 568 q 466 621 509 621 q 421 616 441 621 q 385 604 401 612 q 355 586 368 596 q 331 565 342 576 l 248 0 l 43 0 l 202 1101 l 412 1139 z "},"i":{"ha":424,"x_min":78,"x_max":450,"o":"m 448 1012 q 433 964 445 986 q 403 925 421 942 q 363 899 385 909 q 317 890 341 890 q 280 897 298 890 q 249 918 262 905 q 229 950 236 932 q 222 991 221 968 q 233 1044 222 1019 q 262 1090 244 1070 q 304 1121 281 1109 q 353 1133 328 1133 q 392 1125 374 1133 q 422 1103 410 1117 q 443 1070 435 1089 q 450 1031 450 1052 q 449 1021 450 1025 q 448 1012 449 1017 m 285 0 l 78 0 l 189 764 l 396 764 l 285 0 z "},"j":{"ha":453,"x_min":-1,"x_max":479,"o":"m 477 1012 q 463 964 474 986 q 434 925 451 942 q 394 899 416 909 q 349 890 372 890 q 311 897 329 890 q 280 918 293 905 q 259 950 267 932 q 251 991 251 968 q 262 1044 251 1019 q 291 1090 273 1070 q 332 1121 309 1109 q 381 1133 355 1133 q 419 1125 401 1133 q 450 1103 437 1117 q 471 1070 463 1089 q 478 1031 478 1052 q 478 1021 479 1025 q 477 1012 478 1017 m -1 -87 q 61 -43 35 -65 q 105 6 87 -21 q 136 68 124 33 q 153 151 147 103 l 235 764 l 442 764 l 359 137 q 318 0 348 63 q 246 -112 289 -63 q 151 -195 203 -161 q 40 -242 98 -228 l -1 -87 z "},"k":{"ha":741,"x_min":43,"x_max":812,"o":"m 288 277 l 249 0 l 43 0 l 203 1101 l 415 1131 l 318 479 l 583 764 l 812 764 l 492 429 l 735 0 l 517 0 l 336 321 l 288 277 z "},"l":{"ha":390,"x_min":45,"x_max":416,"o":"m 416 1131 l 251 0 l 45 0 l 205 1100 l 416 1131 z "},"m":{"ha":1158,"x_min":43,"x_max":1129,"o":"m 945 777 q 1085 724 1041 777 q 1128 566 1130 671 q 1129 552 1129 560 q 1126 525 1128 545 q 1120 469 1124 505 q 1107 372 1115 433 q 1086 220 1099 311 q 1055 0 1074 130 l 849 0 q 880 219 867 130 q 902 369 893 309 q 915 461 910 428 q 922 512 920 495 q 924 533 924 528 q 924 539 924 537 q 863 621 924 621 q 801 613 831 621 q 738 576 770 604 q 733 539 735 557 q 727 501 730 520 l 654 0 l 449 0 q 487 265 468 140 q 522 507 505 390 q 524 529 523 519 q 525 549 525 539 q 510 605 525 589 q 467 621 495 621 q 433 618 451 621 q 398 607 416 615 q 362 587 380 600 q 329 554 345 574 q 322 512 326 533 q 317 470 319 491 l 249 0 l 43 0 l 153 764 l 309 764 l 334 659 q 370 704 348 682 q 418 741 391 725 q 474 767 445 758 q 534 777 504 777 q 601 770 571 777 q 652 750 630 764 q 689 712 674 736 q 714 653 705 688 q 813 748 756 720 q 945 777 870 777 z "},"n":{"ha":783,"x_min":43,"x_max":753,"o":"m 471 0 q 508 249 490 131 q 541 476 526 366 q 545 528 545 507 q 527 599 545 576 q 461 621 508 621 q 390 605 425 621 q 332 564 356 589 l 250 0 l 43 0 l 155 764 l 311 764 l 335 665 q 376 707 352 687 q 427 743 399 728 q 484 767 454 758 q 544 776 514 776 q 703 721 653 776 q 753 556 753 667 q 751 513 753 535 q 746 465 749 491 q 713 241 730 355 q 678 0 696 127 l 471 0 z "},"o":{"ha":789,"x_min":66,"x_max":766,"o":"m 66 293 q 73 393 65 339 q 98 500 80 446 q 147 604 117 554 q 222 692 177 654 q 328 753 267 730 q 469 777 389 777 q 600 755 545 777 q 692 694 655 734 q 747 596 728 654 q 766 465 765 538 q 757 365 766 418 q 730 258 749 311 q 681 156 711 205 q 605 70 650 107 q 500 11 560 33 q 363 -12 440 -12 q 236 9 291 -12 q 143 68 181 29 q 86 164 106 108 q 66 293 66 220 m 384 143 q 463 172 429 143 q 519 248 497 201 q 552 353 541 294 q 562 472 562 412 q 534 585 560 548 q 449 621 507 621 q 384 605 412 621 q 336 561 356 588 q 303 498 316 533 q 283 428 290 464 q 273 357 275 391 q 271 296 270 323 q 299 182 271 221 q 384 143 326 143 z "},"p":{"ha":809,"x_min":3,"x_max":783,"o":"m 783 480 q 756 293 782 382 q 684 136 731 203 q 569 28 637 68 q 415 -12 501 -12 q 322 12 360 -12 q 263 81 283 36 l 210 -276 l 3 -278 l 157 764 l 313 764 l 337 664 q 380 711 356 690 q 431 746 404 732 q 486 768 458 761 q 543 776 515 776 q 648 756 603 776 q 723 698 693 736 q 768 605 753 660 q 783 480 783 550 m 570 396 q 576 480 576 445 q 479 621 573 621 q 334 565 394 621 l 281 210 q 341 160 306 177 q 418 143 376 143 q 484 168 457 143 q 528 230 510 192 q 555 312 545 267 q 570 396 565 356 z "},"q":{"ha":771,"x_min":66,"x_max":789,"o":"m 421 777 q 522 747 487 776 q 570 660 557 718 l 614 764 l 789 764 l 640 -277 l 434 -279 l 486 79 q 408 12 452 35 q 309 -12 363 -12 q 192 15 239 -12 q 118 83 146 41 q 78 179 90 125 q 66 288 66 233 q 74 396 66 343 q 98 497 83 449 q 134 587 113 545 q 180 661 155 629 q 281 747 223 718 q 421 777 340 776 m 275 376 q 268 317 270 344 q 267 267 267 290 q 349 143 269 143 q 433 161 394 143 q 505 209 472 178 l 553 551 q 536 577 547 564 q 510 599 525 589 q 475 615 494 609 q 433 621 456 621 q 375 605 401 621 q 329 556 349 588 q 296 479 309 525 q 275 376 282 433 z "},"r":{"ha":510,"x_min":43,"x_max":570,"o":"m 334 659 q 376 710 355 689 q 417 744 397 730 q 458 764 438 757 q 498 773 479 770 q 535 775 517 775 q 570 776 553 775 l 543 595 q 513 603 529 600 q 480 606 496 606 q 402 588 440 605 q 328 545 363 572 l 249 0 l 43 0 l 153 764 l 309 764 l 334 659 z "},"s":{"ha":642,"x_min":28,"x_max":648,"o":"m 90 528 q 111 630 90 585 q 173 709 133 676 q 271 759 214 741 q 398 777 328 777 q 460 772 428 777 q 526 759 493 768 q 590 739 559 751 q 648 711 621 726 l 589 570 q 568 579 586 572 q 523 596 550 587 q 463 611 496 604 q 397 618 430 618 q 339 614 362 618 q 302 602 316 610 q 282 583 288 594 q 276 556 276 571 q 278 537 276 545 q 287 524 281 530 q 303 512 293 517 q 327 501 313 507 l 412 467 q 485 435 451 452 q 545 395 519 418 q 586 341 571 372 q 601 268 601 311 q 579 154 602 205 q 515 66 556 102 q 415 9 473 30 q 286 -12 357 -11 q 137 8 201 -11 q 28 62 73 27 l 86 205 q 108 193 89 203 q 157 173 127 184 q 221 154 186 163 q 292 146 256 146 q 379 166 350 146 q 409 228 409 187 q 396 266 409 250 q 348 296 382 281 l 258 336 q 183 374 214 355 q 131 417 151 394 q 100 467 110 440 q 90 528 90 494 z "},"t":{"ha":530,"x_min":94,"x_max":574,"o":"m 383 127 q 424 132 404 127 q 459 143 444 137 q 486 155 475 150 l 495 160 l 530 47 q 511 37 529 46 q 464 17 494 28 q 395 -2 435 7 q 311 -11 356 -11 q 185 28 234 -11 q 123 149 136 66 q 119 180 120 163 q 118 217 118 197 q 120 260 118 238 q 126 307 123 283 l 178 661 l 94 661 l 109 764 l 199 764 l 237 1035 l 447 1090 l 398 764 l 574 764 l 559 661 l 384 661 l 323 246 q 321 191 319 214 q 332 154 323 168 q 353 133 340 140 q 383 127 366 127 z "},"u":{"ha":820,"x_min":80,"x_max":794,"o":"m 358 764 q 342 654 351 712 q 326 536 334 596 q 309 415 317 475 q 292 297 300 354 q 288 266 289 277 q 288 249 288 257 q 289 235 288 241 q 315 170 290 194 q 378 143 339 145 q 450 159 418 145 q 506 201 481 174 l 588 764 l 794 764 l 686 0 l 540 0 q 525 58 532 29 q 511 115 518 86 q 479 67 498 90 q 437 27 461 45 q 384 -1 414 9 q 319 -12 354 -12 q 138 51 196 -12 q 80 237 79 114 q 82 277 80 255 q 87 322 84 298 q 120 550 104 436 q 151 764 137 663 l 358 764 z "},"v":{"ha":688,"x_min":83,"x_max":739,"o":"m 430 0 l 191 0 l 83 764 l 273 764 l 336 229 l 536 764 l 739 764 l 430 0 z "},"w":{"ha":958,"x_min":88,"x_max":1008,"o":"m 539 0 l 513 474 l 354 0 l 156 0 l 88 764 l 271 764 l 299 260 l 460 764 l 635 764 l 663 261 l 836 764 l 1008 764 l 740 0 l 539 0 z "},"x":{"ha":680,"x_min":-12,"x_max":746,"o":"m 345 231 l 197 0 l -12 0 l 263 385 l 85 764 l 298 764 l 388 545 l 537 764 l 746 764 l 470 385 l 641 0 l 435 0 l 345 231 z "},"y":{"ha":714,"x_min":16,"x_max":766,"o":"m 16 -161 q 55 -150 36 -155 q 92 -138 74 -144 q 152 -109 123 -127 q 203 -71 181 -92 q 239 -30 225 -51 q 254 9 252 -9 l 251 26 l 79 764 l 273 764 l 380 263 l 570 764 l 766 764 l 454 -14 q 404 -116 433 -71 q 337 -196 375 -161 q 253 -257 300 -231 q 149 -301 206 -283 q 104 -315 126 -308 q 58 -327 81 -321 l 16 -161 z "},"z":{"ha":641,"x_min":45,"x_max":653,"o":"m 425 608 l 137 608 l 155 764 l 653 764 l 633 614 l 276 155 l 574 155 l 558 0 l 45 0 l 64 157 l 425 608 z "},"{":{"ha":570,"x_min":130,"x_max":568,"o":"m 443 680 q 418 572 435 614 q 380 504 401 530 q 336 465 359 478 q 296 446 314 452 q 362 385 340 427 q 386 276 385 342 q 385 241 386 259 q 381 203 383 223 q 378 50 368 94 q 381 14 378 27 q 392 -6 385 1 q 408 -14 399 -12 q 429 -16 418 -16 l 412 -145 q 384 -144 398 -145 q 355 -142 369 -144 q 284 -123 318 -137 q 225 -80 251 -109 q 185 -9 200 -52 q 170 96 170 34 q 171 134 170 113 q 174 175 172 154 q 178 216 176 195 q 182 254 180 236 q 183 278 182 267 q 182 298 183 288 q 170 360 182 340 q 130 380 159 380 l 147 510 q 181 520 166 510 q 208 553 197 530 q 229 614 220 576 q 245 709 238 652 q 273 830 254 779 q 316 918 291 882 q 372 977 341 954 q 435 1013 402 1000 q 502 1030 468 1025 q 568 1035 536 1035 l 551 905 q 518 902 533 905 q 490 878 503 899 q 466 810 477 857 q 443 680 454 764 z "},"|":{"ha":530,"x_min":198,"x_max":395,"o":"m 198 -83 l 205 1162 l 395 1162 l 388 -83 l 198 -83 z "},"}":{"ha":581,"x_min":73,"x_max":496,"o":"m 260 597 q 264 655 260 627 q 272 713 268 684 q 280 771 276 742 q 283 831 283 801 q 280 871 283 857 q 269 893 276 886 q 252 903 262 901 q 229 905 241 905 l 248 1035 q 327 1026 288 1035 q 397 992 366 1017 q 447 923 428 967 q 467 809 466 879 q 464 753 467 785 q 457 690 460 722 q 451 632 454 659 q 448 588 448 604 q 459 529 449 548 q 496 510 470 510 l 477 380 q 445 370 459 380 q 419 338 431 361 q 398 276 408 315 q 380 180 389 238 q 352 61 370 112 q 309 -26 334 9 q 256 -85 285 -62 q 196 -122 227 -109 q 134 -140 165 -135 q 73 -145 102 -145 l 92 -16 q 124 -10 110 -16 q 151 18 138 -5 q 174 85 163 40 q 197 210 184 131 q 247 364 210 306 q 342 446 284 422 q 313 462 328 452 q 287 489 298 472 q 268 533 275 507 q 260 597 260 559 z "},"~":{"ha":762,"x_min":106,"x_max":692,"o":"m 517 102 q 444 118 477 102 q 382 154 410 134 q 330 189 353 173 q 286 205 306 205 q 254 185 265 205 q 237 119 242 166 l 106 119 q 282 347 138 347 q 354 332 323 347 q 410 298 385 317 q 459 265 436 280 q 509 250 482 250 q 528 253 520 250 q 540 264 535 256 q 549 287 545 273 q 555 322 552 300 l 692 322 q 670 231 686 271 q 632 161 654 190 q 581 118 610 133 q 517 102 551 102 z "},"¡":{"ha":467,"x_min":83,"x_max":433,"o":"m 411 1074 q 433 1013 433 1048 q 426 965 435 987 q 400 926 416 943 q 363 899 385 909 q 320 887 342 888 q 281 893 300 887 q 249 910 263 899 q 224 937 234 922 q 211 970 214 952 q 220 1019 211 996 q 246 1060 230 1042 q 283 1089 262 1078 q 326 1103 304 1101 q 411 1074 374 1103 m 83 0 l 237 797 l 365 797 l 382 0 l 83 0 z "},"¢":{"ha":673,"x_min":59,"x_max":675,"o":"m 59 302 q 85 494 56 407 q 166 643 115 581 q 288 740 218 705 q 436 777 358 775 q 455 778 447 778 q 468 778 463 779 l 494 934 l 575 922 l 549 768 q 610 747 578 761 q 675 713 641 733 l 625 566 q 612 577 621 571 q 589 590 602 583 q 559 603 576 597 q 524 613 543 609 l 449 146 q 476 152 462 148 q 504 160 490 155 q 528 169 517 165 q 545 177 538 174 l 583 200 l 602 54 q 509 14 553 28 q 424 -7 465 -1 l 403 -129 l 322 -116 l 340 -10 q 229 15 279 -7 q 141 77 178 37 q 83 173 104 117 q 59 302 62 230 m 443 621 q 389 610 412 619 q 297 515 328 591 q 266 316 266 440 q 366 154 271 183 l 443 621 z "},"£":{"ha":775,"x_min":81,"x_max":748,"o":"m 484 741 q 430 734 456 741 q 384 711 404 727 q 352 668 363 694 q 342 602 340 642 q 347 559 342 581 q 358 518 352 537 q 369 486 363 500 q 378 465 374 471 l 649 465 l 641 389 l 382 389 q 359 293 376 334 q 324 222 342 251 q 288 176 305 193 q 264 154 271 159 l 652 154 l 636 0 l 81 0 l 96 151 q 126 188 111 168 q 158 228 142 207 q 169 246 161 234 q 185 278 176 258 q 202 325 194 297 q 215 390 211 353 q 172 390 193 390 q 129 389 151 389 l 137 462 l 207 462 q 170 545 182 505 q 156 627 157 585 q 161 689 155 656 q 184 753 168 722 q 225 813 200 785 q 287 864 251 842 q 370 899 323 886 q 477 912 417 912 q 587 900 539 912 q 668 873 634 888 q 721 842 701 857 q 748 821 741 827 l 652 676 q 638 688 650 677 q 605 710 627 698 q 553 731 584 722 q 484 741 523 741 z "},"¤":{"ha":967,"x_min":109,"x_max":904,"o":"m 672 710 q 660 766 671 739 q 629 812 648 792 q 585 845 610 833 q 529 857 559 857 q 456 839 491 857 q 394 791 421 821 q 352 724 368 762 q 338 647 336 686 q 349 590 338 616 q 379 544 360 564 q 424 512 398 524 q 480 500 450 500 q 553 518 518 500 q 615 566 589 536 q 658 633 642 595 q 672 710 673 671 m 765 844 q 790 735 788 792 q 720 517 793 618 l 838 373 l 745 283 l 627 428 q 545 388 586 401 q 460 375 504 375 q 321 418 381 375 l 182 283 l 109 373 l 248 506 q 218 623 220 557 q 288 840 215 742 l 174 978 l 267 1068 l 380 929 q 549 983 460 983 q 693 935 631 983 l 830 1068 l 904 978 l 765 844 z "},"¥":{"ha":818,"x_min":110,"x_max":970,"o":"m 473 562 l 737 1089 l 970 1089 l 648 530 l 783 530 l 772 447 l 603 447 l 555 357 l 761 357 l 750 274 l 544 274 l 510 0 l 297 0 l 331 274 l 124 274 l 135 357 l 340 357 l 315 447 l 146 447 l 156 530 l 292 530 l 110 1089 l 340 1089 l 473 562 z "},"¦":{"ha":484,"x_min":118,"x_max":463,"o":"m 118 -92 l 182 420 l 373 420 l 309 -92 l 118 -92 m 208 633 l 293 1144 l 463 1144 l 399 633 l 208 633 z "},"§":{"ha":718,"x_min":70,"x_max":714,"o":"m 161 839 q 179 939 159 893 q 238 1019 199 985 q 332 1070 276 1052 q 456 1089 387 1089 q 523 1082 491 1089 q 582 1064 554 1075 q 633 1040 610 1053 q 673 1016 656 1027 q 701 995 690 1004 q 714 984 711 986 l 643 848 q 603 877 627 863 q 552 904 579 892 q 497 923 525 916 q 447 930 469 930 q 349 910 380 930 q 319 851 318 890 q 335 825 319 838 q 393 795 350 812 l 488 757 q 584 711 546 734 q 646 666 623 689 q 679 616 669 642 q 690 559 688 590 q 680 479 690 515 q 649 418 669 444 q 604 375 630 392 q 547 350 577 358 q 652 193 648 303 q 647 135 652 165 q 629 75 642 104 q 593 18 616 45 q 535 -29 570 -9 q 451 -62 500 -50 q 335 -75 401 -74 q 308 -74 321 -75 q 280 -71 295 -73 q 224 -59 253 -66 q 170 -40 196 -51 q 123 -17 144 -29 q 88 9 102 -4 q 79 19 83 14 q 70 28 74 23 l 143 171 q 148 167 146 170 q 152 163 149 165 q 177 143 160 156 q 217 116 193 130 q 272 93 241 103 q 338 83 302 83 q 414 93 385 83 q 459 118 443 103 q 480 151 475 133 q 485 185 486 169 q 479 211 484 200 q 464 232 474 222 q 437 249 454 241 q 399 266 421 257 l 300 303 q 216 340 249 321 q 162 380 182 359 q 133 426 142 401 q 122 481 124 451 q 134 568 121 531 q 169 631 147 605 q 216 672 190 656 q 269 693 243 687 q 161 839 164 734 m 411 591 q 312 572 345 591 q 281 506 279 553 q 394 444 281 444 q 496 467 464 444 q 527 530 528 490 q 499 577 526 563 q 411 591 472 591 z "},"¨":{"ha":904,"x_min":126,"x_max":762,"o":"m 354 224 q 340 176 351 199 q 312 137 329 153 q 272 110 294 120 q 227 100 250 100 q 189 108 207 100 q 157 130 171 116 q 135 162 144 143 q 126 202 127 180 q 135 256 125 231 q 163 302 146 282 q 204 334 181 322 q 253 345 228 345 q 292 337 274 345 q 323 315 310 329 q 345 282 337 301 q 355 243 353 264 q 354 233 355 237 q 354 224 354 229 m 762 224 q 748 176 759 198 q 719 137 736 153 q 680 110 702 120 q 635 100 659 100 q 596 108 614 100 q 565 130 578 116 q 543 162 551 143 q 534 202 535 180 q 543 257 533 231 q 571 302 553 283 q 612 334 589 322 q 661 345 635 345 q 700 337 682 345 q 731 315 718 329 q 753 282 745 301 q 762 243 761 264 q 762 233 762 237 q 762 224 762 229 z "},"©":{"ha":1272,"x_min":94,"x_max":1230,"o":"m 614 101 q 736 119 677 101 q 848 171 796 138 q 944 252 901 205 q 1019 356 988 299 q 1065 479 1049 414 q 1079 616 1081 545 q 1068 705 1078 660 q 1039 792 1059 750 q 990 872 1020 835 q 919 937 960 909 q 823 981 878 965 q 701 998 769 998 q 590 980 646 998 q 482 931 534 963 q 386 852 430 899 q 309 747 341 806 q 258 619 276 688 q 243 471 241 549 q 273 324 246 392 q 349 207 300 256 q 464 129 397 157 q 614 101 531 101 m 720 1143 q 891 1118 816 1143 q 1023 1052 966 1093 q 1118 958 1079 1010 q 1181 849 1157 905 q 1217 739 1206 793 q 1230 641 1228 684 q 1226 544 1231 598 q 1203 427 1222 489 q 1148 296 1185 365 q 1046 157 1111 228 q 958 79 1008 116 q 849 15 908 43 q 725 -28 790 -12 q 593 -44 660 -44 q 402 -8 492 -44 q 245 94 313 28 q 137 251 178 159 q 94 454 96 342 q 113 642 90 553 q 180 808 136 731 q 284 946 224 884 q 416 1052 345 1008 q 565 1120 487 1096 q 720 1143 642 1143 m 510 541 q 508 505 509 522 q 509 473 508 488 q 521 406 511 433 q 548 363 531 379 q 590 339 566 347 q 644 332 614 332 q 690 336 667 332 q 735 349 712 340 q 784 369 759 357 q 839 395 809 380 l 824 251 q 724 209 769 223 q 636 194 679 194 q 541 205 582 194 q 470 237 500 217 q 420 284 440 257 q 387 344 399 312 q 368 411 374 376 q 360 481 361 446 q 382 651 357 574 q 453 785 407 729 q 563 872 499 841 q 703 903 627 903 q 748 899 724 903 q 795 889 772 895 q 837 874 818 882 q 866 860 856 867 q 876 855 871 857 q 884 849 880 852 l 869 711 q 845 725 857 718 q 818 739 833 732 q 783 751 802 745 q 736 761 763 757 q 709 764 723 763 q 681 765 695 766 q 606 744 637 764 q 555 693 575 725 q 524 622 534 662 q 510 541 513 583 z "},"ª":{"ha":794,"x_min":149,"x_max":673,"o":"m 541 562 q 336 453 452 453 q 205 493 250 453 q 161 611 161 533 q 180 709 161 665 q 232 786 198 753 q 313 836 265 818 q 419 853 360 853 q 457 851 436 853 q 498 844 477 848 q 536 836 518 840 q 566 826 554 831 q 575 896 572 872 q 577 936 577 920 q 572 979 577 962 q 553 1007 566 996 q 520 1022 541 1017 q 470 1026 500 1026 q 398 1016 433 1026 q 336 995 363 1006 q 293 974 309 983 q 278 965 277 964 l 254 1039 q 303 1065 277 1052 q 357 1088 329 1078 q 415 1104 385 1098 q 477 1111 445 1111 q 567 1101 530 1111 q 628 1069 604 1090 q 663 1013 652 1047 q 673 931 673 979 q 673 917 673 925 q 671 890 673 908 q 665 843 669 873 q 654 763 661 812 q 638 641 648 713 q 614 465 628 568 l 541 465 l 541 562 m 559 774 q 498 782 526 779 q 446 785 470 785 q 264 627 264 785 q 371 530 264 530 q 453 552 414 530 q 536 612 493 574 l 559 774 m 161 356 l 593 356 l 581 269 l 149 269 l 161 356 z "},"«":{"ha":1274,"x_min":123,"x_max":1187,"o":"m 1162 593 l 836 397 l 1120 198 l 1095 -25 l 627 315 l 644 479 l 1187 818 l 1162 593 m 658 593 l 332 397 l 615 198 l 591 -25 l 123 315 l 140 479 l 683 818 l 658 593 z "},"¬":{"ha":1086,"x_min":121,"x_max":1004,"o":"m 121 663 l 142 803 l 1004 803 l 922 213 l 746 213 l 810 663 l 121 663 z "},"­":{"ha":819,"x_min":100,"x_max":733,"o":"m 714 398 l 100 398 l 119 570 l 733 570 l 714 398 z "},"®":{"ha":903,"x_min":106,"x_max":823,"o":"m 509 747 q 520 727 514 738 q 532 707 527 716 l 599 588 l 522 550 q 505 587 513 568 q 488 624 497 606 l 438 732 l 416 732 l 397 566 l 323 566 l 367 975 l 444 975 q 513 971 481 975 q 568 956 545 966 q 604 927 591 945 q 618 882 617 909 q 593 794 619 825 q 509 747 566 763 m 495 1056 q 371 1028 429 1056 q 270 954 313 1001 q 203 845 227 907 q 182 714 180 783 q 203 617 184 662 q 255 541 222 573 q 333 491 288 509 q 432 473 378 473 q 556 500 498 473 q 657 574 614 528 q 724 682 701 620 q 745 813 748 744 q 725 910 744 866 q 672 987 705 955 q 593 1038 638 1019 q 495 1056 548 1056 m 454 800 q 520 814 496 800 q 543 869 545 829 q 537 888 543 880 q 520 901 532 896 q 488 907 509 905 q 437 909 468 909 l 425 800 l 454 800 m 108 760 q 149 906 114 838 q 238 1024 183 974 q 362 1104 292 1075 q 510 1133 433 1133 q 632 1109 576 1133 q 730 1043 688 1085 q 797 944 772 1001 q 823 823 821 888 q 812 714 825 768 q 773 614 799 661 q 711 527 748 567 q 630 458 675 487 q 532 413 585 429 q 423 397 480 397 q 295 421 353 397 q 196 489 237 446 q 131 588 155 531 q 106 709 108 645 q 108 760 105 733 z "},"¯":{"ha":661,"x_min":53,"x_max":569,"o":"m 551 0 l 53 0 l 71 173 l 569 173 l 551 0 z "},"°":{"ha":583,"x_min":51,"x_max":519,"o":"m 300 268 q 249 257 274 268 q 203 228 223 246 q 172 183 184 209 q 161 129 159 158 q 171 85 161 105 q 195 52 180 66 q 230 30 210 38 q 273 22 250 22 q 324 33 298 22 q 369 63 349 44 q 400 107 389 81 q 410 161 412 132 q 400 204 410 184 q 376 238 391 224 q 342 260 361 252 q 300 268 322 268 m 51 115 q 72 214 50 168 q 131 295 94 260 q 215 349 168 329 q 311 369 262 369 q 390 355 353 369 q 456 315 428 340 q 501 254 484 289 q 519 177 517 218 q 500 78 522 124 q 443 -3 479 31 q 359 -58 406 -38 q 262 -79 312 -79 q 183 -64 220 -79 q 117 -24 145 -50 q 71 37 88 1 q 51 115 53 73 z "},"±":{"ha":902,"x_min":160,"x_max":802,"o":"m 711 2 l 160 2 l 178 157 l 730 157 l 711 2 m 782 433 l 601 433 l 574 220 l 398 220 l 425 433 l 245 433 l 265 599 l 445 599 l 472 812 l 648 812 l 621 599 l 802 599 l 782 433 z "},"²":{"ha":718,"x_min":138,"x_max":654,"o":"m 486 878 q 486 892 486 886 q 484 904 486 899 q 463 948 481 934 q 407 962 444 962 q 358 955 385 962 q 305 939 331 948 q 257 920 279 929 q 224 905 235 910 l 193 1033 q 202 1036 198 1035 q 231 1050 207 1040 q 288 1072 254 1061 q 359 1093 321 1084 q 432 1102 397 1102 q 513 1093 474 1102 q 583 1063 553 1084 q 633 1010 614 1043 q 654 931 652 978 q 647 858 656 891 q 618 791 638 824 q 566 725 598 759 q 489 652 534 692 l 393 570 l 600 570 l 585 427 l 138 427 l 150 545 q 241 620 195 582 q 340 701 287 658 q 348 708 343 704 q 364 721 353 713 q 421 771 399 749 q 457 811 444 793 q 476 845 470 829 q 486 878 483 861 z "},"³":{"ha":692,"x_min":132,"x_max":625,"o":"m 313 798 q 388 806 358 798 q 437 827 418 814 q 464 858 456 841 q 471 894 471 876 q 450 945 469 928 q 384 962 431 962 q 335 957 360 962 q 288 945 310 952 q 251 932 267 939 q 229 922 235 925 l 186 1046 l 198 1052 q 227 1066 208 1057 q 271 1083 246 1075 q 326 1097 296 1091 q 387 1103 355 1103 q 484 1093 441 1103 q 558 1062 528 1083 q 607 1008 589 1042 q 625 928 624 975 q 614 847 627 882 q 583 788 602 812 q 539 750 563 764 q 495 732 516 736 q 538 711 518 726 q 573 677 558 697 q 597 632 589 657 q 607 580 606 607 q 603 533 607 559 q 586 477 598 506 q 553 420 574 448 q 499 370 532 392 q 420 334 467 348 q 311 321 374 321 q 246 325 275 321 q 194 336 216 330 q 156 349 172 342 q 132 361 140 356 q 153 429 144 398 q 172 490 163 460 q 247 469 209 477 q 321 460 285 460 q 387 470 362 460 q 424 496 411 480 q 442 531 437 512 q 446 566 446 549 q 409 639 444 615 q 299 665 374 663 l 313 798 z "},"´":{"ha":612,"x_min":178,"x_max":555,"o":"m 312 100 l 178 100 l 298 568 l 555 568 l 312 100 z "},"µ":{"ha":777,"x_min":48,"x_max":738,"o":"m 142 -197 l 48 -183 l 177 753 l 275 753 q 246 541 258 629 q 226 395 234 454 q 214 302 218 337 q 207 249 210 268 q 204 222 205 230 q 204 209 204 214 q 231 107 204 139 q 316 75 258 75 q 390 86 355 75 q 454 114 425 97 q 505 150 483 130 q 543 184 528 169 l 621 753 l 738 753 l 632 3 l 545 -8 l 545 106 q 301 -22 425 -22 q 247 -15 269 -22 q 210 1 224 -8 q 187 22 195 11 q 175 42 179 33 l 142 -197 z "},"¶":{"ha":935,"x_min":106,"x_max":914,"o":"m 914 1089 l 762 0 l 602 0 l 739 986 l 652 986 l 515 0 l 353 0 l 423 504 q 302 515 359 504 q 201 555 244 527 q 132 630 157 583 q 106 745 106 676 q 122 865 106 814 q 165 952 138 916 q 228 1014 192 989 q 303 1054 263 1039 q 384 1076 342 1069 q 465 1086 426 1084 q 537 1089 503 1089 q 595 1089 571 1089 l 914 1089 z "},"·":{"ha":374,"x_min":83,"x_max":327,"o":"m 203 606 q 250 596 228 606 q 289 570 272 587 q 316 532 306 554 q 327 485 326 510 q 318 437 328 460 q 293 398 309 415 q 255 371 277 381 q 208 361 233 361 q 161 371 184 361 q 122 396 139 380 q 95 434 105 412 q 83 482 84 456 q 92 530 83 508 q 117 570 101 553 q 156 596 134 587 q 203 606 178 606 z "},"¸":{"ha":271,"x_min":-34,"x_max":302,"o":"m -32 -385 q -33 -382 -33 -383 q -34 -380 -33 -382 l -24 -290 q -15 -296 -23 -291 q 8 -306 -6 -300 q 40 -316 22 -311 q 81 -320 59 -320 q 103 -319 93 -320 q 121 -317 113 -319 q 168 -290 152 -312 q 182 -224 183 -269 q 141 -156 180 -179 q 24 -132 102 -132 l 57 50 l 135 50 q 120 -13 127 17 q 106 -71 113 -43 q 141 -74 121 -71 q 183 -83 161 -77 q 225 -100 204 -90 q 263 -126 247 -111 q 291 -164 280 -142 q 302 -215 301 -186 q 302 -225 302 -220 q 302 -235 302 -230 q 242 -374 294 -328 q 98 -420 191 -420 q 53 -416 73 -420 q 15 -407 32 -412 q -14 -395 -2 -401 q -32 -385 -26 -389 z "},"¹":{"ha":555,"x_min":184,"x_max":487,"o":"m 230 431 l 304 954 l 212 920 l 184 1048 l 322 1099 l 487 1099 l 394 431 l 230 431 z "},"º":{"ha":789,"x_min":144,"x_max":705,"o":"m 386 454 q 287 473 329 454 q 216 525 244 491 q 173 605 187 558 q 159 709 159 652 q 166 788 159 745 q 187 877 172 832 q 227 964 202 922 q 286 1039 251 1006 q 369 1091 321 1072 q 478 1111 416 1111 q 577 1092 535 1111 q 648 1040 620 1074 q 691 958 677 1006 q 705 853 705 911 q 697 764 705 810 q 673 673 690 718 q 631 589 656 629 q 570 519 606 549 q 489 472 534 490 q 386 454 443 454 m 398 539 q 471 555 439 539 q 526 596 503 570 q 564 654 549 621 q 589 721 580 686 q 602 789 598 755 q 606 851 606 823 q 572 979 606 932 q 467 1025 538 1025 q 395 1010 426 1025 q 340 969 363 995 q 301 911 317 944 q 276 844 286 879 q 262 775 266 809 q 258 712 258 741 q 292 585 258 630 q 398 539 326 539 m 157 349 l 589 349 l 576 262 l 144 262 l 157 349 z "},"»":{"ha":1184,"x_min":64,"x_max":1143,"o":"m 654 593 l 686 812 l 1143 473 l 1120 315 l 568 -25 l 599 198 l 940 400 l 654 593 m 151 593 l 182 812 l 640 473 l 616 315 l 64 -25 l 95 198 l 435 400 l 151 593 z "},"¼":{"ha":1259,"x_min":104,"x_max":1168,"o":"m 218 -20 l 836 1052 l 968 994 l 345 -75 l 218 -20 m 1015 701 l 1139 666 l 1078 199 l 1168 199 l 1151 62 l 1060 62 l 1040 -94 l 889 -95 l 909 62 l 614 62 l 612 170 l 1015 701 m 799 197 l 926 197 l 958 419 l 799 197 m 157 294 l 222 796 l 134 758 l 104 882 l 295 958 l 404 932 l 321 294 l 157 294 z "},"½":{"ha":1354,"x_min":142,"x_max":1309,"o":"m 254 -20 l 871 1052 l 1004 994 l 381 -75 l 254 -20 m 195 294 l 260 796 l 172 758 l 142 882 l 333 958 l 441 932 l 358 294 l 195 294 m 996 259 q 1062 315 1034 291 q 1107 360 1090 339 q 1133 402 1125 382 q 1141 447 1141 422 q 1066 508 1139 508 q 1017 501 1044 508 q 964 485 990 494 q 916 467 938 476 q 882 452 894 457 l 857 581 q 870 587 863 583 q 897 599 878 591 q 991 632 942 616 q 1095 648 1040 648 q 1175 639 1137 648 q 1243 610 1213 630 q 1290 560 1272 591 q 1309 484 1308 529 q 1298 406 1310 442 q 1263 336 1286 369 q 1210 271 1241 302 q 1140 208 1178 239 l 1050 132 l 1250 132 l 1232 -11 l 791 -11 l 806 106 l 996 259 z "},"¾":{"ha":1413,"x_min":163,"x_max":735,"o":"m 215 505 q 250 488 231 497 q 291 472 269 479 q 339 460 313 465 q 395 456 366 456 q 465 467 433 456 q 521 498 498 478 q 558 547 545 519 q 572 610 572 575 q 536 689 572 659 q 420 727 500 718 l 437 819 q 502 827 469 819 q 564 853 536 836 q 610 897 592 870 q 628 962 628 924 q 596 1024 628 1002 q 494 1045 564 1045 q 453 1042 475 1045 q 409 1034 431 1039 q 366 1021 387 1028 q 328 1006 345 1015 l 313 1093 q 315 1093 314 1093 q 340 1103 321 1096 q 385 1118 358 1110 q 446 1131 412 1125 q 515 1137 479 1137 q 588 1130 549 1137 q 659 1106 627 1123 q 713 1059 692 1088 q 735 984 735 1029 q 724 914 735 945 q 694 860 712 884 q 653 821 675 837 q 607 794 630 804 q 565 779 585 784 q 532 774 545 774 q 581 760 554 770 q 629 730 607 749 q 667 681 652 711 q 682 608 682 652 q 668 529 682 564 q 631 467 654 494 q 575 421 607 440 q 509 390 544 401 q 437 372 474 378 q 368 366 401 366 q 300 372 332 366 q 243 385 269 377 q 198 402 218 393 q 163 419 178 412 l 215 505 z "},"¿":{"ha":744,"x_min":74,"x_max":671,"o":"m 284 251 q 297 207 285 223 q 329 180 309 190 q 376 168 349 171 q 436 165 404 165 q 528 174 477 165 q 638 201 578 184 l 661 40 q 597 18 634 28 q 521 0 561 7 q 442 -12 481 -7 q 370 -16 403 -16 q 150 39 222 -16 q 74 199 77 93 q 94 329 72 269 q 159 439 116 389 q 265 528 203 488 q 406 596 327 567 l 424 751 l 636 751 l 612 519 q 584 505 600 513 q 547 488 568 497 q 492 463 522 477 q 432 434 462 450 q 376 399 403 418 q 328 358 349 380 q 295 309 307 335 q 284 251 283 282 m 671 937 q 663 890 671 913 q 638 849 654 867 q 602 819 623 831 q 557 804 581 807 q 517 811 536 804 q 484 829 498 817 q 460 856 469 840 q 448 889 450 871 q 456 937 447 914 q 481 977 466 960 q 518 1006 497 995 q 562 1021 539 1018 q 600 1014 582 1021 q 633 997 618 1008 q 658 970 648 985 q 671 937 668 954 z "},"À":{"ha":928,"x_min":-10,"x_max":893,"o":"m 559 810 l 493 649 l 374 376 l 618 376 l 583 616 l 559 810 m 488 1089 l 702 1089 l 893 0 l 679 0 l 639 269 l 334 269 l 214 0 l -10 0 l 488 1089 m 601 1158 l 470 1158 l 319 1641 l 583 1641 l 601 1158 z "},"Á":{"ha":928,"x_min":-10,"x_max":893,"o":"m 559 810 l 493 649 l 374 376 l 618 376 l 583 616 l 559 810 m 488 1089 l 702 1089 l 893 0 l 679 0 l 639 269 l 334 269 l 214 0 l -10 0 l 488 1089 m 498 1158 l 363 1158 l 484 1626 l 741 1626 l 498 1158 z "},"Â":{"ha":928,"x_min":-10,"x_max":893,"o":"m 559 810 l 493 649 l 374 376 l 618 376 l 583 616 l 559 810 m 488 1089 l 702 1089 l 893 0 l 679 0 l 639 269 l 334 269 l 214 0 l -10 0 l 488 1089 m 594 1594 l 743 1594 l 859 1160 l 694 1160 l 647 1377 l 547 1160 l 374 1160 l 594 1594 z "},"Ã":{"ha":928,"x_min":-10,"x_max":893,"o":"m 559 810 l 493 649 l 374 376 l 618 376 l 583 616 l 559 810 m 488 1089 l 702 1089 l 893 0 l 679 0 l 639 269 l 334 269 l 214 0 l -10 0 l 488 1089 m 707 1157 q 633 1173 667 1157 q 570 1208 599 1189 q 516 1243 541 1227 q 472 1259 492 1259 q 440 1241 452 1259 q 423 1175 428 1222 l 294 1175 q 348 1345 304 1289 q 465 1402 391 1402 q 536 1387 505 1402 q 593 1353 567 1371 q 643 1319 619 1335 q 694 1304 667 1304 q 714 1307 706 1304 q 726 1318 722 1310 q 734 1340 731 1326 q 740 1375 736 1354 l 876 1375 q 857 1284 871 1324 q 821 1216 842 1244 q 770 1172 799 1187 q 707 1157 741 1157 z "},"Ä":{"ha":928,"x_min":-10,"x_max":943,"o":"m 559 810 l 493 649 l 374 376 l 618 376 l 583 616 l 559 810 m 488 1089 l 702 1089 l 893 0 l 679 0 l 639 269 l 334 269 l 214 0 l -10 0 l 488 1089 m 535 1320 q 521 1271 532 1294 q 493 1232 510 1249 q 453 1205 475 1215 q 408 1196 431 1196 q 370 1203 388 1196 q 338 1225 352 1211 q 316 1257 325 1238 q 307 1297 308 1276 q 316 1352 306 1326 q 345 1397 327 1377 q 386 1429 362 1417 q 434 1440 409 1440 q 473 1432 455 1440 q 505 1410 491 1424 q 526 1378 518 1396 q 536 1338 534 1359 q 535 1329 536 1333 q 535 1320 535 1324 m 943 1319 q 929 1271 940 1293 q 900 1232 918 1249 q 861 1205 883 1215 q 817 1196 840 1196 q 778 1203 795 1196 q 746 1225 760 1211 q 724 1257 732 1238 q 715 1297 716 1276 q 724 1352 714 1326 q 752 1398 734 1378 q 793 1429 770 1417 q 842 1440 817 1440 q 881 1432 863 1440 q 912 1410 899 1424 q 934 1378 926 1396 q 943 1338 942 1359 q 943 1329 943 1333 q 943 1319 943 1324 z "},"Å":{"ha":928,"x_min":-10,"x_max":893,"o":"m 559 810 l 493 649 l 374 376 l 618 376 l 583 616 l 559 810 m 488 1089 l 702 1089 l 893 0 l 679 0 l 639 269 l 334 269 l 214 0 l -10 0 l 488 1089 m 563 1504 q 512 1493 537 1504 q 468 1464 487 1482 q 436 1420 448 1445 q 425 1367 425 1395 q 435 1323 426 1343 q 459 1290 444 1304 q 494 1269 475 1276 q 536 1261 514 1261 q 587 1271 562 1261 q 631 1300 612 1282 q 662 1344 650 1319 q 672 1399 673 1370 q 663 1440 671 1421 q 639 1474 654 1459 q 605 1496 625 1488 q 563 1504 585 1504 m 315 1351 q 335 1451 313 1404 q 394 1532 357 1497 q 478 1586 431 1567 q 574 1606 525 1606 q 654 1591 616 1606 q 719 1551 691 1577 q 764 1490 747 1525 q 783 1414 781 1455 q 764 1315 785 1362 q 707 1234 743 1269 q 623 1179 671 1199 q 526 1158 576 1158 q 446 1173 484 1158 q 379 1213 408 1187 q 333 1274 351 1238 q 315 1351 316 1309 z "},"Æ":{"ha":1260,"x_min":-10,"x_max":1287,"o":"m 841 652 l 1210 652 l 1193 494 l 825 494 l 789 176 l 1202 176 l 1184 0 l 581 0 l 606 237 l 357 237 l 222 0 l -10 0 l 641 1088 l 1287 1088 l 1267 913 l 869 913 l 841 652 m 621 387 l 666 759 l 442 387 l 621 387 z "},"Ç":{"ha":844,"x_min":98,"x_max":909,"o":"m 98 383 q 111 570 98 479 q 151 741 123 661 q 221 888 178 821 q 325 1003 264 955 q 463 1078 385 1051 q 639 1105 541 1105 q 744 1095 698 1105 q 825 1072 791 1084 q 880 1047 859 1059 q 909 1032 901 1036 l 838 858 q 815 868 833 859 q 767 890 796 878 q 699 910 737 901 q 616 920 660 920 q 490 882 545 920 q 395 775 434 844 q 335 612 355 707 q 314 404 314 517 q 505 157 314 157 q 581 166 544 157 q 648 187 617 175 q 702 212 679 199 q 736 231 725 224 l 774 64 q 720 30 751 46 q 650 1 689 14 q 566 -18 612 -11 q 469 -26 520 -26 q 318 -2 387 -26 q 201 71 250 21 q 125 198 152 120 q 98 383 98 275 m 363 -385 q 362 -382 363 -383 q 361 -380 362 -382 l 371 -290 q 381 -296 372 -291 q 403 -306 389 -300 q 436 -316 417 -311 q 477 -320 454 -320 q 498 -319 488 -320 q 517 -317 508 -319 q 563 -290 547 -312 q 577 -224 578 -269 q 536 -156 576 -179 q 419 -132 497 -132 l 452 50 l 530 50 q 515 -13 522 17 q 502 -71 509 -43 q 537 -74 517 -71 q 578 -83 557 -77 q 621 -100 600 -90 q 659 -126 642 -111 q 686 -164 675 -142 q 697 -215 696 -186 q 697 -225 698 -220 q 697 -235 697 -230 q 637 -374 689 -328 q 493 -420 586 -420 q 448 -416 469 -420 q 410 -407 427 -412 q 381 -395 393 -401 q 363 -385 370 -389 z "},"È":{"ha":800,"x_min":52,"x_max":848,"o":"m 707 0 l 52 0 l 206 1089 l 848 1089 l 825 931 l 396 931 l 355 648 l 739 648 l 718 494 l 332 494 l 283 155 l 736 155 l 707 0 m 627 1158 l 496 1158 l 345 1641 l 608 1641 l 627 1158 z "},"É":{"ha":800,"x_min":52,"x_max":848,"o":"m 707 0 l 52 0 l 206 1089 l 848 1089 l 825 931 l 396 931 l 355 648 l 739 648 l 718 494 l 332 494 l 283 155 l 736 155 l 707 0 m 524 1158 l 389 1158 l 509 1626 l 767 1626 l 524 1158 z "},"Ê":{"ha":800,"x_min":52,"x_max":848,"o":"m 707 0 l 52 0 l 206 1089 l 848 1089 l 825 931 l 396 931 l 355 648 l 739 648 l 718 494 l 332 494 l 283 155 l 736 155 l 707 0 m 501 1624 l 650 1624 l 766 1190 l 601 1190 l 554 1407 l 454 1190 l 281 1190 l 501 1624 z "},"Ë":{"ha":800,"x_min":52,"x_max":848,"o":"m 707 0 l 52 0 l 206 1089 l 848 1089 l 825 931 l 396 931 l 355 648 l 739 648 l 718 494 l 332 494 l 283 155 l 736 155 l 707 0 m 428 1320 q 414 1271 425 1294 q 386 1232 403 1249 q 346 1205 368 1215 q 301 1196 324 1196 q 263 1203 281 1196 q 231 1225 245 1211 q 209 1257 218 1238 q 200 1297 201 1276 q 209 1352 199 1326 q 237 1397 220 1377 q 278 1429 255 1417 q 327 1440 302 1440 q 366 1432 348 1440 q 397 1410 384 1424 q 419 1378 411 1396 q 429 1338 427 1359 q 428 1329 429 1333 q 428 1320 428 1324 m 836 1319 q 822 1271 833 1293 q 793 1232 810 1249 q 754 1205 776 1215 q 709 1196 732 1196 q 670 1203 688 1196 q 639 1225 652 1211 q 617 1257 625 1238 q 608 1297 609 1276 q 617 1352 607 1326 q 645 1398 627 1378 q 686 1429 663 1417 q 735 1440 709 1440 q 774 1432 756 1440 q 805 1410 792 1424 q 827 1378 819 1396 q 836 1338 835 1359 q 836 1329 836 1333 q 836 1319 836 1324 z "},"Ì":{"ha":606,"x_min":24,"x_max":650,"o":"m 41 103 l 163 103 l 302 981 l 181 981 l 201 1088 l 650 1088 l 631 981 l 508 981 l 369 103 l 492 103 l 472 0 l 24 0 l 41 103 m 512 1158 l 381 1158 l 230 1641 l 494 1641 l 512 1158 z "},"Í":{"ha":606,"x_min":24,"x_max":652,"o":"m 41 103 l 163 103 l 302 981 l 181 981 l 201 1088 l 650 1088 l 631 981 l 508 981 l 369 103 l 492 103 l 472 0 l 24 0 l 41 103 m 409 1158 l 275 1158 l 395 1626 l 652 1626 l 409 1158 z "},"Î":{"ha":606,"x_min":24,"x_max":666,"o":"m 41 103 l 163 103 l 302 981 l 181 981 l 201 1088 l 650 1088 l 631 981 l 508 981 l 369 103 l 492 103 l 472 0 l 24 0 l 41 103 m 401 1624 l 550 1624 l 666 1191 l 501 1191 l 454 1407 l 355 1191 l 181 1191 l 401 1624 z "},"Ï":{"ha":606,"x_min":24,"x_max":786,"o":"m 41 103 l 163 103 l 302 981 l 181 981 l 201 1088 l 650 1088 l 631 981 l 508 981 l 369 103 l 492 103 l 472 0 l 24 0 l 41 103 m 378 1282 q 364 1234 375 1257 q 335 1195 353 1211 q 296 1168 318 1178 q 251 1158 274 1158 q 213 1166 231 1158 q 181 1187 195 1174 q 159 1220 168 1201 q 150 1260 151 1238 q 159 1314 149 1289 q 187 1360 170 1340 q 228 1392 205 1380 q 277 1403 252 1403 q 316 1395 298 1403 q 347 1373 334 1387 q 369 1340 361 1359 q 378 1301 377 1322 q 378 1291 378 1295 q 378 1282 378 1287 m 785 1282 q 771 1234 783 1256 q 743 1195 760 1211 q 704 1168 726 1178 q 659 1158 682 1158 q 620 1166 638 1158 q 589 1187 602 1174 q 567 1220 575 1201 q 558 1260 559 1238 q 567 1315 557 1289 q 595 1360 577 1341 q 636 1392 613 1380 q 685 1403 659 1403 q 724 1395 706 1403 q 755 1373 742 1387 q 777 1340 768 1359 q 786 1301 785 1322 q 786 1291 786 1295 q 785 1282 785 1287 z "},"Ð":{"ha":987,"x_min":73,"x_max":975,"o":"m 975 696 q 942 412 976 541 q 842 192 909 283 q 677 50 775 100 q 450 0 578 0 l 73 0 l 142 499 l 74 499 l 93 623 l 160 623 l 225 1090 l 602 1090 q 755 1067 686 1090 q 874 997 825 1044 q 949 874 923 949 q 975 696 976 800 m 760 684 q 717 868 760 806 q 587 930 674 930 l 424 930 l 378 623 l 547 623 l 527 499 l 361 499 l 312 157 l 461 157 q 598 200 542 157 q 691 316 655 243 q 743 484 726 389 q 760 684 759 579 z "},"Ñ":{"ha":1042,"x_min":56,"x_max":1065,"o":"m 907 0 l 684 0 l 573 256 l 363 785 l 254 0 l 56 0 l 214 1088 l 443 1088 l 549 836 l 763 305 l 867 1088 l 1065 1088 l 907 0 m 842 1157 q 767 1173 802 1157 q 704 1208 733 1189 q 651 1243 675 1227 q 606 1259 627 1259 q 574 1241 586 1259 q 557 1175 562 1222 l 428 1175 q 482 1345 439 1289 q 599 1402 525 1402 q 670 1387 640 1402 q 727 1353 701 1371 q 777 1319 753 1335 q 828 1304 801 1304 q 848 1307 840 1304 q 861 1318 856 1310 q 868 1340 865 1326 q 874 1375 871 1354 l 1010 1375 q 991 1284 1005 1324 q 955 1216 977 1244 q 904 1172 933 1187 q 842 1157 876 1157 z "},"Ò":{"ha":1004,"x_min":98,"x_max":994,"o":"m 994 664 q 975 460 994 554 q 921 290 956 366 q 838 154 886 213 q 731 56 789 96 q 605 -5 672 16 q 467 -26 538 -26 q 314 1 382 -26 q 197 81 245 27 q 123 214 149 134 q 98 401 98 294 q 139 696 98 566 q 252 917 180 826 q 420 1055 323 1007 q 627 1103 516 1103 q 776 1076 709 1103 q 892 994 844 1048 q 967 856 941 939 q 994 664 994 774 m 777 660 q 735 856 777 790 q 601 921 694 921 q 494 889 546 921 q 402 795 442 858 q 339 638 363 732 q 315 417 315 543 q 493 157 315 157 q 612 196 559 157 q 701 301 665 234 q 757 460 738 368 q 777 660 777 552 m 720 1158 l 589 1158 l 438 1641 l 702 1641 l 720 1158 z "},"Ó":{"ha":1004,"x_min":98,"x_max":994,"o":"m 994 664 q 975 460 994 554 q 921 290 956 366 q 838 154 886 213 q 731 56 789 96 q 605 -5 672 16 q 467 -26 538 -26 q 314 1 382 -26 q 197 81 245 27 q 123 214 149 134 q 98 401 98 294 q 139 696 98 566 q 252 917 180 826 q 420 1055 323 1007 q 627 1103 516 1103 q 776 1076 709 1103 q 892 994 844 1048 q 967 856 941 939 q 994 664 994 774 m 777 660 q 735 856 777 790 q 601 921 694 921 q 494 889 546 921 q 402 795 442 858 q 339 638 363 732 q 315 417 315 543 q 493 157 315 157 q 612 196 559 157 q 701 301 665 234 q 757 460 738 368 q 777 660 777 552 m 617 1158 l 483 1158 l 603 1626 l 861 1626 l 617 1158 z "},"Ô":{"ha":1004,"x_min":98,"x_max":994,"o":"m 994 664 q 975 460 994 554 q 921 290 956 366 q 838 154 886 213 q 731 56 789 96 q 605 -5 672 16 q 467 -26 538 -26 q 314 1 382 -26 q 197 81 245 27 q 123 214 149 134 q 98 401 98 294 q 139 696 98 566 q 252 917 180 826 q 420 1055 323 1007 q 627 1103 516 1103 q 776 1076 709 1103 q 892 994 844 1048 q 967 856 941 939 q 994 664 994 774 m 777 660 q 735 856 777 790 q 601 921 694 921 q 494 889 546 921 q 402 795 442 858 q 339 638 363 732 q 315 417 315 543 q 493 157 315 157 q 612 196 559 157 q 701 301 665 234 q 757 460 738 368 q 777 660 777 552 m 713 1594 l 862 1594 l 978 1160 l 813 1160 l 766 1377 l 667 1160 l 493 1160 l 713 1594 z "},"Õ":{"ha":1004,"x_min":98,"x_max":996,"o":"m 994 664 q 975 460 994 554 q 921 290 956 366 q 838 154 886 213 q 731 56 789 96 q 605 -5 672 16 q 467 -26 538 -26 q 314 1 382 -26 q 197 81 245 27 q 123 214 149 134 q 98 401 98 294 q 139 696 98 566 q 252 917 180 826 q 420 1055 323 1007 q 627 1103 516 1103 q 776 1076 709 1103 q 892 994 844 1048 q 967 856 941 939 q 994 664 994 774 m 777 660 q 735 856 777 790 q 601 921 694 921 q 494 889 546 921 q 402 795 442 858 q 339 638 363 732 q 315 417 315 543 q 493 157 315 157 q 612 196 559 157 q 701 301 665 234 q 757 460 738 368 q 777 660 777 552 m 827 1157 q 752 1173 787 1157 q 689 1208 718 1189 q 636 1243 660 1227 q 591 1259 612 1259 q 559 1241 571 1259 q 543 1175 547 1222 l 413 1175 q 467 1345 424 1289 q 584 1402 510 1402 q 655 1387 625 1402 q 712 1353 686 1371 q 762 1319 739 1335 q 813 1304 786 1304 q 833 1307 825 1304 q 846 1318 841 1310 q 853 1340 850 1326 q 859 1375 856 1354 l 996 1375 q 976 1284 990 1324 q 940 1216 962 1244 q 889 1172 918 1187 q 827 1157 861 1157 z "},"Ö":{"ha":1004,"x_min":98,"x_max":994,"o":"m 994 664 q 975 460 994 554 q 921 290 956 366 q 838 154 886 213 q 731 56 789 96 q 605 -5 672 16 q 467 -26 538 -26 q 314 1 382 -26 q 197 81 245 27 q 123 214 149 134 q 98 401 98 294 q 139 696 98 566 q 252 917 180 826 q 420 1055 323 1007 q 627 1103 516 1103 q 776 1076 709 1103 q 892 994 844 1048 q 967 856 941 939 q 994 664 994 774 m 777 660 q 735 856 777 790 q 601 921 694 921 q 494 889 546 921 q 402 795 442 858 q 339 638 363 732 q 315 417 315 543 q 493 157 315 157 q 612 196 559 157 q 701 301 665 234 q 757 460 738 368 q 777 660 777 552 m 523 1320 q 509 1271 520 1294 q 480 1232 498 1249 q 441 1205 463 1215 q 396 1196 419 1196 q 358 1203 376 1196 q 326 1225 340 1211 q 304 1257 313 1238 q 295 1297 296 1276 q 304 1352 294 1326 q 332 1397 315 1377 q 373 1429 350 1417 q 422 1440 397 1440 q 461 1432 443 1440 q 492 1410 479 1424 q 514 1378 506 1396 q 524 1338 522 1359 q 523 1329 524 1333 q 523 1320 523 1324 m 930 1319 q 917 1271 928 1293 q 888 1232 905 1249 q 849 1205 871 1215 q 804 1196 827 1196 q 765 1203 783 1196 q 734 1225 747 1211 q 712 1257 720 1238 q 703 1297 704 1276 q 712 1352 702 1326 q 740 1398 722 1378 q 781 1429 758 1417 q 830 1440 804 1440 q 869 1432 851 1440 q 900 1410 887 1424 q 922 1378 913 1396 q 931 1338 930 1359 q 931 1329 931 1333 q 930 1319 930 1324 z "},"×":{"ha":942,"x_min":106,"x_max":903,"o":"m 616 371 l 808 107 l 661 -3 l 483 241 l 238 3 l 106 134 l 373 391 l 176 662 l 324 773 l 507 522 l 772 779 l 903 649 l 616 371 z "},"Ø":{"ha":1007,"x_min":102,"x_max":990,"o":"m 804 667 q 785 795 802 741 q 736 883 769 849 l 458 146 q 477 144 467 144 q 501 143 488 143 q 635 183 577 143 q 732 293 694 223 q 789 459 771 363 q 804 667 808 555 m 990 664 q 978 460 994 554 q 929 290 962 366 q 850 154 897 213 q 746 56 804 96 q 623 -5 689 16 q 486 -26 557 -26 q 397 -18 441 -26 l 358 -121 l 257 -83 l 295 18 q 155 161 203 66 q 102 401 106 256 q 115 605 99 511 q 162 778 131 700 q 240 917 194 857 q 344 1019 287 977 q 469 1082 401 1061 q 610 1103 536 1103 q 662 1101 638 1103 q 703 1094 685 1099 l 743 1200 l 841 1162 l 801 1056 q 938 908 889 1006 q 990 664 986 810 m 597 935 q 521 921 559 935 q 447 877 482 906 q 381 804 411 848 q 329 702 351 760 q 295 571 307 644 q 288 411 284 498 q 361 192 292 257 l 642 930 q 620 934 631 932 q 597 935 609 935 z "},"Ù":{"ha":1020,"x_min":126,"x_max":1044,"o":"m 499 150 q 596 167 555 151 q 665 223 636 184 q 712 329 693 262 q 747 496 732 395 l 831 1089 l 1044 1089 l 962 498 q 921 315 947 394 q 860 177 895 235 q 783 80 825 119 q 691 17 740 41 q 587 -16 642 -6 q 475 -26 533 -26 q 332 -7 397 -26 q 222 54 268 11 q 151 170 176 98 q 126 349 126 242 q 129 419 126 383 q 136 495 131 454 q 176 781 155 634 q 218 1089 197 928 l 432 1089 q 388 779 409 927 q 347 492 367 631 q 339 415 342 448 q 336 353 336 381 q 345 258 336 297 q 373 196 353 220 q 423 161 392 172 q 499 150 454 150 m 715 1158 l 584 1158 l 433 1641 l 696 1641 l 715 1158 z "},"Ú":{"ha":1020,"x_min":126,"x_max":1044,"o":"m 499 150 q 596 167 555 151 q 665 223 636 184 q 712 329 693 262 q 747 496 732 395 l 831 1089 l 1044 1089 l 962 498 q 921 315 947 394 q 860 177 895 235 q 783 80 825 119 q 691 17 740 41 q 587 -16 642 -6 q 475 -26 533 -26 q 332 -7 397 -26 q 222 54 268 11 q 151 170 176 98 q 126 349 126 242 q 129 419 126 383 q 136 495 131 454 q 176 781 155 634 q 218 1089 197 928 l 432 1089 q 388 779 409 927 q 347 492 367 631 q 339 415 342 448 q 336 353 336 381 q 345 258 336 297 q 373 196 353 220 q 423 161 392 172 q 499 150 454 150 m 612 1158 l 477 1158 l 597 1626 l 855 1626 l 612 1158 z "},"Û":{"ha":1020,"x_min":126,"x_max":1044,"o":"m 499 150 q 596 167 555 151 q 665 223 636 184 q 712 329 693 262 q 747 496 732 395 l 831 1089 l 1044 1089 l 962 498 q 921 315 947 394 q 860 177 895 235 q 783 80 825 119 q 691 17 740 41 q 587 -16 642 -6 q 475 -26 533 -26 q 332 -7 397 -26 q 222 54 268 11 q 151 170 176 98 q 126 349 126 242 q 129 419 126 383 q 136 495 131 454 q 176 781 155 634 q 218 1089 197 928 l 432 1089 q 388 779 409 927 q 347 492 367 631 q 339 415 342 448 q 336 353 336 381 q 345 258 336 297 q 373 196 353 220 q 423 161 392 172 q 499 150 454 150 m 708 1594 l 857 1594 l 972 1160 l 808 1160 l 761 1377 l 661 1160 l 488 1160 l 708 1594 z "},"Ü":{"ha":1020,"x_min":126,"x_max":1044,"o":"m 499 150 q 596 167 555 151 q 665 223 636 184 q 712 329 693 262 q 747 496 732 395 l 831 1089 l 1044 1089 l 962 498 q 921 315 947 394 q 860 177 895 235 q 783 80 825 119 q 691 17 740 41 q 587 -16 642 -6 q 475 -26 533 -26 q 332 -7 397 -26 q 222 54 268 11 q 151 170 176 98 q 126 349 126 242 q 129 419 126 383 q 136 495 131 454 q 176 781 155 634 q 218 1089 197 928 l 432 1089 q 388 779 409 927 q 347 492 367 631 q 339 415 342 448 q 336 353 336 381 q 345 258 336 297 q 373 196 353 220 q 423 161 392 172 q 499 150 454 150 m 562 1320 q 548 1271 559 1294 q 520 1232 537 1249 q 480 1205 503 1215 q 435 1196 458 1196 q 397 1203 415 1196 q 366 1225 379 1211 q 343 1257 352 1238 q 334 1297 335 1276 q 343 1352 333 1326 q 372 1397 354 1377 q 413 1429 389 1417 q 461 1440 436 1440 q 500 1432 482 1440 q 532 1410 518 1424 q 553 1378 545 1396 q 563 1338 562 1359 q 563 1329 563 1333 q 562 1320 562 1324 m 970 1319 q 956 1271 967 1293 q 927 1232 945 1249 q 888 1205 910 1215 q 844 1196 867 1196 q 805 1203 823 1196 q 773 1225 787 1211 q 751 1257 760 1238 q 743 1297 743 1276 q 751 1352 741 1326 q 780 1398 762 1378 q 821 1429 798 1417 q 869 1440 844 1440 q 908 1432 890 1440 q 940 1410 926 1424 q 961 1378 953 1396 q 970 1338 969 1359 q 970 1329 970 1333 q 970 1319 970 1324 z "},"Ý":{"ha":818,"x_min":99,"x_max":958,"o":"m 454 617 l 724 1088 l 958 1088 l 525 355 l 477 0 l 267 0 l 315 357 l 99 1088 l 323 1088 l 454 617 m 571 1158 l 437 1158 l 557 1626 l 814 1626 l 571 1158 z "},"Þ":{"ha":839,"x_min":56,"x_max":896,"o":"m 208 1090 l 421 1090 l 409 1004 l 477 1004 q 671 988 591 1003 q 801 941 751 972 q 874 860 851 909 q 896 740 897 810 q 864 552 896 631 q 766 422 832 473 q 599 346 700 370 q 359 321 498 321 l 313 321 l 269 0 l 56 0 l 208 1090 m 684 667 q 686 690 685 679 q 686 711 687 701 q 674 764 686 742 q 637 800 663 786 q 567 821 611 814 q 457 828 523 828 l 384 828 l 338 498 l 383 498 q 524 508 468 498 q 614 538 580 517 q 663 590 648 558 q 684 667 679 622 z "},"ß":{"ha":993,"x_min":56,"x_max":960,"o":"m 457 635 q 654 683 591 635 q 717 826 717 731 q 563 938 717 938 q 485 922 518 938 q 429 874 452 905 q 391 796 406 842 q 370 689 377 749 l 273 0 l 56 0 l 153 688 q 289 994 181 888 q 586 1100 396 1100 q 724 1081 664 1100 q 825 1029 784 1062 q 887 949 866 996 q 909 850 909 903 q 907 794 909 824 q 897 736 905 765 q 872 679 888 707 q 828 630 856 652 q 758 593 800 608 q 655 573 715 578 q 799 544 741 564 q 893 491 857 523 q 944 418 928 460 q 960 326 960 376 q 934 155 960 227 q 866 33 909 83 q 767 -50 823 -18 q 649 -100 711 -81 q 524 -125 587 -118 q 404 -134 460 -133 l 373 46 q 530 67 460 51 q 651 116 601 83 q 728 198 701 148 q 755 323 755 249 q 674 452 755 412 q 437 491 593 491 l 457 635 z "},"à":{"ha":814,"x_min":64,"x_max":782,"o":"m 782 682 l 682 0 l 532 0 l 506 116 q 475 66 494 90 q 431 25 456 43 q 373 -2 405 8 q 304 -12 340 -12 q 195 9 240 -12 q 120 68 149 31 q 77 158 91 106 q 64 274 64 210 q 80 394 65 334 q 121 510 94 454 q 184 614 147 566 q 264 699 220 663 q 359 756 309 735 q 465 777 410 777 q 566 767 518 777 q 652 745 613 758 q 720 718 691 732 q 764 694 748 704 l 782 682 m 272 296 q 296 180 272 218 q 370 143 320 143 q 449 158 416 143 q 503 199 483 173 l 566 613 q 528 621 550 618 q 483 625 507 625 q 408 598 446 625 q 341 526 371 572 q 292 421 311 481 q 272 296 273 361 m 598 877 l 467 877 l 316 1360 l 580 1360 l 598 877 z "},"á":{"ha":814,"x_min":64,"x_max":782,"o":"m 782 682 l 682 0 l 532 0 l 506 116 q 475 66 494 90 q 431 25 456 43 q 373 -2 405 8 q 304 -12 340 -12 q 195 9 240 -12 q 120 68 149 31 q 77 158 91 106 q 64 274 64 210 q 80 394 65 334 q 121 510 94 454 q 184 614 147 566 q 264 699 220 663 q 359 756 309 735 q 465 777 410 777 q 566 767 518 777 q 652 745 613 758 q 720 718 691 732 q 764 694 748 704 l 782 682 m 272 296 q 296 180 272 218 q 370 143 320 143 q 449 158 416 143 q 503 199 483 173 l 566 613 q 528 621 550 618 q 483 625 507 625 q 408 598 446 625 q 341 526 371 572 q 292 421 311 481 q 272 296 273 361 m 509 877 l 375 877 l 495 1344 l 753 1344 l 509 877 z "},"â":{"ha":814,"x_min":64,"x_max":782,"o":"m 782 682 l 682 0 l 532 0 l 506 116 q 475 66 494 90 q 431 25 456 43 q 373 -2 405 8 q 304 -12 340 -12 q 195 9 240 -12 q 120 68 149 31 q 77 158 91 106 q 64 274 64 210 q 80 394 65 334 q 121 510 94 454 q 184 614 147 566 q 264 699 220 663 q 359 756 309 735 q 465 777 410 777 q 566 767 518 777 q 652 745 613 758 q 720 718 691 732 q 764 694 748 704 l 782 682 m 272 296 q 296 180 272 218 q 370 143 320 143 q 449 158 416 143 q 503 199 483 173 l 566 613 q 528 621 550 618 q 483 625 507 625 q 408 598 446 625 q 341 526 371 572 q 292 421 311 481 q 272 296 273 361 m 479 1312 l 628 1312 l 744 879 l 579 879 l 532 1095 l 433 879 l 259 879 l 479 1312 z "},"ã":{"ha":814,"x_min":64,"x_max":794,"o":"m 782 682 l 682 0 l 532 0 l 506 116 q 475 66 494 90 q 431 25 456 43 q 373 -2 405 8 q 304 -12 340 -12 q 195 9 240 -12 q 120 68 149 31 q 77 158 91 106 q 64 274 64 210 q 80 394 65 334 q 121 510 94 454 q 184 614 147 566 q 264 699 220 663 q 359 756 309 735 q 465 777 410 777 q 566 767 518 777 q 652 745 613 758 q 720 718 691 732 q 764 694 748 704 l 782 682 m 272 296 q 296 180 272 218 q 370 143 320 143 q 449 158 416 143 q 503 199 483 173 l 566 613 q 528 621 550 618 q 483 625 507 625 q 408 598 446 625 q 341 526 371 572 q 292 421 311 481 q 272 296 273 361 m 625 876 q 551 891 585 876 q 488 927 517 907 q 434 962 458 946 q 390 978 410 978 q 358 959 370 978 q 341 893 346 941 l 212 893 q 266 1064 222 1007 q 382 1120 309 1120 q 454 1105 423 1120 q 511 1072 485 1090 q 561 1038 537 1053 q 612 1023 585 1023 q 632 1026 624 1023 q 644 1037 640 1029 q 652 1058 649 1044 q 658 1094 654 1072 l 794 1094 q 774 1003 789 1043 q 739 934 760 962 q 688 891 717 906 q 625 876 659 876 z "},"ä":{"ha":814,"x_min":64,"x_max":808,"o":"m 782 682 l 682 0 l 532 0 l 506 116 q 475 66 494 90 q 431 25 456 43 q 373 -2 405 8 q 304 -12 340 -12 q 195 9 240 -12 q 120 68 149 31 q 77 158 91 106 q 64 274 64 210 q 80 394 65 334 q 121 510 94 454 q 184 614 147 566 q 264 699 220 663 q 359 756 309 735 q 465 777 410 777 q 566 767 518 777 q 652 745 613 758 q 720 718 691 732 q 764 694 748 704 l 782 682 m 272 296 q 296 180 272 218 q 370 143 320 143 q 449 158 416 143 q 503 199 483 173 l 566 613 q 528 621 550 618 q 483 625 507 625 q 408 598 446 625 q 341 526 371 572 q 292 421 311 481 q 272 296 273 361 m 400 1025 q 386 976 397 999 q 358 937 375 954 q 318 910 340 920 q 273 901 296 901 q 235 908 253 901 q 203 930 217 916 q 181 962 190 943 q 172 1002 173 981 q 181 1057 171 1031 q 210 1102 192 1082 q 251 1134 227 1122 q 299 1145 274 1145 q 338 1137 320 1145 q 370 1115 356 1129 q 391 1083 383 1101 q 401 1043 399 1064 q 400 1034 401 1038 q 400 1025 400 1029 m 808 1024 q 794 976 805 998 q 765 937 783 954 q 726 910 748 920 q 682 901 705 901 q 643 908 661 901 q 611 930 625 916 q 589 962 597 943 q 581 1002 581 981 q 589 1057 579 1031 q 617 1103 600 1083 q 659 1134 635 1122 q 707 1145 682 1145 q 746 1137 728 1145 q 778 1115 764 1129 q 799 1083 791 1101 q 808 1043 807 1064 q 808 1034 808 1038 q 808 1024 808 1029 z "},"å":{"ha":814,"x_min":64,"x_max":782,"o":"m 782 682 l 682 0 l 532 0 l 506 116 q 475 66 494 90 q 431 25 456 43 q 373 -2 405 8 q 304 -12 340 -12 q 195 9 240 -12 q 120 68 149 31 q 77 158 91 106 q 64 274 64 210 q 80 394 65 334 q 121 510 94 454 q 184 614 147 566 q 264 699 220 663 q 359 756 309 735 q 465 777 410 777 q 566 767 518 777 q 652 745 613 758 q 720 718 691 732 q 764 694 748 704 l 782 682 m 272 296 q 296 180 272 218 q 370 143 320 143 q 449 158 416 143 q 503 199 483 173 l 566 613 q 528 621 550 618 q 483 625 507 625 q 408 598 446 625 q 341 526 371 572 q 292 421 311 481 q 272 296 273 361 m 509 1223 q 458 1212 484 1223 q 414 1182 433 1201 q 383 1139 395 1164 q 372 1085 371 1114 q 381 1042 372 1061 q 406 1009 391 1023 q 441 987 421 995 q 483 979 460 979 q 533 990 509 979 q 577 1019 558 1000 q 608 1063 597 1038 q 618 1118 620 1088 q 609 1159 618 1140 q 586 1192 600 1178 q 551 1215 571 1206 q 509 1223 532 1223 m 261 1069 q 281 1170 259 1123 q 340 1251 303 1216 q 424 1305 377 1285 q 520 1324 471 1324 q 600 1310 563 1324 q 666 1270 637 1295 q 711 1209 694 1244 q 730 1133 728 1174 q 710 1034 732 1080 q 653 952 689 987 q 570 897 617 918 q 472 877 522 877 q 392 891 430 877 q 326 931 355 906 q 280 992 297 957 q 261 1069 262 1027 z "},"æ":{"ha":1185,"x_min":64,"x_max":1183,"o":"m 1103 53 q 975 5 1040 21 q 845 -11 910 -11 q 758 -4 797 -11 q 688 17 719 3 q 631 52 656 31 q 585 102 606 73 q 530 59 565 79 q 455 22 495 38 q 375 -2 415 7 q 304 -12 335 -12 q 196 9 241 -12 q 121 67 151 30 q 78 157 92 104 q 64 274 64 210 q 79 394 64 334 q 120 510 94 454 q 183 615 146 566 q 264 699 220 663 q 360 756 309 735 q 466 777 411 777 q 546 770 508 777 q 618 755 585 764 q 679 734 651 745 q 726 714 706 724 q 826 763 775 747 q 939 779 877 779 q 1049 757 1003 779 q 1126 699 1096 736 q 1170 613 1156 663 q 1183 508 1183 564 q 1181 486 1183 501 q 1166 452 1179 471 q 1126 413 1153 433 q 1048 375 1099 393 q 920 347 998 358 q 730 334 843 335 q 728 315 729 324 q 728 296 728 305 q 768 178 728 220 q 883 135 808 135 q 988 151 939 135 q 1082 198 1036 168 l 1103 53 m 272 292 q 297 179 273 216 q 370 143 321 143 q 414 146 389 143 q 463 156 439 150 q 509 172 488 163 q 543 192 530 181 q 534 236 537 213 q 532 284 532 259 q 556 457 532 377 q 625 600 580 537 q 600 606 615 602 q 565 614 584 610 q 525 622 546 618 q 484 625 504 625 q 408 598 446 625 q 341 526 371 571 q 292 420 311 480 q 272 292 273 359 m 745 443 q 856 448 810 444 q 930 457 901 452 q 976 469 960 463 q 999 482 991 475 q 1008 494 1006 488 q 1009 505 1009 500 q 983 602 1009 570 q 905 634 958 633 q 846 618 873 633 q 799 579 819 604 q 765 519 779 554 q 745 443 751 484 z "},"ç":{"ha":637,"x_min":65,"x_max":705,"o":"m 65 301 q 102 496 67 409 q 195 646 138 584 q 325 743 252 709 q 475 777 397 777 q 546 772 515 777 q 604 759 577 768 q 655 738 631 751 q 705 707 679 724 l 642 562 q 618 581 635 571 q 581 600 602 591 q 534 615 559 609 q 486 621 509 621 q 406 607 440 621 q 348 565 372 593 q 307 493 323 536 q 281 390 290 449 q 275 352 277 371 q 273 315 273 333 q 420 144 269 144 q 453 148 435 144 q 487 156 471 151 q 516 166 503 161 q 536 176 529 172 q 559 190 547 182 q 582 205 570 197 l 595 60 q 536 29 564 42 q 478 7 507 16 q 415 -6 448 -1 q 343 -12 382 -11 q 228 10 280 -11 q 139 70 176 31 q 83 168 102 110 q 65 301 63 226 m 237 -392 q 236 -390 237 -391 q 235 -388 236 -389 l 245 -298 q 255 -303 246 -298 q 277 -313 263 -308 q 310 -323 291 -319 q 351 -328 328 -328 q 372 -327 362 -328 q 391 -325 382 -326 q 437 -298 421 -319 q 451 -231 452 -276 q 410 -163 450 -186 q 293 -140 371 -140 l 326 42 l 404 42 q 389 -20 396 9 q 376 -79 382 -50 q 411 -81 391 -79 q 452 -91 431 -84 q 495 -107 473 -97 q 533 -134 516 -118 q 560 -172 549 -150 q 571 -222 570 -194 q 571 -233 572 -228 q 571 -243 571 -237 q 511 -381 563 -335 q 367 -428 460 -428 q 322 -424 342 -428 q 284 -414 301 -420 q 255 -402 267 -408 q 237 -392 243 -396 z "},"è":{"ha":682,"x_min":62,"x_max":737,"o":"m 299 443 q 409 448 364 444 q 484 457 454 452 q 529 469 513 463 q 553 482 545 475 q 562 494 560 488 q 563 505 563 500 q 459 634 563 635 q 400 620 427 634 q 353 580 373 606 q 319 519 332 555 q 299 443 305 484 m 658 53 q 399 -11 530 -11 q 259 9 321 -11 q 153 67 197 29 q 86 162 109 106 q 62 290 62 218 q 94 486 62 396 q 181 640 125 575 q 317 742 238 705 q 491 779 395 779 q 603 757 556 779 q 680 699 650 736 q 723 613 709 663 q 737 508 737 564 q 735 486 737 501 q 720 452 732 471 q 680 413 707 433 q 602 375 652 393 q 474 347 551 358 q 284 334 397 335 q 282 315 283 324 q 281 296 281 305 q 322 178 281 220 q 437 135 362 135 q 542 151 493 135 q 635 198 591 168 l 658 53 m 559 877 l 429 877 l 277 1360 l 541 1360 l 559 877 z "},"é":{"ha":682,"x_min":62,"x_max":737,"o":"m 299 443 q 409 448 364 444 q 484 457 454 452 q 529 469 513 463 q 553 482 545 475 q 562 494 560 488 q 563 505 563 500 q 459 634 563 635 q 400 620 427 634 q 353 580 373 606 q 319 519 332 555 q 299 443 305 484 m 658 53 q 399 -11 530 -11 q 259 9 321 -11 q 153 67 197 29 q 86 162 109 106 q 62 290 62 218 q 94 486 62 396 q 181 640 125 575 q 317 742 238 705 q 491 779 395 779 q 603 757 556 779 q 680 699 650 736 q 723 613 709 663 q 737 508 737 564 q 735 486 737 501 q 720 452 732 471 q 680 413 707 433 q 602 375 652 393 q 474 347 551 358 q 284 334 397 335 q 282 315 283 324 q 281 296 281 305 q 322 178 281 220 q 437 135 362 135 q 542 151 493 135 q 635 198 591 168 l 658 53 m 470 877 l 336 877 l 456 1344 l 713 1344 l 470 877 z "},"ê":{"ha":682,"x_min":62,"x_max":737,"o":"m 299 443 q 409 448 364 444 q 484 457 454 452 q 529 469 513 463 q 553 482 545 475 q 562 494 560 488 q 563 505 563 500 q 459 634 563 635 q 400 620 427 634 q 353 580 373 606 q 319 519 332 555 q 299 443 305 484 m 658 53 q 399 -11 530 -11 q 259 9 321 -11 q 153 67 197 29 q 86 162 109 106 q 62 290 62 218 q 94 486 62 396 q 181 640 125 575 q 317 742 238 705 q 491 779 395 779 q 603 757 556 779 q 680 699 650 736 q 723 613 709 663 q 737 508 737 564 q 735 486 737 501 q 720 452 732 471 q 680 413 707 433 q 602 375 652 393 q 474 347 551 358 q 284 334 397 335 q 282 315 283 324 q 281 296 281 305 q 322 178 281 220 q 437 135 362 135 q 542 151 493 135 q 635 198 591 168 l 658 53 m 441 1312 l 589 1312 l 705 879 l 541 879 l 494 1095 l 394 879 l 220 879 l 441 1312 z "},"ë":{"ha":740,"x_min":62,"x_max":785,"o":"m 299 443 q 409 448 364 444 q 484 457 454 452 q 529 469 513 463 q 553 482 545 475 q 562 494 560 488 q 563 505 563 500 q 459 634 563 635 q 400 620 427 634 q 353 580 373 606 q 319 519 332 555 q 299 443 305 484 m 658 53 q 399 -11 530 -11 q 259 9 321 -11 q 153 67 197 29 q 86 162 109 106 q 62 290 62 218 q 94 486 62 396 q 181 640 125 575 q 317 742 238 705 q 491 779 395 779 q 603 757 556 779 q 680 699 650 736 q 723 613 709 663 q 737 508 737 564 q 735 486 737 501 q 720 452 732 471 q 680 413 707 433 q 602 375 652 393 q 474 347 551 358 q 284 334 397 335 q 282 315 283 324 q 281 296 281 305 q 322 178 281 220 q 437 135 362 135 q 542 151 493 135 q 635 198 591 168 l 658 53 m 377 1025 q 363 976 374 999 q 335 937 352 954 q 295 910 317 920 q 250 901 273 901 q 212 908 230 901 q 180 930 194 916 q 158 962 167 943 q 149 1002 150 981 q 158 1057 148 1031 q 186 1102 169 1082 q 228 1134 204 1122 q 276 1145 251 1145 q 315 1137 297 1145 q 347 1115 333 1129 q 368 1083 360 1101 q 378 1043 376 1064 q 377 1034 378 1038 q 377 1025 377 1029 m 785 1024 q 771 976 782 998 q 742 937 760 954 q 703 910 725 920 q 659 901 682 901 q 620 908 637 901 q 588 930 602 916 q 566 962 574 943 q 557 1002 558 981 q 566 1057 556 1031 q 594 1103 576 1083 q 635 1134 612 1122 q 684 1145 659 1145 q 723 1137 705 1145 q 754 1115 741 1129 q 776 1083 768 1101 q 785 1043 784 1064 q 785 1034 785 1038 q 785 1024 785 1029 z "},"ì":{"ha":427,"x_min":45,"x_max":392,"o":"m 287 0 l 82 0 l 187 766 l 392 766 l 287 0 m 326 850 l 196 848 l 45 1327 l 308 1333 l 326 850 z "},"í":{"ha":427,"x_min":82,"x_max":555,"o":"m 287 0 l 82 0 l 187 766 l 392 766 l 287 0 m 304 846 l 176 848 l 299 1315 l 555 1309 l 304 846 z "},"î":{"ha":424,"x_min":63,"x_max":548,"o":"m 285 0 l 78 0 l 189 764 l 396 764 l 285 0 m 283 1318 l 432 1318 l 548 885 l 383 885 l 336 1101 l 237 885 l 63 885 l 283 1318 z "},"ï":{"ha":427,"x_min":-43,"x_max":593,"o":"m 287 0 l 82 0 l 187 766 l 392 766 l 287 0 m 184 965 q 170 917 181 939 q 141 878 159 895 q 102 851 124 861 q 57 842 80 842 q 19 849 37 842 q -13 871 1 857 q -35 903 -26 884 q -43 943 -43 922 q -35 998 -45 972 q -6 1043 -24 1023 q 35 1075 12 1063 q 83 1086 58 1086 q 122 1078 104 1086 q 154 1056 140 1070 q 175 1024 168 1042 q 184 984 183 1005 q 184 975 184 979 q 184 965 184 970 m 592 965 q 578 917 589 939 q 550 877 567 894 q 510 851 532 861 q 465 841 488 841 q 427 849 445 841 q 395 870 409 857 q 373 903 382 884 q 364 943 365 922 q 373 998 363 972 q 401 1043 384 1023 q 443 1075 419 1063 q 491 1086 466 1086 q 530 1078 512 1086 q 562 1056 548 1070 q 583 1024 575 1042 q 593 984 591 1005 q 592 975 593 979 q 592 965 592 970 z "},"ð":{"ha":814,"x_min":65,"x_max":779,"o":"m 273 374 q 270 330 271 351 q 270 290 269 309 q 373 145 277 145 q 431 162 405 145 q 476 210 456 180 q 509 280 496 239 q 527 367 522 321 q 536 458 532 412 q 546 549 541 503 q 487 606 522 589 q 410 624 451 624 q 346 601 370 624 q 306 541 321 577 q 284 460 291 504 q 273 374 277 416 m 65 288 q 71 399 64 342 q 94 511 77 456 q 136 614 110 566 q 198 700 162 663 q 279 758 233 736 q 382 779 325 779 q 489 754 444 779 q 559 682 534 729 q 539 780 557 727 q 480 899 520 832 l 364 856 l 323 951 l 420 987 q 374 1041 396 1018 q 332 1080 353 1064 l 431 1209 q 522 1132 481 1171 q 593 1054 562 1093 l 741 1109 l 779 1013 l 654 965 q 719 799 696 888 q 745 605 742 709 q 726 346 750 460 q 650 152 702 231 q 518 31 597 73 q 331 -11 438 -11 q 213 12 262 -11 q 131 75 163 35 q 83 169 99 115 q 65 288 67 224 z "},"ñ":{"ha":783,"x_min":43,"x_max":826,"o":"m 471 0 q 508 249 490 131 q 541 476 526 366 q 545 528 545 507 q 527 599 545 576 q 461 621 508 621 q 390 605 425 621 q 332 564 356 589 l 250 0 l 43 0 l 155 764 l 311 764 l 335 665 q 376 707 352 687 q 427 743 399 728 q 484 767 454 758 q 544 776 514 776 q 703 721 653 776 q 753 556 753 667 q 751 513 753 535 q 746 465 749 491 q 713 241 730 355 q 678 0 696 127 l 471 0 m 657 875 q 583 891 617 875 q 519 926 549 907 q 466 961 490 945 q 422 977 442 977 q 390 959 401 977 q 373 892 378 940 l 243 892 q 297 1063 254 1006 q 414 1120 340 1120 q 486 1104 455 1120 q 543 1071 517 1089 q 593 1037 569 1053 q 644 1022 616 1022 q 664 1025 656 1022 q 676 1036 671 1028 q 684 1058 681 1044 q 690 1093 686 1072 l 826 1093 q 806 1002 821 1042 q 770 933 792 962 q 720 890 749 905 q 657 875 691 875 z "},"ò":{"ha":789,"x_min":66,"x_max":766,"o":"m 66 293 q 73 393 65 339 q 98 500 80 446 q 147 604 117 554 q 222 692 177 654 q 328 753 267 730 q 469 777 389 777 q 600 755 545 777 q 692 694 655 734 q 747 596 728 654 q 766 465 765 538 q 757 365 766 418 q 730 258 749 311 q 681 156 711 205 q 605 70 650 107 q 500 11 560 33 q 363 -12 440 -12 q 236 9 291 -12 q 143 68 181 29 q 86 164 106 108 q 66 293 66 220 m 384 143 q 463 172 429 143 q 519 248 497 201 q 552 353 541 294 q 562 472 562 412 q 534 585 560 548 q 449 621 507 621 q 384 605 412 621 q 336 561 356 588 q 303 498 316 533 q 283 428 290 464 q 273 357 275 391 q 271 296 270 323 q 299 182 271 221 q 384 143 326 143 m 576 877 l 446 877 l 294 1360 l 558 1360 l 576 877 z "},"ó":{"ha":789,"x_min":66,"x_max":766,"o":"m 66 293 q 73 393 65 339 q 98 500 80 446 q 147 604 117 554 q 222 692 177 654 q 328 753 267 730 q 469 777 389 777 q 600 755 545 777 q 692 694 655 734 q 747 596 728 654 q 766 465 765 538 q 757 365 766 418 q 730 258 749 311 q 681 156 711 205 q 605 70 650 107 q 500 11 560 33 q 363 -12 440 -12 q 236 9 291 -12 q 143 68 181 29 q 86 164 106 108 q 66 293 66 220 m 384 143 q 463 172 429 143 q 519 248 497 201 q 552 353 541 294 q 562 472 562 412 q 534 585 560 548 q 449 621 507 621 q 384 605 412 621 q 336 561 356 588 q 303 498 316 533 q 283 428 290 464 q 273 357 275 391 q 271 296 270 323 q 299 182 271 221 q 384 143 326 143 m 487 877 l 353 877 l 473 1344 l 730 1344 l 487 877 z "},"ô":{"ha":789,"x_min":66,"x_max":766,"o":"m 66 293 q 73 393 65 339 q 98 500 80 446 q 147 604 117 554 q 222 692 177 654 q 328 753 267 730 q 469 777 389 777 q 600 755 545 777 q 692 694 655 734 q 747 596 728 654 q 766 465 765 538 q 757 365 766 418 q 730 258 749 311 q 681 156 711 205 q 605 70 650 107 q 500 11 560 33 q 363 -12 440 -12 q 236 9 291 -12 q 143 68 181 29 q 86 164 106 108 q 66 293 66 220 m 384 143 q 463 172 429 143 q 519 248 497 201 q 552 353 541 294 q 562 472 562 412 q 534 585 560 548 q 449 621 507 621 q 384 605 412 621 q 336 561 356 588 q 303 498 316 533 q 283 428 290 464 q 273 357 275 391 q 271 296 270 323 q 299 182 271 221 q 384 143 326 143 m 458 1312 l 606 1312 l 722 879 l 557 879 l 511 1095 l 411 879 l 237 879 l 458 1312 z "},"õ":{"ha":789,"x_min":66,"x_max":772,"o":"m 66 293 q 73 393 65 339 q 98 500 80 446 q 147 604 117 554 q 222 692 177 654 q 328 753 267 730 q 469 777 389 777 q 600 755 545 777 q 692 694 655 734 q 747 596 728 654 q 766 465 765 538 q 757 365 766 418 q 730 258 749 311 q 681 156 711 205 q 605 70 650 107 q 500 11 560 33 q 363 -12 440 -12 q 236 9 291 -12 q 143 68 181 29 q 86 164 106 108 q 66 293 66 220 m 384 143 q 463 172 429 143 q 519 248 497 201 q 552 353 541 294 q 562 472 562 412 q 534 585 560 548 q 449 621 507 621 q 384 605 412 621 q 336 561 356 588 q 303 498 316 533 q 283 428 290 464 q 273 357 275 391 q 271 296 270 323 q 299 182 271 221 q 384 143 326 143 m 603 876 q 529 891 563 876 q 465 927 494 907 q 412 962 436 946 q 368 978 388 978 q 335 959 347 978 q 319 893 323 941 l 189 893 q 243 1064 200 1007 q 360 1120 286 1120 q 432 1105 401 1120 q 489 1072 463 1090 q 538 1038 515 1053 q 589 1023 562 1023 q 609 1026 602 1023 q 622 1037 617 1029 q 629 1058 627 1044 q 635 1094 632 1072 l 772 1094 q 752 1003 766 1043 q 716 934 738 962 q 666 891 694 906 q 603 876 637 876 z "},"ö":{"ha":789,"x_min":66,"x_max":801,"o":"m 66 293 q 73 393 65 339 q 98 500 80 446 q 147 604 117 554 q 222 692 177 654 q 328 753 267 730 q 469 777 389 777 q 600 755 545 777 q 692 694 655 734 q 747 596 728 654 q 766 465 765 538 q 757 365 766 418 q 730 258 749 311 q 681 156 711 205 q 605 70 650 107 q 500 11 560 33 q 363 -12 440 -12 q 236 9 291 -12 q 143 68 181 29 q 86 164 106 108 q 66 293 66 220 m 384 143 q 463 172 429 143 q 519 248 497 201 q 552 353 541 294 q 562 472 562 412 q 534 585 560 548 q 449 621 507 621 q 384 605 412 621 q 336 561 356 588 q 303 498 316 533 q 283 428 290 464 q 273 357 275 391 q 271 296 270 323 q 299 182 271 221 q 384 143 326 143 m 393 1025 q 379 976 390 999 q 350 937 368 954 q 311 910 333 920 q 266 901 289 901 q 228 908 245 901 q 196 930 210 916 q 174 962 182 943 q 165 1002 165 981 q 174 1057 163 1031 q 202 1102 184 1082 q 243 1134 220 1122 q 292 1145 267 1145 q 331 1137 313 1145 q 362 1115 349 1129 q 384 1083 376 1101 q 393 1043 392 1064 q 393 1034 393 1038 q 393 1025 393 1029 m 800 1024 q 786 976 798 998 q 758 937 775 954 q 719 910 741 920 q 674 901 697 901 q 635 908 653 901 q 604 930 617 916 q 582 962 590 943 q 573 1002 574 981 q 582 1057 572 1031 q 610 1103 592 1083 q 651 1134 628 1122 q 700 1145 674 1145 q 739 1137 721 1145 q 770 1115 757 1129 q 791 1083 783 1101 q 801 1043 800 1064 q 801 1034 801 1038 q 800 1024 800 1029 z "},"÷":{"ha":827,"x_min":109,"x_max":467,"o":"m 168 500 l 208 786 l 467 786 l 427 500 l 168 500 m 109 0 l 149 287 l 409 287 l 369 0 l 109 0 z "},"ø":{"ha":783,"x_min":65,"x_max":755,"o":"m 374 118 q 380 117 376 117 q 508 184 463 117 q 568 381 553 250 q 572 435 570 411 q 572 480 573 460 q 530 614 569 574 l 374 118 m 65 293 q 70 390 64 337 q 92 496 75 442 q 136 600 108 549 q 209 689 165 650 q 313 751 253 728 q 454 774 374 774 q 485 773 469 774 q 517 770 500 772 l 566 927 l 621 909 l 574 755 q 693 672 650 730 q 749 528 736 615 q 755 454 755 494 q 749 358 756 410 q 725 254 743 306 q 679 155 708 203 q 606 70 650 106 q 504 11 563 33 q 368 -12 445 -12 q 349 -11 357 -12 q 335 -10 340 -11 l 300 -123 l 241 -104 l 274 0 q 120 99 172 24 q 65 293 69 174 m 477 641 q 442 645 455 645 q 315 581 360 645 q 254 388 270 516 q 248 286 247 332 q 315 133 252 169 l 477 641 z "},"ù":{"ha":820,"x_min":80,"x_max":794,"o":"m 358 764 q 342 654 351 712 q 326 536 334 596 q 309 415 317 475 q 292 297 300 354 q 288 266 289 277 q 288 249 288 257 q 289 235 288 241 q 315 170 290 194 q 378 143 339 145 q 450 159 418 145 q 506 201 481 174 l 588 764 l 794 764 l 686 0 l 540 0 q 525 58 532 29 q 511 115 518 86 q 479 67 498 90 q 437 27 461 45 q 384 -1 414 9 q 319 -12 354 -12 q 138 51 196 -12 q 80 237 79 114 q 82 277 80 255 q 87 322 84 298 q 120 550 104 436 q 151 764 137 663 l 358 764 m 587 866 l 456 866 l 305 1349 l 569 1349 l 587 866 z "},"ú":{"ha":820,"x_min":80,"x_max":794,"o":"m 358 764 q 342 654 351 712 q 326 536 334 596 q 309 415 317 475 q 292 297 300 354 q 288 266 289 277 q 288 249 288 257 q 289 235 288 241 q 315 170 290 194 q 378 143 339 145 q 450 159 418 145 q 506 201 481 174 l 588 764 l 794 764 l 686 0 l 540 0 q 525 58 532 29 q 511 115 518 86 q 479 67 498 90 q 437 27 461 45 q 384 -1 414 9 q 319 -12 354 -12 q 138 51 196 -12 q 80 237 79 114 q 82 277 80 255 q 87 322 84 298 q 120 550 104 436 q 151 764 137 663 l 358 764 m 498 866 l 363 866 l 484 1333 l 741 1333 l 498 866 z "},"û":{"ha":820,"x_min":80,"x_max":794,"o":"m 358 764 q 342 654 351 712 q 326 536 334 596 q 309 415 317 475 q 292 297 300 354 q 288 266 289 277 q 288 249 288 257 q 289 235 288 241 q 315 170 290 194 q 378 143 339 145 q 450 159 418 145 q 506 201 481 174 l 588 764 l 794 764 l 686 0 l 540 0 q 525 58 532 29 q 511 115 518 86 q 479 67 498 90 q 437 27 461 45 q 384 -1 414 9 q 319 -12 354 -12 q 138 51 196 -12 q 80 237 79 114 q 82 277 80 255 q 87 322 84 298 q 120 550 104 436 q 151 764 137 663 l 358 764 m 469 1301 l 617 1301 l 733 868 l 568 868 l 522 1084 l 422 868 l 248 868 l 469 1301 z "},"ü":{"ha":820,"x_min":80,"x_max":823,"o":"m 358 764 q 342 654 351 712 q 326 536 334 596 q 309 415 317 475 q 292 297 300 354 q 288 266 289 277 q 288 249 288 257 q 289 235 288 241 q 315 170 290 194 q 378 143 339 145 q 450 159 418 145 q 506 201 481 174 l 588 764 l 794 764 l 686 0 l 540 0 q 525 58 532 29 q 511 115 518 86 q 479 67 498 90 q 437 27 461 45 q 384 -1 414 9 q 319 -12 354 -12 q 138 51 196 -12 q 80 237 79 114 q 82 277 80 255 q 87 322 84 298 q 120 550 104 436 q 151 764 137 663 l 358 764 m 414 1025 q 400 976 412 999 q 372 937 389 954 q 333 910 355 920 q 288 901 311 901 q 249 908 267 901 q 218 930 231 916 q 196 962 204 943 q 186 1002 187 981 q 196 1057 185 1031 q 224 1102 206 1082 q 265 1134 241 1122 q 313 1145 288 1145 q 352 1137 334 1145 q 384 1115 370 1129 q 406 1083 397 1101 q 415 1043 414 1064 q 415 1034 415 1038 q 414 1025 414 1029 m 822 1024 q 808 976 819 998 q 780 937 797 954 q 741 910 762 920 q 696 901 719 901 q 657 908 675 901 q 625 930 639 916 q 604 962 612 943 q 595 1002 595 981 q 604 1057 593 1031 q 632 1103 614 1083 q 673 1134 650 1122 q 722 1145 696 1145 q 761 1137 743 1145 q 792 1115 779 1129 q 813 1083 805 1101 q 823 1043 821 1064 q 822 1034 823 1038 q 822 1024 822 1029 z "},"ý":{"ha":714,"x_min":16,"x_max":766,"o":"m 16 -161 q 55 -150 36 -155 q 92 -138 74 -144 q 152 -109 123 -127 q 203 -71 181 -92 q 239 -30 225 -51 q 254 9 252 -9 l 251 26 l 79 764 l 273 764 l 380 263 l 570 764 l 766 764 l 454 -14 q 404 -116 433 -71 q 337 -196 375 -161 q 253 -257 300 -231 q 149 -301 206 -283 q 104 -315 126 -308 q 58 -327 81 -321 l 16 -161 m 443 901 l 309 901 l 429 1368 l 686 1368 l 443 901 z "},"þ":{"ha":776,"x_min":7,"x_max":751,"o":"m 751 474 q 742 369 751 424 q 714 259 733 313 q 667 157 696 205 q 598 71 637 108 q 507 11 558 33 q 391 -11 455 -11 q 247 22 294 -11 l 204 -284 l 7 -306 l 197 1051 l 390 1051 l 345 726 q 421 765 382 751 q 503 778 460 778 q 620 752 572 778 q 696 684 667 726 q 738 587 726 642 q 751 474 751 532 m 414 160 q 465 177 443 160 q 503 220 487 193 q 530 280 519 246 q 547 348 541 314 q 556 415 553 382 q 559 471 559 447 q 476 606 559 606 q 445 600 463 606 q 406 584 427 594 q 364 561 385 574 q 323 532 342 547 l 277 213 q 338 175 304 190 q 414 160 372 160 z "},"ÿ":{"ha":714,"x_min":16,"x_max":777,"o":"m 16 -161 q 55 -150 36 -155 q 92 -138 74 -144 q 152 -109 123 -127 q 203 -71 181 -92 q 239 -30 225 -51 q 254 9 252 -9 l 251 26 l 79 764 l 273 764 l 380 263 l 570 764 l 766 764 l 454 -14 q 404 -116 433 -71 q 337 -196 375 -161 q 253 -257 300 -231 q 149 -301 206 -283 q 104 -315 126 -308 q 58 -327 81 -321 l 16 -161 m 369 1025 q 355 976 366 999 q 327 937 344 954 q 287 910 309 920 q 242 901 265 901 q 204 908 222 901 q 172 930 186 916 q 150 962 159 943 q 141 1002 142 981 q 150 1057 140 1031 q 178 1102 161 1082 q 219 1134 196 1122 q 268 1145 243 1145 q 307 1137 289 1145 q 338 1115 325 1129 q 360 1083 352 1101 q 370 1043 368 1064 q 369 1034 370 1038 q 369 1025 369 1029 m 777 1024 q 763 976 774 998 q 734 937 751 954 q 695 910 717 920 q 650 901 673 901 q 611 908 629 901 q 580 930 593 916 q 558 962 566 943 q 549 1002 550 981 q 558 1057 548 1031 q 586 1103 568 1083 q 627 1134 604 1122 q 676 1145 650 1145 q 715 1137 697 1145 q 746 1115 733 1129 q 768 1083 760 1101 q 777 1043 776 1064 q 777 1034 777 1038 q 777 1024 777 1029 z "},"Ā":{"ha":928,"x_min":-10,"x_max":898,"o":"m 559 810 l 493 649 l 374 376 l 618 376 l 583 616 l 559 810 m 488 1089 l 702 1089 l 893 0 l 679 0 l 639 269 l 334 269 l 214 0 l -10 0 l 488 1089 m 876 1197 l 332 1197 l 353 1350 l 898 1350 l 876 1197 z "},"ā":{"ha":814,"x_min":64,"x_max":782,"o":"m 782 682 l 682 0 l 532 0 l 506 116 q 475 66 494 90 q 431 25 456 43 q 373 -2 405 8 q 304 -12 340 -12 q 195 9 240 -12 q 120 68 149 31 q 77 158 91 106 q 64 274 64 210 q 80 394 65 334 q 121 510 94 454 q 184 614 147 566 q 264 699 220 663 q 359 756 309 735 q 465 777 410 777 q 566 767 518 777 q 652 745 613 758 q 720 718 691 732 q 764 694 748 704 l 782 682 m 272 296 q 296 180 272 218 q 370 143 320 143 q 449 158 416 143 q 503 199 483 173 l 566 613 q 528 621 550 618 q 483 625 507 625 q 408 598 446 625 q 341 526 371 572 q 292 421 311 481 q 272 296 273 361 m 741 902 l 197 902 l 218 1055 l 763 1055 l 741 902 z "},"Ă":{"ha":928,"x_min":-10,"x_max":897,"o":"m 559 810 l 493 649 l 374 376 l 618 376 l 583 616 l 559 810 m 488 1089 l 702 1089 l 893 0 l 679 0 l 639 269 l 334 269 l 214 0 l -10 0 l 488 1089 m 894 1383 q 809 1218 874 1270 q 631 1166 745 1166 q 484 1204 533 1166 q 432 1322 435 1242 q 433 1353 431 1337 q 437 1386 434 1369 l 576 1386 q 573 1370 574 1377 q 572 1356 572 1363 q 571 1340 571 1347 q 573 1326 572 1333 q 591 1276 576 1292 q 647 1260 607 1260 q 724 1290 698 1260 q 760 1386 749 1320 l 897 1386 l 894 1383 z "},"ă":{"ha":814,"x_min":64,"x_max":782,"o":"m 782 682 l 682 0 l 532 0 l 506 116 q 475 66 494 90 q 431 25 456 43 q 373 -2 405 8 q 304 -12 340 -12 q 195 9 240 -12 q 120 68 149 31 q 77 158 91 106 q 64 274 64 210 q 80 394 65 334 q 121 510 94 454 q 184 614 147 566 q 264 699 220 663 q 359 756 309 735 q 465 777 410 777 q 566 767 518 777 q 652 745 613 758 q 720 718 691 732 q 764 694 748 704 l 782 682 m 272 296 q 296 180 272 218 q 370 143 320 143 q 449 158 416 143 q 503 199 483 173 l 566 613 q 528 621 550 618 q 483 625 507 625 q 408 598 446 625 q 341 526 371 572 q 292 421 311 481 q 272 296 273 361 m 759 1088 q 674 923 739 975 q 496 871 610 871 q 349 909 398 871 q 297 1027 300 947 q 298 1058 296 1042 q 302 1091 299 1074 l 441 1091 q 438 1075 439 1082 q 437 1061 437 1068 q 436 1045 436 1052 q 438 1031 437 1038 q 456 981 441 997 q 512 965 472 965 q 589 995 563 965 q 625 1091 614 1025 l 762 1091 l 759 1088 z "},"Ą":{"ha":928,"x_min":-10,"x_max":893,"o":"m 559 810 l 493 649 l 374 376 l 618 376 l 583 616 l 559 810 m 488 1089 l 702 1089 l 893 0 l 679 0 l 639 269 l 334 269 l 214 0 l -10 0 l 488 1089 m 823 -367 q 752 -399 789 -389 q 680 -410 716 -410 q 607 -398 642 -410 q 545 -362 572 -386 q 503 -303 519 -338 q 487 -222 487 -268 q 495 -168 487 -193 q 517 -121 504 -143 q 549 -81 531 -100 q 585 -47 566 -62 q 682 14 627 -12 l 765 14 q 686 -60 720 -22 q 657 -94 671 -76 q 632 -132 643 -113 q 614 -171 621 -151 q 607 -210 607 -191 q 615 -256 607 -238 q 636 -286 623 -275 q 666 -301 649 -296 q 702 -306 683 -306 q 763 -297 732 -306 q 813 -277 793 -288 l 823 -367 z "},"ą":{"ha":814,"x_min":64,"x_max":782,"o":"m 782 682 l 682 0 l 532 0 l 506 116 q 475 66 494 90 q 431 25 456 43 q 373 -2 405 8 q 304 -12 340 -12 q 195 9 240 -12 q 120 68 149 31 q 77 158 91 106 q 64 274 64 210 q 80 394 65 334 q 121 510 94 454 q 184 614 147 566 q 264 699 220 663 q 359 756 309 735 q 465 777 410 777 q 566 767 518 777 q 652 745 613 758 q 720 718 691 732 q 764 694 748 704 l 782 682 m 272 296 q 296 180 272 218 q 370 143 320 143 q 449 158 416 143 q 503 199 483 173 l 566 613 q 528 621 550 618 q 483 625 507 625 q 408 598 446 625 q 341 526 371 572 q 292 421 311 481 q 272 296 273 361 m 680 -367 q 610 -399 646 -389 q 538 -410 574 -410 q 464 -398 499 -410 q 403 -362 429 -386 q 360 -303 376 -338 q 345 -222 345 -268 q 353 -168 345 -193 q 375 -121 361 -143 q 406 -81 389 -100 q 442 -47 424 -62 q 540 14 485 -12 l 623 14 q 543 -60 578 -22 q 514 -94 528 -76 q 489 -132 500 -113 q 471 -171 478 -151 q 465 -210 465 -191 q 472 -256 465 -238 q 493 -286 480 -275 q 524 -301 507 -296 q 559 -306 541 -306 q 621 -297 590 -306 q 671 -277 651 -288 l 680 -367 z "},"Ć":{"ha":844,"x_min":98,"x_max":990,"o":"m 98 383 q 111 570 98 479 q 151 741 123 661 q 221 888 178 821 q 325 1003 264 955 q 463 1078 385 1051 q 639 1105 541 1105 q 744 1095 698 1105 q 825 1072 791 1084 q 880 1047 859 1059 q 909 1032 901 1036 l 838 858 q 815 868 833 859 q 767 890 796 878 q 699 910 737 901 q 616 920 660 920 q 490 882 545 920 q 395 775 434 844 q 335 612 355 707 q 314 404 314 517 q 505 157 314 157 q 581 166 544 157 q 648 187 617 175 q 702 212 679 199 q 736 231 725 224 l 774 64 q 720 30 751 46 q 650 1 689 14 q 566 -18 612 -11 q 469 -26 520 -26 q 318 -2 387 -26 q 201 71 250 21 q 125 198 152 120 q 98 383 98 275 m 627 1200 l 793 1615 l 990 1553 l 721 1183 l 627 1200 z "},"ć":{"ha":637,"x_min":65,"x_max":735,"o":"m 65 301 q 102 496 67 409 q 195 646 138 584 q 325 743 252 709 q 475 777 397 777 q 546 772 515 777 q 604 759 577 768 q 655 738 631 751 q 705 707 679 724 l 642 562 q 618 581 635 571 q 581 600 602 591 q 534 615 559 609 q 486 621 509 621 q 406 607 440 621 q 348 565 372 593 q 307 493 323 536 q 281 390 290 449 q 275 352 277 371 q 273 315 273 333 q 420 144 269 144 q 453 148 435 144 q 487 156 471 151 q 516 166 503 161 q 536 176 529 172 q 559 190 547 182 q 582 205 570 197 l 595 60 q 536 29 564 42 q 478 7 507 16 q 415 -6 448 -1 q 343 -12 382 -11 q 228 10 280 -11 q 139 70 176 31 q 83 168 102 110 q 65 301 63 226 m 372 905 l 538 1320 l 735 1258 l 466 888 l 372 905 z "},"Ĉ":{"ha":844,"x_min":98,"x_max":909,"o":"m 98 383 q 111 570 98 479 q 151 741 123 661 q 221 888 178 821 q 325 1003 264 955 q 463 1078 385 1051 q 639 1105 541 1105 q 744 1095 698 1105 q 825 1072 791 1084 q 880 1047 859 1059 q 909 1032 901 1036 l 838 858 q 815 868 833 859 q 767 890 796 878 q 699 910 737 901 q 616 920 660 920 q 490 882 545 920 q 395 775 434 844 q 335 612 355 707 q 314 404 314 517 q 505 157 314 157 q 581 166 544 157 q 648 187 617 175 q 702 212 679 199 q 736 231 725 224 l 774 64 q 720 30 751 46 q 650 1 689 14 q 566 -18 612 -11 q 469 -26 520 -26 q 318 -2 387 -26 q 201 71 250 21 q 125 198 152 120 q 98 383 98 275 m 617 1631 l 766 1631 l 882 1198 l 717 1198 l 670 1414 l 570 1198 l 397 1198 l 617 1631 z "},"ĉ":{"ha":637,"x_min":65,"x_max":705,"o":"m 65 301 q 102 496 67 409 q 195 646 138 584 q 325 743 252 709 q 475 777 397 777 q 546 772 515 777 q 604 759 577 768 q 655 738 631 751 q 705 707 679 724 l 642 562 q 618 581 635 571 q 581 600 602 591 q 534 615 559 609 q 486 621 509 621 q 406 607 440 621 q 348 565 372 593 q 307 493 323 536 q 281 390 290 449 q 275 352 277 371 q 273 315 273 333 q 420 144 269 144 q 453 148 435 144 q 487 156 471 151 q 516 166 503 161 q 536 176 529 172 q 559 190 547 182 q 582 205 570 197 l 595 60 q 536 29 564 42 q 478 7 507 16 q 415 -6 448 -1 q 343 -12 382 -11 q 228 10 280 -11 q 139 70 176 31 q 83 168 102 110 q 65 301 63 226 m 363 1336 l 511 1336 l 627 903 l 463 903 l 416 1119 l 316 903 l 142 903 l 363 1336 z "},"Ċ":{"ha":844,"x_min":98,"x_max":909,"o":"m 98 383 q 111 570 98 479 q 151 741 123 661 q 221 888 178 821 q 325 1003 264 955 q 463 1078 385 1051 q 639 1105 541 1105 q 744 1095 698 1105 q 825 1072 791 1084 q 880 1047 859 1059 q 909 1032 901 1036 l 838 858 q 815 868 833 859 q 767 890 796 878 q 699 910 737 901 q 616 920 660 920 q 490 882 545 920 q 395 775 434 844 q 335 612 355 707 q 314 404 314 517 q 505 157 314 157 q 581 166 544 157 q 648 187 617 175 q 702 212 679 199 q 736 231 725 224 l 774 64 q 720 30 751 46 q 650 1 689 14 q 566 -18 612 -11 q 469 -26 520 -26 q 318 -2 387 -26 q 201 71 250 21 q 125 198 152 120 q 98 383 98 275 m 827 1194 l 557 1193 l 597 1479 l 869 1479 l 827 1194 z "},"ċ":{"ha":637,"x_min":65,"x_max":705,"o":"m 65 301 q 102 496 67 409 q 195 646 138 584 q 325 743 252 709 q 475 777 397 777 q 546 772 515 777 q 604 759 577 768 q 655 738 631 751 q 705 707 679 724 l 642 562 q 618 581 635 571 q 581 600 602 591 q 534 615 559 609 q 486 621 509 621 q 406 607 440 621 q 348 565 372 593 q 307 493 323 536 q 281 390 290 449 q 275 352 277 371 q 273 315 273 333 q 420 144 269 144 q 453 148 435 144 q 487 156 471 151 q 516 166 503 161 q 536 176 529 172 q 559 190 547 182 q 582 205 570 197 l 595 60 q 536 29 564 42 q 478 7 507 16 q 415 -6 448 -1 q 343 -12 382 -11 q 228 10 280 -11 q 139 70 176 31 q 83 168 102 110 q 65 301 63 226 m 572 899 l 302 898 l 342 1184 l 614 1184 l 572 899 z "},"Č":{"ha":844,"x_min":98,"x_max":1001,"o":"m 98 383 q 111 570 98 479 q 151 741 123 661 q 221 888 178 821 q 325 1003 264 955 q 463 1078 385 1051 q 639 1105 541 1105 q 744 1095 698 1105 q 825 1072 791 1084 q 880 1047 859 1059 q 909 1032 901 1036 l 838 858 q 815 868 833 859 q 767 890 796 878 q 699 910 737 901 q 616 920 660 920 q 490 882 545 920 q 395 775 434 844 q 335 612 355 707 q 314 404 314 517 q 505 157 314 157 q 581 166 544 157 q 648 187 617 175 q 702 212 679 199 q 736 231 725 224 l 774 64 q 720 30 751 46 q 650 1 689 14 q 566 -18 612 -11 q 469 -26 520 -26 q 318 -2 387 -26 q 201 71 250 21 q 125 198 152 120 q 98 383 98 275 m 780 1197 l 631 1197 l 516 1630 l 681 1630 l 728 1413 l 827 1630 l 1001 1630 l 780 1197 z "},"č":{"ha":637,"x_min":65,"x_max":746,"o":"m 65 301 q 102 496 67 409 q 195 646 138 584 q 325 743 252 709 q 475 777 397 777 q 546 772 515 777 q 604 759 577 768 q 655 738 631 751 q 705 707 679 724 l 642 562 q 618 581 635 571 q 581 600 602 591 q 534 615 559 609 q 486 621 509 621 q 406 607 440 621 q 348 565 372 593 q 307 493 323 536 q 281 390 290 449 q 275 352 277 371 q 273 315 273 333 q 420 144 269 144 q 453 148 435 144 q 487 156 471 151 q 516 166 503 161 q 536 176 529 172 q 559 190 547 182 q 582 205 570 197 l 595 60 q 536 29 564 42 q 478 7 507 16 q 415 -6 448 -1 q 343 -12 382 -11 q 228 10 280 -11 q 139 70 176 31 q 83 168 102 110 q 65 301 63 226 m 525 902 l 376 902 l 261 1335 l 426 1335 l 473 1118 l 572 1335 l 746 1335 l 525 902 z "},"Ď":{"ha":977,"x_min":52,"x_max":966,"o":"m 749 683 q 708 868 750 805 q 578 931 666 931 l 409 931 l 292 156 l 449 156 q 546 176 503 156 q 622 231 589 195 q 679 315 655 266 q 718 422 703 363 q 741 547 734 480 q 749 683 749 613 m 966 694 q 930 410 965 538 q 829 191 896 281 q 665 50 763 100 q 437 0 566 0 l 52 0 l 212 1090 l 594 1090 q 748 1068 680 1090 q 866 997 817 1045 q 941 874 915 949 q 966 694 967 799 m 650 1197 l 502 1197 l 387 1630 l 551 1630 l 598 1413 l 698 1630 l 871 1630 l 650 1197 z "},"ď":{"ha":1309,"x_min":60,"x_max":1237,"o":"m 399 777 q 504 749 462 776 q 568 675 547 723 l 630 1097 l 841 1131 l 677 1 l 529 1 l 503 115 q 470 64 490 87 q 424 24 450 41 q 364 -2 397 7 q 294 -12 331 -12 q 186 9 231 -12 q 114 69 142 31 q 73 160 86 107 q 60 277 60 213 q 70 397 60 337 q 98 513 79 458 q 146 617 117 569 q 213 700 175 665 q 297 755 251 735 q 399 777 344 776 m 273 374 q 267 290 265 328 q 291 181 268 218 q 363 144 314 144 q 445 159 410 144 q 500 199 479 174 q 514 300 507 252 q 528 391 522 347 q 540 475 534 435 q 551 556 546 516 q 495 603 529 584 q 416 622 461 622 q 352 598 378 622 q 311 538 327 574 q 287 458 296 502 q 273 374 278 414 m 937 800 l 966 1086 l 1237 1086 l 1206 802 q 1178 702 1200 743 q 1128 634 1157 661 q 1068 590 1100 606 q 1008 567 1036 574 l 954 650 q 965 658 956 650 q 985 677 974 665 q 1009 704 996 689 q 1033 736 1022 720 q 1053 769 1044 752 q 1062 800 1061 785 l 937 800 z "},"Đ":{"ha":977,"x_min":52,"x_max":966,"o":"m 749 683 q 708 868 750 805 q 578 931 666 931 l 409 931 l 292 156 l 449 156 q 546 176 503 156 q 622 231 589 195 q 679 315 655 266 q 718 422 703 363 q 741 547 734 480 q 749 683 749 613 m 966 694 q 930 410 965 538 q 829 191 896 281 q 665 50 763 100 q 437 0 566 0 l 52 0 l 212 1090 l 594 1090 q 748 1068 680 1090 q 866 997 817 1045 q 941 874 915 949 q 966 694 967 799 m 616 486 l 73 486 l 94 640 l 638 640 l 616 486 z "},"đ":{"ha":807,"x_min":60,"x_max":884,"o":"m 399 777 q 504 749 462 776 q 568 675 547 723 l 630 1097 l 841 1131 l 677 1 l 529 1 l 503 115 q 470 64 490 87 q 424 24 450 41 q 364 -2 397 7 q 294 -12 331 -12 q 186 9 231 -12 q 114 69 142 31 q 73 160 86 107 q 60 277 60 213 q 70 397 60 337 q 98 513 79 458 q 146 617 117 569 q 213 700 175 665 q 297 755 251 735 q 399 777 344 776 m 273 374 q 267 290 265 328 q 291 181 268 218 q 363 144 314 144 q 445 159 410 144 q 500 199 479 174 q 514 300 507 252 q 528 391 522 347 q 540 475 534 435 q 551 556 546 516 q 495 603 529 584 q 416 622 461 622 q 352 598 378 622 q 311 538 327 574 q 287 458 296 502 q 273 374 278 414 m 862 838 l 319 838 l 340 991 l 884 991 l 862 838 z "},"Ē":{"ha":800,"x_min":52,"x_max":848,"o":"m 707 0 l 52 0 l 206 1089 l 848 1089 l 825 931 l 396 931 l 355 648 l 739 648 l 718 494 l 332 494 l 283 155 l 736 155 l 707 0 m 768 1197 l 225 1197 l 246 1350 l 791 1350 l 768 1197 z "},"ē":{"ha":740,"x_min":62,"x_max":740,"o":"m 299 443 q 409 448 364 444 q 484 457 454 452 q 529 469 513 463 q 553 482 545 475 q 562 494 560 488 q 563 505 563 500 q 459 634 563 635 q 400 620 427 634 q 353 580 373 606 q 319 519 332 555 q 299 443 305 484 m 658 53 q 399 -11 530 -11 q 259 9 321 -11 q 153 67 197 29 q 86 162 109 106 q 62 290 62 218 q 94 486 62 396 q 181 640 125 575 q 317 742 238 705 q 491 779 395 779 q 603 757 556 779 q 680 699 650 736 q 723 613 709 663 q 737 508 737 564 q 735 486 737 501 q 720 452 732 471 q 680 413 707 433 q 602 375 652 393 q 474 347 551 358 q 284 334 397 335 q 282 315 283 324 q 281 296 281 305 q 322 178 281 220 q 437 135 362 135 q 542 151 493 135 q 635 198 591 168 l 658 53 m 718 902 l 174 902 l 195 1055 l 740 1055 l 718 902 z "},"Ĕ":{"ha":800,"x_min":52,"x_max":848,"o":"m 707 0 l 52 0 l 206 1089 l 848 1089 l 825 931 l 396 931 l 355 648 l 739 648 l 718 494 l 332 494 l 283 155 l 736 155 l 707 0 m 787 1383 q 702 1218 767 1270 q 524 1166 637 1166 q 377 1204 426 1166 q 325 1322 328 1242 q 326 1353 324 1337 q 330 1386 327 1369 l 469 1386 q 466 1370 467 1377 q 465 1356 465 1363 q 464 1340 464 1347 q 466 1326 465 1333 q 484 1276 469 1292 q 540 1260 500 1260 q 616 1290 591 1260 q 652 1386 642 1320 l 789 1386 l 787 1383 z "},"ĕ":{"ha":740,"x_min":62,"x_max":739,"o":"m 299 443 q 409 448 364 444 q 484 457 454 452 q 529 469 513 463 q 553 482 545 475 q 562 494 560 488 q 563 505 563 500 q 459 634 563 635 q 400 620 427 634 q 353 580 373 606 q 319 519 332 555 q 299 443 305 484 m 658 53 q 399 -11 530 -11 q 259 9 321 -11 q 153 67 197 29 q 86 162 109 106 q 62 290 62 218 q 94 486 62 396 q 181 640 125 575 q 317 742 238 705 q 491 779 395 779 q 603 757 556 779 q 680 699 650 736 q 723 613 709 663 q 737 508 737 564 q 735 486 737 501 q 720 452 732 471 q 680 413 707 433 q 602 375 652 393 q 474 347 551 358 q 284 334 397 335 q 282 315 283 324 q 281 296 281 305 q 322 178 281 220 q 437 135 362 135 q 542 151 493 135 q 635 198 591 168 l 658 53 m 736 1088 q 651 923 716 975 q 473 871 587 871 q 326 909 375 871 q 274 1027 277 947 q 275 1058 273 1042 q 279 1091 276 1074 l 418 1091 q 415 1075 416 1082 q 414 1061 414 1068 q 413 1045 413 1052 q 415 1031 414 1038 q 433 981 418 997 q 489 965 449 965 q 566 995 540 965 q 602 1091 591 1025 l 739 1091 l 736 1088 z "},"Ė":{"ha":800,"x_min":52,"x_max":848,"o":"m 707 0 l 52 0 l 206 1089 l 848 1089 l 825 931 l 396 931 l 355 648 l 739 648 l 718 494 l 332 494 l 283 155 l 736 155 l 707 0 m 639 1194 l 369 1193 l 409 1479 l 680 1479 l 639 1194 z "},"ė":{"ha":740,"x_min":62,"x_max":737,"o":"m 299 443 q 409 448 364 444 q 484 457 454 452 q 529 469 513 463 q 553 482 545 475 q 562 494 560 488 q 563 505 563 500 q 459 634 563 635 q 400 620 427 634 q 353 580 373 606 q 319 519 332 555 q 299 443 305 484 m 658 53 q 399 -11 530 -11 q 259 9 321 -11 q 153 67 197 29 q 86 162 109 106 q 62 290 62 218 q 94 486 62 396 q 181 640 125 575 q 317 742 238 705 q 491 779 395 779 q 603 757 556 779 q 680 699 650 736 q 723 613 709 663 q 737 508 737 564 q 735 486 737 501 q 720 452 732 471 q 680 413 707 433 q 602 375 652 393 q 474 347 551 358 q 284 334 397 335 q 282 315 283 324 q 281 296 281 305 q 322 178 281 220 q 437 135 362 135 q 542 151 493 135 q 635 198 591 168 l 658 53 m 588 899 l 318 898 l 358 1184 l 629 1184 l 588 899 z "},"Ę":{"ha":800,"x_min":52,"x_max":848,"o":"m 707 0 l 52 0 l 206 1089 l 848 1089 l 825 931 l 396 931 l 355 648 l 739 648 l 718 494 l 332 494 l 283 155 l 736 155 l 707 0 m 619 -367 q 549 -399 585 -389 q 477 -410 513 -410 q 403 -398 438 -410 q 342 -362 368 -386 q 299 -303 315 -338 q 283 -222 283 -268 q 292 -168 283 -193 q 314 -121 300 -143 q 345 -81 328 -100 q 381 -47 363 -62 q 479 14 424 -12 l 562 14 q 482 -60 517 -22 q 453 -94 467 -76 q 428 -132 439 -113 q 410 -171 417 -151 q 404 -210 404 -191 q 411 -256 404 -238 q 432 -286 419 -275 q 463 -301 446 -296 q 498 -306 479 -306 q 559 -297 529 -306 q 610 -277 590 -288 l 619 -367 z "},"ę":{"ha":740,"x_min":62,"x_max":737,"o":"m 299 443 q 409 448 364 444 q 484 457 454 452 q 529 469 513 463 q 553 482 545 475 q 562 494 560 488 q 563 505 563 500 q 459 634 563 635 q 400 620 427 634 q 353 580 373 606 q 319 519 332 555 q 299 443 305 484 m 658 53 q 399 -11 530 -11 q 259 9 321 -11 q 153 67 197 29 q 86 162 109 106 q 62 290 62 218 q 94 486 62 396 q 181 640 125 575 q 317 742 238 705 q 491 779 395 779 q 603 757 556 779 q 680 699 650 736 q 723 613 709 663 q 737 508 737 564 q 735 486 737 501 q 720 452 732 471 q 680 413 707 433 q 602 375 652 393 q 474 347 551 358 q 284 334 397 335 q 282 315 283 324 q 281 296 281 305 q 322 178 281 220 q 437 135 362 135 q 542 151 493 135 q 635 198 591 168 l 658 53 m 568 -367 q 498 -399 534 -389 q 426 -410 462 -410 q 352 -398 387 -410 q 291 -362 317 -386 q 249 -303 264 -338 q 233 -222 233 -268 q 241 -168 233 -193 q 263 -121 250 -143 q 294 -81 277 -100 q 330 -47 312 -62 q 428 14 373 -12 l 511 14 q 431 -60 466 -22 q 402 -94 416 -76 q 377 -132 389 -113 q 359 -171 366 -151 q 353 -210 353 -191 q 360 -256 353 -238 q 381 -286 368 -275 q 412 -301 395 -296 q 448 -306 429 -306 q 509 -297 478 -306 q 559 -277 539 -288 l 568 -367 z "},"Ě":{"ha":800,"x_min":52,"x_max":848,"o":"m 707 0 l 52 0 l 206 1089 l 848 1089 l 825 931 l 396 931 l 355 648 l 739 648 l 718 494 l 332 494 l 283 155 l 736 155 l 707 0 m 592 1190 l 444 1190 l 328 1623 l 493 1623 l 540 1406 l 640 1623 l 813 1623 l 592 1190 z "},"ě":{"ha":682,"x_min":62,"x_max":752,"o":"m 299 443 q 409 448 364 444 q 484 457 454 452 q 529 469 513 463 q 553 482 545 475 q 562 494 560 488 q 563 505 563 500 q 459 634 563 635 q 400 620 427 634 q 353 580 373 606 q 319 519 332 555 q 299 443 305 484 m 658 53 q 399 -11 530 -11 q 259 9 321 -11 q 153 67 197 29 q 86 162 109 106 q 62 290 62 218 q 94 486 62 396 q 181 640 125 575 q 317 742 238 705 q 491 779 395 779 q 603 757 556 779 q 680 699 650 736 q 723 613 709 663 q 737 508 737 564 q 735 486 737 501 q 720 452 732 471 q 680 413 707 433 q 602 375 652 393 q 474 347 551 358 q 284 334 397 335 q 282 315 283 324 q 281 296 281 305 q 322 178 281 220 q 437 135 362 135 q 542 151 493 135 q 635 198 591 168 l 658 53 m 531 878 l 382 878 l 267 1312 l 432 1312 l 479 1095 l 578 1312 l 752 1312 l 531 878 z "},"Ĝ":{"ha":983,"x_min":98,"x_max":969,"o":"m 98 383 q 140 691 98 557 q 255 917 182 825 q 427 1057 328 1009 q 640 1105 526 1105 q 756 1092 703 1103 q 852 1066 810 1081 q 924 1035 895 1050 q 969 1008 954 1019 l 897 853 q 870 866 892 855 q 814 889 849 877 q 731 910 779 901 q 627 920 684 920 q 495 880 553 920 q 396 771 437 841 q 335 607 356 702 q 313 399 313 511 q 326 288 313 334 q 362 213 338 242 q 422 170 387 184 q 506 157 458 157 q 566 165 533 157 q 629 184 598 173 q 684 208 659 195 q 720 229 709 220 q 724 261 722 245 q 729 293 727 277 l 751 441 l 545 441 l 566 596 l 950 596 l 866 0 l 729 0 l 720 98 q 680 52 705 75 q 622 13 654 30 q 552 -15 590 -5 q 473 -26 514 -26 q 98 383 98 -26 m 607 1631 l 755 1631 l 871 1198 l 707 1198 l 660 1414 l 560 1198 l 387 1198 l 607 1631 z "},"ĝ":{"ha":766,"x_min":-14,"x_max":856,"o":"m 305 518 q 315 476 305 498 q 337 434 325 454 q 360 401 349 415 q 374 386 372 388 q 451 415 422 398 q 495 452 479 432 q 515 494 510 471 q 520 540 520 516 q 418 631 520 631 q 358 623 380 631 q 324 601 336 616 q 309 566 312 587 q 305 518 305 545 m 160 -142 q 171 -178 160 -163 q 204 -203 182 -193 q 262 -218 227 -213 q 347 -222 297 -222 q 424 -217 392 -222 q 477 -197 456 -211 q 508 -162 498 -184 q 518 -107 518 -140 q 512 -75 518 -90 q 490 -48 505 -60 q 448 -25 474 -35 q 385 -7 422 -14 l 270 14 q 232 -21 252 -1 q 196 -63 212 -41 q 170 -105 180 -84 q 160 -142 160 -125 m 704 540 q 686 436 703 479 q 632 358 669 392 q 540 299 596 325 q 406 249 484 273 l 271 209 q 236 198 252 203 q 205 185 220 192 q 302 160 250 170 q 406 140 355 150 q 545 101 487 123 q 641 51 604 79 q 697 -14 679 22 q 717 -94 715 -50 q 699 -190 717 -142 q 637 -278 682 -239 q 518 -342 593 -317 q 326 -367 442 -367 q 173 -352 237 -367 q 67 -313 109 -338 q 6 -257 26 -289 q -14 -192 -14 -226 q -11 -138 -14 -162 q 0 -94 -7 -114 q 19 -57 7 -74 q 48 -23 31 -39 q 93 20 70 -1 q 136 62 116 42 q 122 65 136 60 q 93 82 109 71 q 63 111 77 94 q 48 153 49 129 q 48 185 47 170 q 52 214 49 200 q 65 249 56 233 q 90 277 74 264 q 129 301 106 290 q 183 320 151 311 l 238 339 q 227 346 237 340 q 204 362 218 352 q 176 388 191 373 q 149 422 161 403 q 128 467 136 442 q 119 519 119 491 q 135 611 118 565 q 189 694 152 657 q 284 753 227 730 q 424 777 342 777 q 607 735 555 777 q 781 775 691 774 q 819 779 800 777 q 856 782 837 781 l 838 629 l 686 629 q 692 611 688 622 q 698 587 695 600 q 702 563 701 575 q 704 540 704 550 m 399 1336 l 547 1336 l 663 903 l 498 903 l 452 1119 l 352 903 l 178 903 l 399 1336 z "},"Ğ":{"ha":983,"x_min":98,"x_max":969,"o":"m 98 383 q 140 691 98 557 q 255 917 182 825 q 427 1057 328 1009 q 640 1105 526 1105 q 756 1092 703 1103 q 852 1066 810 1081 q 924 1035 895 1050 q 969 1008 954 1019 l 897 853 q 870 866 892 855 q 814 889 849 877 q 731 910 779 901 q 627 920 684 920 q 495 880 553 920 q 396 771 437 841 q 335 607 356 702 q 313 399 313 511 q 326 288 313 334 q 362 213 338 242 q 422 170 387 184 q 506 157 458 157 q 566 165 533 157 q 629 184 598 173 q 684 208 659 195 q 720 229 709 220 q 724 261 722 245 q 729 293 727 277 l 751 441 l 545 441 l 566 596 l 950 596 l 866 0 l 729 0 l 720 98 q 680 52 705 75 q 622 13 654 30 q 552 -15 590 -5 q 473 -26 514 -26 q 98 383 98 -26 m 869 1383 q 785 1218 850 1270 q 606 1166 720 1166 q 460 1204 509 1166 q 408 1322 411 1242 q 408 1353 407 1337 q 413 1386 410 1369 l 551 1386 q 549 1370 550 1377 q 547 1356 548 1363 q 547 1340 547 1347 q 549 1326 547 1333 q 567 1276 551 1292 q 623 1260 583 1260 q 699 1290 673 1260 q 735 1386 725 1320 l 872 1386 l 869 1383 z "},"ğ":{"ha":766,"x_min":-14,"x_max":856,"o":"m 305 518 q 315 476 305 498 q 337 434 325 454 q 360 401 349 415 q 374 386 372 388 q 451 415 422 398 q 495 452 479 432 q 515 494 510 471 q 520 540 520 516 q 418 631 520 631 q 358 623 380 631 q 324 601 336 616 q 309 566 312 587 q 305 518 305 545 m 160 -142 q 171 -178 160 -163 q 204 -203 182 -193 q 262 -218 227 -213 q 347 -222 297 -222 q 424 -217 392 -222 q 477 -197 456 -211 q 508 -162 498 -184 q 518 -107 518 -140 q 512 -75 518 -90 q 490 -48 505 -60 q 448 -25 474 -35 q 385 -7 422 -14 l 270 14 q 232 -21 252 -1 q 196 -63 212 -41 q 170 -105 180 -84 q 160 -142 160 -125 m 704 540 q 686 436 703 479 q 632 358 669 392 q 540 299 596 325 q 406 249 484 273 l 271 209 q 236 198 252 203 q 205 185 220 192 q 302 160 250 170 q 406 140 355 150 q 545 101 487 123 q 641 51 604 79 q 697 -14 679 22 q 717 -94 715 -50 q 699 -190 717 -142 q 637 -278 682 -239 q 518 -342 593 -317 q 326 -367 442 -367 q 173 -352 237 -367 q 67 -313 109 -338 q 6 -257 26 -289 q -14 -192 -14 -226 q -11 -138 -14 -162 q 0 -94 -7 -114 q 19 -57 7 -74 q 48 -23 31 -39 q 93 20 70 -1 q 136 62 116 42 q 122 65 136 60 q 93 82 109 71 q 63 111 77 94 q 48 153 49 129 q 48 185 47 170 q 52 214 49 200 q 65 249 56 233 q 90 277 74 264 q 129 301 106 290 q 183 320 151 311 l 238 339 q 227 346 237 340 q 204 362 218 352 q 176 388 191 373 q 149 422 161 403 q 128 467 136 442 q 119 519 119 491 q 135 611 118 565 q 189 694 152 657 q 284 753 227 730 q 424 777 342 777 q 607 735 555 777 q 781 775 691 774 q 819 779 800 777 q 856 782 837 781 l 838 629 l 686 629 q 692 611 688 622 q 698 587 695 600 q 702 563 701 575 q 704 540 704 550 m 757 1088 q 672 923 737 975 q 494 871 608 871 q 347 909 396 871 q 295 1027 298 947 q 296 1058 294 1042 q 300 1091 297 1074 l 439 1091 q 436 1075 437 1082 q 435 1061 435 1068 q 434 1045 434 1052 q 436 1031 435 1038 q 454 981 439 997 q 510 965 470 965 q 587 995 561 965 q 623 1091 612 1025 l 760 1091 l 757 1088 z "},"Ġ":{"ha":983,"x_min":98,"x_max":969,"o":"m 98 383 q 140 691 98 557 q 255 917 182 825 q 427 1057 328 1009 q 640 1105 526 1105 q 756 1092 703 1103 q 852 1066 810 1081 q 924 1035 895 1050 q 969 1008 954 1019 l 897 853 q 870 866 892 855 q 814 889 849 877 q 731 910 779 901 q 627 920 684 920 q 495 880 553 920 q 396 771 437 841 q 335 607 356 702 q 313 399 313 511 q 326 288 313 334 q 362 213 338 242 q 422 170 387 184 q 506 157 458 157 q 566 165 533 157 q 629 184 598 173 q 684 208 659 195 q 720 229 709 220 q 724 261 722 245 q 729 293 727 277 l 751 441 l 545 441 l 566 596 l 950 596 l 866 0 l 729 0 l 720 98 q 680 52 705 75 q 622 13 654 30 q 552 -15 590 -5 q 473 -26 514 -26 q 98 383 98 -26 m 722 1194 l 452 1193 l 492 1479 l 763 1479 l 722 1194 z "},"ġ":{"ha":766,"x_min":-14,"x_max":856,"o":"m 305 518 q 315 476 305 498 q 337 434 325 454 q 360 401 349 415 q 374 386 372 388 q 451 415 422 398 q 495 452 479 432 q 515 494 510 471 q 520 540 520 516 q 418 631 520 631 q 358 623 380 631 q 324 601 336 616 q 309 566 312 587 q 305 518 305 545 m 160 -142 q 171 -178 160 -163 q 204 -203 182 -193 q 262 -218 227 -213 q 347 -222 297 -222 q 424 -217 392 -222 q 477 -197 456 -211 q 508 -162 498 -184 q 518 -107 518 -140 q 512 -75 518 -90 q 490 -48 505 -60 q 448 -25 474 -35 q 385 -7 422 -14 l 270 14 q 232 -21 252 -1 q 196 -63 212 -41 q 170 -105 180 -84 q 160 -142 160 -125 m 704 540 q 686 436 703 479 q 632 358 669 392 q 540 299 596 325 q 406 249 484 273 l 271 209 q 236 198 252 203 q 205 185 220 192 q 302 160 250 170 q 406 140 355 150 q 545 101 487 123 q 641 51 604 79 q 697 -14 679 22 q 717 -94 715 -50 q 699 -190 717 -142 q 637 -278 682 -239 q 518 -342 593 -317 q 326 -367 442 -367 q 173 -352 237 -367 q 67 -313 109 -338 q 6 -257 26 -289 q -14 -192 -14 -226 q -11 -138 -14 -162 q 0 -94 -7 -114 q 19 -57 7 -74 q 48 -23 31 -39 q 93 20 70 -1 q 136 62 116 42 q 122 65 136 60 q 93 82 109 71 q 63 111 77 94 q 48 153 49 129 q 48 185 47 170 q 52 214 49 200 q 65 249 56 233 q 90 277 74 264 q 129 301 106 290 q 183 320 151 311 l 238 339 q 227 346 237 340 q 204 362 218 352 q 176 388 191 373 q 149 422 161 403 q 128 467 136 442 q 119 519 119 491 q 135 611 118 565 q 189 694 152 657 q 284 753 227 730 q 424 777 342 777 q 607 735 555 777 q 781 775 691 774 q 819 779 800 777 q 856 782 837 781 l 838 629 l 686 629 q 692 611 688 622 q 698 587 695 600 q 702 563 701 575 q 704 540 704 550 m 609 899 l 339 898 l 379 1184 l 650 1184 l 609 899 z "},"Ģ":{"ha":983,"x_min":98,"x_max":969,"o":"m 98 383 q 140 691 98 557 q 255 917 182 825 q 427 1057 328 1009 q 640 1105 526 1105 q 756 1092 703 1103 q 852 1066 810 1081 q 924 1035 895 1050 q 969 1008 954 1019 l 897 853 q 870 866 892 855 q 814 889 849 877 q 731 910 779 901 q 627 920 684 920 q 495 880 553 920 q 396 771 437 841 q 335 607 356 702 q 313 399 313 511 q 326 288 313 334 q 362 213 338 242 q 422 170 387 184 q 506 157 458 157 q 566 165 533 157 q 629 184 598 173 q 684 208 659 195 q 720 229 709 220 q 724 261 722 245 q 729 293 727 277 l 751 441 l 545 441 l 566 596 l 950 596 l 866 0 l 729 0 l 720 98 q 680 52 705 75 q 622 13 654 30 q 552 -15 590 -5 q 473 -26 514 -26 q 98 383 98 -26 m 290 -361 l 330 -75 l 602 -75 l 560 -360 q 530 -459 552 -418 q 478 -528 507 -500 q 416 -572 448 -556 q 355 -595 383 -587 l 303 -513 q 314 -505 305 -512 q 334 -486 322 -498 q 359 -459 346 -474 q 385 -427 373 -444 q 405 -393 397 -410 q 416 -361 414 -376 l 290 -361 z "},"ģ":{"ha":766,"x_min":-14,"x_max":856,"o":"m 305 518 q 315 476 305 498 q 337 434 325 454 q 360 401 349 415 q 374 386 372 388 q 451 415 422 398 q 495 452 479 432 q 515 494 510 471 q 520 540 520 516 q 418 631 520 631 q 358 623 380 631 q 324 601 336 616 q 309 566 312 587 q 305 518 305 545 m 160 -142 q 171 -178 160 -163 q 204 -203 182 -193 q 262 -218 227 -213 q 347 -222 297 -222 q 424 -217 392 -222 q 477 -197 456 -211 q 508 -162 498 -184 q 518 -107 518 -140 q 512 -75 518 -90 q 490 -48 505 -60 q 448 -25 474 -35 q 385 -7 422 -14 l 270 14 q 232 -21 252 -1 q 196 -63 212 -41 q 170 -105 180 -84 q 160 -142 160 -125 m 704 540 q 686 436 703 479 q 632 358 669 392 q 540 299 596 325 q 406 249 484 273 l 271 209 q 236 198 252 203 q 205 185 220 192 q 302 160 250 170 q 406 140 355 150 q 545 101 487 123 q 641 51 604 79 q 697 -14 679 22 q 717 -94 715 -50 q 699 -190 717 -142 q 637 -278 682 -239 q 518 -342 593 -317 q 326 -367 442 -367 q 173 -352 237 -367 q 67 -313 109 -338 q 6 -257 26 -289 q -14 -192 -14 -226 q -11 -138 -14 -162 q 0 -94 -7 -114 q 19 -57 7 -74 q 48 -23 31 -39 q 93 20 70 -1 q 136 62 116 42 q 122 65 136 60 q 93 82 109 71 q 63 111 77 94 q 48 153 49 129 q 48 185 47 170 q 52 214 49 200 q 65 249 56 233 q 90 277 74 264 q 129 301 106 290 q 183 320 151 311 l 238 339 q 227 346 237 340 q 204 362 218 352 q 176 388 191 373 q 149 422 161 403 q 128 467 136 442 q 119 519 119 491 q 135 611 118 565 q 189 694 152 657 q 284 753 227 730 q 424 777 342 777 q 607 735 555 777 q 781 775 691 774 q 819 779 800 777 q 856 782 837 781 l 838 629 l 686 629 q 692 611 688 622 q 698 587 695 600 q 702 563 701 575 q 704 540 704 550 m 533 1210 l 504 924 l 233 924 l 263 1208 q 290 1308 269 1267 q 340 1376 311 1349 q 401 1419 369 1404 q 461 1442 433 1435 l 515 1360 q 481 1329 499 1347 q 447 1291 463 1311 q 420 1251 431 1272 q 408 1210 409 1230 l 533 1210 z "},"Ĥ":{"ha":1005,"x_min":50,"x_max":1031,"o":"m 658 0 l 732 491 l 337 491 l 264 0 l 50 0 l 213 1088 l 427 1088 l 360 645 l 753 645 l 821 1088 l 1031 1088 l 869 0 l 658 0 m 519 1631 l 667 1631 l 783 1198 l 618 1198 l 572 1414 l 472 1198 l 298 1198 l 519 1631 z "},"ĥ":{"ha":801,"x_min":43,"x_max":768,"o":"m 412 1139 l 345 676 q 364 696 349 680 q 406 731 379 713 q 469 763 432 749 q 555 777 507 777 q 715 720 661 777 q 768 547 769 663 q 767 508 768 528 q 761 466 765 488 l 694 0 l 487 0 l 555 473 q 558 493 557 483 q 559 514 559 503 q 534 595 559 568 q 466 621 509 621 q 421 616 441 621 q 385 604 401 612 q 355 586 368 596 q 331 565 342 576 l 248 0 l 43 0 l 202 1101 l 412 1139 m 385 1336 l 533 1336 l 649 903 l 484 903 l 437 1119 l 338 903 l 164 903 l 385 1336 z "},"Ħ":{"ha":1005,"x_min":50,"x_max":1099,"o":"m 1077 811 l 106 811 l 127 964 l 1099 964 l 1077 811 m 658 0 l 732 491 l 337 491 l 264 0 l 50 0 l 213 1088 l 427 1088 l 360 645 l 753 645 l 821 1088 l 1031 1088 l 869 0 l 658 0 z "},"ħ":{"ha":801,"x_min":43,"x_max":768,"o":"m 412 1139 l 345 676 q 364 696 349 680 q 406 731 379 713 q 469 763 432 749 q 555 777 507 777 q 715 720 661 777 q 768 547 769 663 q 767 508 768 528 q 761 466 765 488 l 694 0 l 487 0 l 555 473 q 558 493 557 483 q 559 514 559 503 q 534 595 559 568 q 466 621 509 621 q 421 616 441 621 q 385 604 401 612 q 355 586 368 596 q 331 565 342 576 l 248 0 l 43 0 l 202 1101 l 412 1139 m 640 837 l 96 837 l 117 990 l 662 990 l 640 837 z "},"Ĩ":{"ha":606,"x_min":24,"x_max":715,"o":"m 41 103 l 163 103 l 302 981 l 181 981 l 201 1088 l 650 1088 l 631 981 l 508 981 l 369 103 l 492 103 l 472 0 l 24 0 l 41 103 m 547 1187 q 472 1203 507 1187 q 409 1239 438 1219 q 356 1274 380 1258 q 311 1290 332 1290 q 279 1271 291 1290 q 262 1205 267 1253 l 133 1205 q 187 1376 144 1319 q 304 1432 230 1432 q 375 1417 345 1432 q 432 1383 406 1402 q 482 1350 458 1365 q 533 1335 506 1335 q 553 1338 545 1335 q 566 1349 561 1341 q 573 1370 570 1356 q 579 1406 576 1384 l 715 1406 q 696 1315 710 1355 q 660 1246 682 1274 q 609 1203 638 1218 q 547 1187 581 1187 z "},"ĩ":{"ha":424,"x_min":20,"x_max":602,"o":"m 285 0 l 78 0 l 189 764 l 396 764 l 285 0 m 433 838 q 359 853 393 838 q 296 889 325 869 q 242 924 267 908 q 198 940 218 940 q 166 921 178 940 q 149 855 154 903 l 20 855 q 74 1026 31 969 q 191 1082 117 1082 q 262 1067 231 1082 q 319 1034 293 1052 q 369 1000 345 1015 q 420 985 393 985 q 440 988 432 985 q 452 999 448 991 q 460 1020 457 1006 q 466 1056 463 1034 l 602 1056 q 583 965 597 1005 q 547 896 568 924 q 496 853 525 868 q 433 838 467 838 z "},"Ī":{"ha":606,"x_min":24,"x_max":677,"o":"m 41 103 l 163 103 l 302 981 l 181 981 l 201 1088 l 650 1088 l 631 981 l 508 981 l 369 103 l 492 103 l 472 0 l 24 0 l 41 103 m 655 1197 l 112 1197 l 133 1350 l 677 1350 l 655 1197 z "},"ī":{"ha":424,"x_min":39,"x_max":604,"o":"m 285 0 l 78 0 l 189 764 l 396 764 l 285 0 m 582 875 l 39 875 l 60 1028 l 604 1028 l 582 875 z "},"Ĭ":{"ha":606,"x_min":24,"x_max":677,"o":"m 41 103 l 163 103 l 302 981 l 181 981 l 201 1088 l 650 1088 l 631 981 l 508 981 l 369 103 l 492 103 l 472 0 l 24 0 l 41 103 m 674 1383 q 590 1218 654 1270 q 411 1166 525 1166 q 264 1204 313 1166 q 212 1322 216 1242 q 213 1353 212 1337 q 218 1386 214 1369 l 356 1386 q 354 1370 355 1377 q 352 1356 353 1363 q 352 1340 351 1347 q 353 1326 352 1333 q 372 1276 356 1292 q 427 1260 387 1260 q 504 1290 478 1260 q 540 1386 530 1320 l 677 1386 l 674 1383 z "},"Į":{"ha":606,"x_min":24,"x_max":650,"o":"m 41 103 l 163 103 l 302 981 l 181 981 l 201 1088 l 650 1088 l 631 981 l 508 981 l 369 103 l 492 103 l 472 0 l 24 0 l 41 103 m 506 -367 q 436 -399 472 -389 q 363 -410 399 -410 q 290 -398 325 -410 q 229 -362 255 -386 q 186 -303 202 -338 q 170 -222 170 -268 q 179 -168 170 -193 q 201 -121 187 -143 q 232 -81 214 -100 q 268 -47 250 -62 q 366 14 311 -12 l 448 14 q 369 -60 404 -22 q 340 -94 354 -76 q 315 -132 326 -113 q 297 -171 304 -151 q 290 -210 290 -191 q 298 -256 290 -238 q 319 -286 306 -275 q 349 -301 332 -296 q 385 -306 366 -306 q 446 -297 416 -306 q 496 -277 477 -288 l 506 -367 z "},"į":{"ha":424,"x_min":78,"x_max":450,"o":"m 448 1012 q 433 964 445 986 q 403 925 421 942 q 363 899 385 909 q 317 890 341 890 q 280 897 298 890 q 249 918 262 905 q 229 950 236 932 q 222 991 221 968 q 233 1044 222 1019 q 262 1090 244 1070 q 304 1121 281 1109 q 353 1133 328 1133 q 392 1125 374 1133 q 422 1103 410 1117 q 443 1070 435 1089 q 450 1031 450 1052 q 449 1021 450 1025 q 448 1012 449 1017 m 285 0 l 78 0 l 189 764 l 396 764 l 285 0 m 433 -367 q 362 -399 399 -389 q 290 -410 326 -410 q 217 -398 252 -410 q 155 -362 182 -386 q 113 -303 129 -338 q 97 -222 97 -268 q 105 -168 97 -193 q 127 -121 114 -143 q 159 -81 141 -100 q 195 -47 176 -62 q 292 14 237 -12 l 375 14 q 296 -60 330 -22 q 267 -94 281 -76 q 242 -132 253 -113 q 224 -171 231 -151 q 217 -210 217 -191 q 225 -256 217 -238 q 246 -286 233 -275 q 276 -301 259 -296 q 312 -306 293 -306 q 373 -297 342 -306 q 423 -277 404 -288 l 433 -367 z "},"İ":{"ha":424,"x_min":78,"x_max":450,"o":"m 448 1012 q 433 964 445 986 q 403 925 421 942 q 363 899 385 909 q 317 890 341 890 q 280 897 298 890 q 249 918 262 905 q 229 950 236 932 q 222 991 221 968 q 233 1044 222 1019 q 262 1090 244 1070 q 304 1121 281 1109 q 353 1133 328 1133 q 392 1125 374 1133 q 422 1103 410 1117 q 443 1070 435 1089 q 450 1031 450 1052 q 449 1021 450 1025 q 448 1012 449 1017 m 285 0 l 78 0 l 189 764 l 396 764 l 285 0 z "},"ı":{"ha":424,"x_min":78,"x_max":396,"o":"m 285 0 l 78 0 l 189 764 l 396 764 l 285 0 z "},"Ĵ":{"ha":578,"x_min":46,"x_max":734,"o":"m 46 98 q 166 131 121 111 q 234 180 210 151 q 269 250 258 210 q 286 345 279 290 l 390 1088 l 602 1088 l 501 370 q 485 272 494 321 q 458 177 475 223 q 413 91 441 132 q 340 19 385 51 q 233 -33 296 -12 q 82 -60 170 -54 l 46 98 m 469 1631 l 618 1631 l 734 1198 l 569 1198 l 522 1414 l 422 1198 l 249 1198 l 469 1631 z "},"ĵ":{"ha":453,"x_min":-1,"x_max":609,"o":"m -1 -87 q 61 -43 35 -65 q 105 6 87 -21 q 136 68 124 33 q 153 151 147 103 l 235 764 l 442 764 l 359 137 q 318 0 348 63 q 246 -112 289 -63 q 151 -195 203 -161 q 40 -242 98 -228 l -1 -87 m 345 1336 l 493 1336 l 609 903 l 444 903 l 397 1119 l 298 903 l 124 903 l 345 1336 z "},"Ķ":{"ha":895,"x_min":56,"x_max":1006,"o":"m 768 1088 l 1006 1088 l 586 544 l 623 472 l 890 0 l 645 0 l 385 472 l 334 472 l 269 0 l 56 0 l 208 1088 l 421 1088 l 357 624 l 409 624 l 768 1088 m 288 -361 l 328 -75 l 600 -75 l 558 -360 q 528 -459 550 -418 q 476 -528 505 -500 q 414 -572 446 -556 q 353 -595 381 -587 l 301 -513 q 312 -505 303 -512 q 332 -486 320 -498 q 357 -459 344 -474 q 383 -427 371 -444 q 403 -393 395 -410 q 414 -361 412 -376 l 288 -361 z "},"ķ":{"ha":741,"x_min":43,"x_max":812,"o":"m 288 277 l 249 0 l 43 0 l 203 1101 l 415 1131 l 318 479 l 583 764 l 812 764 l 492 429 l 735 0 l 517 0 l 336 321 l 288 277 m 184 -361 l 224 -75 l 496 -75 l 454 -360 q 424 -459 446 -418 q 372 -528 401 -500 q 310 -572 342 -556 q 249 -595 277 -587 l 197 -513 q 208 -505 199 -512 q 228 -486 216 -498 q 254 -459 240 -474 q 279 -427 267 -444 q 299 -393 291 -410 q 310 -361 308 -376 l 184 -361 z "},"Ĺ":{"ha":732,"x_min":56,"x_max":733,"o":"m 686 0 l 56 0 l 210 1088 l 422 1088 l 290 155 l 707 155 l 686 0 m 370 1200 l 536 1615 l 733 1553 l 464 1183 l 370 1200 z "},"ĺ":{"ha":390,"x_min":45,"x_max":640,"o":"m 416 1131 l 251 0 l 45 0 l 205 1100 l 416 1131 m 277 1190 l 443 1604 l 640 1542 l 371 1172 l 277 1190 z "},"Ļ":{"ha":732,"x_min":56,"x_max":707,"o":"m 686 0 l 56 0 l 210 1088 l 422 1088 l 290 155 l 707 155 l 686 0 m 139 -361 l 179 -75 l 450 -75 l 409 -360 q 378 -459 401 -418 q 327 -528 356 -500 q 264 -572 297 -556 q 203 -595 232 -587 l 152 -513 q 162 -505 154 -512 q 183 -486 171 -498 q 208 -459 195 -474 q 234 -427 222 -444 q 254 -393 245 -410 q 264 -361 262 -376 l 139 -361 z "},"ļ":{"ha":390,"x_min":-12,"x_max":416,"o":"m 416 1131 l 251 0 l 45 0 l 205 1100 l 416 1131 m -12 -361 l 28 -75 l 300 -75 l 258 -360 q 228 -459 250 -418 q 176 -528 205 -500 q 114 -572 146 -556 q 53 -595 81 -587 l 1 -513 q 12 -505 3 -512 q 32 -486 20 -498 q 58 -459 44 -474 q 83 -427 71 -444 q 103 -393 95 -410 q 114 -361 112 -376 l -12 -361 z "},"Ľ":{"ha":732,"x_min":56,"x_max":816,"o":"m 686 0 l 56 0 l 210 1088 l 422 1088 l 290 155 l 707 155 l 686 0 m 516 803 l 545 1089 l 816 1089 l 785 804 q 757 705 779 746 q 707 636 736 664 q 647 593 679 609 q 587 570 615 577 l 533 652 q 544 661 535 653 q 564 680 553 668 q 588 707 575 692 q 612 739 601 722 q 631 771 623 755 q 641 803 640 788 l 516 803 z "},"ľ":{"ha":892,"x_min":45,"x_max":803,"o":"m 416 1131 l 251 0 l 45 0 l 205 1100 l 416 1131 m 503 801 l 532 1087 l 803 1087 l 772 802 q 744 703 766 744 q 694 634 723 662 q 634 591 666 607 q 574 568 602 575 l 520 650 q 531 659 522 651 q 551 678 540 666 q 575 705 562 690 q 599 736 588 720 q 618 769 610 753 q 628 801 627 786 l 503 801 z "},"Ŀ":{"ha":732,"x_min":56,"x_max":707,"o":"m 686 0 l 56 0 l 210 1088 l 422 1088 l 290 155 l 707 155 l 686 0 z "},"ŀ":{"ha":390,"x_min":45,"x_max":416,"o":"m 416 1131 l 251 0 l 45 0 l 205 1100 l 416 1131 z "},"Ł":{"ha":732,"x_min":33,"x_max":707,"o":"m 686 0 l 56 0 l 210 1088 l 422 1088 l 290 155 l 707 155 l 686 0 m 37 554 l 33 707 l 558 707 l 564 554 l 37 554 z "},"ł":{"ha":390,"x_min":-15,"x_max":516,"o":"m 416 1131 l 251 0 l 45 0 l 205 1100 l 416 1131 m -10 608 l -15 762 l 511 762 l 516 608 l -10 608 z "},"Ń":{"ha":1042,"x_min":56,"x_max":1065,"o":"m 907 0 l 684 0 l 573 256 l 363 785 l 254 0 l 56 0 l 214 1088 l 443 1088 l 549 836 l 763 305 l 867 1088 l 1065 1088 l 907 0 m 549 1200 l 715 1615 l 912 1553 l 643 1183 l 549 1200 z "},"ń":{"ha":792,"x_min":43,"x_max":869,"o":"m 471 0 q 508 249 490 131 q 541 476 526 366 q 545 528 545 507 q 527 599 545 576 q 461 621 508 621 q 390 605 425 621 q 332 564 356 589 l 250 0 l 43 0 l 155 764 l 311 764 l 335 665 q 376 707 352 687 q 427 743 399 728 q 484 767 454 758 q 544 776 514 776 q 703 721 653 776 q 753 556 753 667 q 751 513 753 535 q 746 465 749 491 q 713 241 730 355 q 678 0 696 127 l 471 0 m 625 892 l 491 892 l 611 1359 l 869 1359 l 625 892 z "},"Ņ":{"ha":1042,"x_min":56,"x_max":1065,"o":"m 907 0 l 684 0 l 573 256 l 363 785 l 254 0 l 56 0 l 214 1088 l 443 1088 l 549 836 l 763 305 l 867 1088 l 1065 1088 l 907 0 m 318 -361 l 358 -75 l 629 -75 l 588 -360 q 557 -459 580 -418 q 506 -528 535 -500 q 444 -572 476 -556 q 382 -595 411 -587 l 331 -513 q 341 -505 333 -512 q 362 -486 350 -498 q 387 -459 374 -474 q 413 -427 401 -444 q 433 -393 425 -410 q 444 -361 441 -376 l 318 -361 z "},"ņ":{"ha":783,"x_min":43,"x_max":753,"o":"m 471 0 q 508 249 490 131 q 541 476 526 366 q 545 528 545 507 q 527 599 545 576 q 461 621 508 621 q 390 605 425 621 q 332 564 356 589 l 250 0 l 43 0 l 155 764 l 311 764 l 335 665 q 376 707 352 687 q 427 743 399 728 q 484 767 454 758 q 544 776 514 776 q 703 721 653 776 q 753 556 753 667 q 751 513 753 535 q 746 465 749 491 q 713 241 730 355 q 678 0 696 127 l 471 0 m 155 -361 l 195 -75 l 467 -75 l 425 -360 q 395 -459 417 -418 q 343 -528 372 -500 q 281 -572 313 -556 q 220 -595 248 -587 l 168 -513 q 179 -505 170 -512 q 199 -486 187 -498 q 224 -459 211 -474 q 250 -427 238 -444 q 270 -393 262 -410 q 281 -361 279 -376 l 155 -361 z "},"Ň":{"ha":1015,"x_min":56,"x_max":1065,"o":"m 907 0 l 684 0 l 573 256 l 363 785 l 254 0 l 56 0 l 214 1088 l 443 1088 l 549 836 l 763 305 l 867 1088 l 1065 1088 l 907 0 z "},"ň":{"ha":792,"x_min":43,"x_max":888,"o":"m 471 0 q 508 249 490 131 q 541 476 526 366 q 545 528 545 507 q 527 599 545 576 q 461 621 508 621 q 390 605 425 621 q 332 564 356 589 l 250 0 l 43 0 l 155 764 l 311 764 l 335 665 q 376 707 352 687 q 427 743 399 728 q 484 767 454 758 q 544 776 514 776 q 703 721 653 776 q 753 556 753 667 q 751 513 753 535 q 746 465 749 491 q 713 241 730 355 q 678 0 696 127 l 471 0 m 667 893 l 518 893 l 403 1326 l 568 1326 l 614 1109 l 714 1326 l 888 1326 l 667 893 z "},"Ŋ":{"ha":1042,"x_min":56,"x_max":1065,"o":"m 451 -277 q 571 -245 526 -264 q 639 -196 615 -225 q 673 -126 663 -166 q 691 -31 684 -85 l 684 0 l 573 256 l 363 785 l 254 0 l 56 0 l 214 1088 l 443 1088 l 549 836 l 763 305 l 867 1088 l 1065 1088 l 907 0 l 906 -5 q 890 -103 899 -54 q 863 -198 880 -153 q 818 -284 846 -244 q 745 -356 789 -325 q 638 -409 701 -388 q 487 -435 574 -429 l 451 -277 z "},"ŋ":{"ha":783,"x_min":43,"x_max":753,"o":"m 338 -87 q 400 -43 374 -65 q 444 6 426 -21 q 474 68 463 33 q 492 151 486 102 q 507 253 500 210 q 518 329 513 296 q 526 383 523 361 q 532 422 530 406 q 537 451 535 439 q 541 476 539 464 q 545 528 545 507 q 527 599 545 576 q 461 621 508 621 q 390 605 425 621 q 332 564 356 589 l 250 0 l 43 0 l 155 764 l 311 764 l 335 665 q 376 707 352 687 q 427 743 399 728 q 484 767 454 758 q 544 776 514 776 q 703 721 653 776 q 753 556 753 667 q 751 513 753 535 q 746 465 749 491 l 698 137 q 657 0 687 63 q 585 -112 628 -63 q 490 -195 543 -161 q 379 -242 437 -228 l 338 -87 z "},"Ō":{"ha":1004,"x_min":98,"x_max":994,"o":"m 994 664 q 975 460 994 554 q 921 290 956 366 q 838 154 886 213 q 731 56 789 96 q 605 -5 672 16 q 467 -26 538 -26 q 314 1 382 -26 q 197 81 245 27 q 123 214 149 134 q 98 401 98 294 q 139 696 98 566 q 252 917 180 826 q 420 1055 323 1007 q 627 1103 516 1103 q 776 1076 709 1103 q 892 994 844 1048 q 967 856 941 939 q 994 664 994 774 m 777 660 q 735 856 777 790 q 601 921 694 921 q 494 889 546 921 q 402 795 442 858 q 339 638 363 732 q 315 417 315 543 q 493 157 315 157 q 612 196 559 157 q 701 301 665 234 q 757 460 738 368 q 777 660 777 552 m 863 1197 l 320 1197 l 341 1350 l 886 1350 l 863 1197 z "},"ō":{"ha":789,"x_min":66,"x_max":766,"o":"m 66 293 q 73 393 65 339 q 98 500 80 446 q 147 604 117 554 q 222 692 177 654 q 328 753 267 730 q 469 777 389 777 q 600 755 545 777 q 692 694 655 734 q 747 596 728 654 q 766 465 765 538 q 757 365 766 418 q 730 258 749 311 q 681 156 711 205 q 605 70 650 107 q 500 11 560 33 q 363 -12 440 -12 q 236 9 291 -12 q 143 68 181 29 q 86 164 106 108 q 66 293 66 220 m 384 143 q 463 172 429 143 q 519 248 497 201 q 552 353 541 294 q 562 472 562 412 q 534 585 560 548 q 449 621 507 621 q 384 605 412 621 q 336 561 356 588 q 303 498 316 533 q 283 428 290 464 q 273 357 275 391 q 271 296 270 323 q 299 182 271 221 q 384 143 326 143 m 733 902 l 190 902 l 211 1055 l 755 1055 l 733 902 z "},"Ŏ":{"ha":1004,"x_min":98,"x_max":994,"o":"m 994 664 q 975 460 994 554 q 921 290 956 366 q 838 154 886 213 q 731 56 789 96 q 605 -5 672 16 q 467 -26 538 -26 q 314 1 382 -26 q 197 81 245 27 q 123 214 149 134 q 98 401 98 294 q 139 696 98 566 q 252 917 180 826 q 420 1055 323 1007 q 627 1103 516 1103 q 776 1076 709 1103 q 892 994 844 1048 q 967 856 941 939 q 994 664 994 774 m 777 660 q 735 856 777 790 q 601 921 694 921 q 494 889 546 921 q 402 795 442 858 q 339 638 363 732 q 315 417 315 543 q 493 157 315 157 q 612 196 559 157 q 701 301 665 234 q 757 460 738 368 q 777 660 777 552 m 882 1383 q 797 1218 862 1270 q 618 1166 732 1166 q 472 1204 521 1166 q 420 1322 423 1242 q 420 1353 419 1337 q 425 1386 422 1369 l 564 1386 q 561 1370 562 1377 q 559 1356 560 1363 q 559 1340 559 1347 q 561 1326 559 1333 q 579 1276 564 1292 q 635 1260 595 1260 q 711 1290 686 1260 q 747 1386 737 1320 l 884 1386 l 882 1383 z "},"ŏ":{"ha":789,"x_min":66,"x_max":766,"o":"m 66 293 q 73 393 65 339 q 98 500 80 446 q 147 604 117 554 q 222 692 177 654 q 328 753 267 730 q 469 777 389 777 q 600 755 545 777 q 692 694 655 734 q 747 596 728 654 q 766 465 765 538 q 757 365 766 418 q 730 258 749 311 q 681 156 711 205 q 605 70 650 107 q 500 11 560 33 q 363 -12 440 -12 q 236 9 291 -12 q 143 68 181 29 q 86 164 106 108 q 66 293 66 220 m 384 143 q 463 172 429 143 q 519 248 497 201 q 552 353 541 294 q 562 472 562 412 q 534 585 560 548 q 449 621 507 621 q 384 605 412 621 q 336 561 356 588 q 303 498 316 533 q 283 428 290 464 q 273 357 275 391 q 271 296 270 323 q 299 182 271 221 q 384 143 326 143 m 751 1088 q 667 923 732 975 q 488 871 602 871 q 342 909 391 871 q 290 1027 293 947 q 290 1058 289 1042 q 295 1091 292 1074 l 433 1091 q 431 1075 432 1082 q 429 1061 430 1068 q 429 1045 429 1052 q 431 1031 429 1038 q 449 981 433 997 q 505 965 465 965 q 581 995 555 965 q 617 1091 607 1025 l 754 1091 l 751 1088 z "},"Ő":{"ha":1004,"x_min":98,"x_max":1059,"o":"m 994 664 q 975 460 994 554 q 921 290 956 366 q 838 154 886 213 q 731 56 789 96 q 605 -5 672 16 q 467 -26 538 -26 q 314 1 382 -26 q 197 81 245 27 q 123 214 149 134 q 98 401 98 294 q 139 696 98 566 q 252 917 180 826 q 420 1055 323 1007 q 627 1103 516 1103 q 776 1076 709 1103 q 892 994 844 1048 q 967 856 941 939 q 994 664 994 774 m 777 660 q 735 856 777 790 q 601 921 694 921 q 494 889 546 921 q 402 795 442 858 q 339 638 363 732 q 315 417 315 543 q 493 157 315 157 q 612 196 559 157 q 701 301 665 234 q 757 460 738 368 q 777 660 777 552 m 484 1196 l 350 1196 l 470 1663 l 728 1663 l 484 1196 m 816 1196 l 682 1196 l 802 1663 l 1059 1663 l 816 1196 z "},"ő":{"ha":789,"x_min":66,"x_max":929,"o":"m 66 293 q 73 393 65 339 q 98 500 80 446 q 147 604 117 554 q 222 692 177 654 q 328 753 267 730 q 469 777 389 777 q 600 755 545 777 q 692 694 655 734 q 747 596 728 654 q 766 465 765 538 q 757 365 766 418 q 730 258 749 311 q 681 156 711 205 q 605 70 650 107 q 500 11 560 33 q 363 -12 440 -12 q 236 9 291 -12 q 143 68 181 29 q 86 164 106 108 q 66 293 66 220 m 384 143 q 463 172 429 143 q 519 248 497 201 q 552 353 541 294 q 562 472 562 412 q 534 585 560 548 q 449 621 507 621 q 384 605 412 621 q 336 561 356 588 q 303 498 316 533 q 283 428 290 464 q 273 357 275 391 q 271 296 270 323 q 299 182 271 221 q 384 143 326 143 m 354 901 l 220 901 l 340 1368 l 597 1368 l 354 901 m 686 901 l 551 901 l 671 1368 l 929 1368 l 686 901 z "},"Œ":{"ha":1491,"x_min":98,"x_max":1493,"o":"m 1358 0 l 704 0 l 717 82 q 671 34 700 54 q 607 1 642 14 q 536 -19 572 -13 q 468 -26 499 -26 q 314 1 382 -26 q 197 81 245 28 q 123 215 149 134 q 98 404 98 296 q 116 608 98 513 q 169 780 135 702 q 252 918 203 858 q 358 1019 300 978 q 485 1082 417 1061 q 625 1103 552 1103 q 690 1096 656 1103 q 755 1074 724 1089 q 809 1034 785 1058 q 842 975 832 1009 l 851 1089 l 1493 1089 l 1470 931 l 1042 931 l 1003 648 l 1385 648 l 1366 494 l 981 494 l 934 155 l 1388 155 l 1358 0 m 777 658 q 735 855 777 789 q 600 921 694 921 q 493 890 545 921 q 402 796 441 859 q 338 639 362 733 q 315 419 315 545 q 493 157 315 157 q 612 195 559 157 q 701 300 664 233 q 756 459 737 368 q 777 658 776 551 z "},"œ":{"ha":1166,"x_min":64,"x_max":1165,"o":"m 752 306 q 765 224 751 258 q 810 162 779 184 q 888 140 841 140 q 1068 202 986 140 l 1106 66 q 968 8 1036 27 q 835 -12 900 -11 q 765 -2 800 -11 q 701 22 730 6 q 651 61 672 37 q 621 114 630 84 q 514 23 577 54 q 369 -10 450 -9 q 266 1 311 -12 q 117 99 168 24 q 64 293 66 174 q 71 391 64 338 q 96 498 79 444 q 144 602 114 551 q 219 691 174 652 q 325 753 264 730 q 467 777 387 777 q 554 766 515 777 q 622 736 593 755 q 669 693 651 718 q 692 643 687 669 q 746 708 718 682 q 807 748 775 733 q 872 770 838 764 q 941 777 905 777 q 1037 761 995 776 q 1107 720 1078 746 q 1150 658 1135 694 q 1165 582 1165 623 q 1164 573 1165 577 q 1162 566 1164 570 q 1127 455 1157 503 q 1044 375 1097 408 q 918 326 991 342 q 752 306 844 309 m 382 143 q 461 173 427 144 q 517 249 495 202 q 550 354 539 295 q 559 472 560 412 q 532 584 558 547 q 447 621 506 621 q 382 604 410 621 q 334 560 354 587 q 301 498 314 533 q 281 428 288 464 q 271 357 274 392 q 269 296 269 323 q 297 182 270 221 q 382 143 324 144 m 764 416 q 783 418 768 417 q 819 421 798 418 q 865 428 840 423 q 913 440 889 432 q 959 459 937 448 q 995 488 980 471 q 1007 516 1002 501 q 1011 546 1011 530 q 992 606 1011 583 q 934 629 973 629 q 863 610 893 629 q 811 560 832 591 q 778 492 790 530 q 764 416 766 454 z "},"Ŕ":{"ha":933,"x_min":50,"x_max":935,"o":"m 598 0 q 622 172 611 94 q 643 324 633 250 q 645 351 644 339 q 645 376 646 363 q 636 431 644 410 q 610 464 627 452 q 567 479 593 475 q 508 484 542 484 q 479 486 494 486 q 447 486 464 486 l 338 486 l 262 0 l 50 0 l 214 1089 l 469 1089 q 731 1072 651 1089 q 886 998 836 1050 q 935 852 936 945 q 916 744 934 795 q 859 653 898 692 q 759 588 821 614 q 611 557 698 563 q 719 543 673 554 q 797 509 766 532 q 843 449 827 486 q 859 359 859 413 q 858 328 859 345 q 852 290 856 311 q 830 148 841 220 q 808 0 819 77 l 598 0 m 417 616 q 651 662 570 616 q 732 811 731 708 q 722 870 733 847 q 683 907 711 893 q 610 926 656 920 q 495 931 564 931 l 405 931 l 358 616 l 417 616 m 480 1200 l 646 1615 l 844 1553 l 574 1183 l 480 1200 z "},"ŕ":{"ha":510,"x_min":43,"x_max":659,"o":"m 334 659 q 376 710 355 689 q 417 744 397 730 q 458 764 438 757 q 498 773 479 770 q 535 775 517 775 q 570 776 553 775 l 543 595 q 513 603 529 600 q 480 606 496 606 q 402 588 440 605 q 328 545 363 572 l 249 0 l 43 0 l 153 764 l 309 764 l 334 659 m 295 905 l 461 1320 l 659 1258 l 389 888 l 295 905 z "},"Ŗ":{"ha":933,"x_min":50,"x_max":935,"o":"m 598 0 q 622 172 611 94 q 643 324 633 250 q 645 351 644 339 q 645 376 646 363 q 636 431 644 410 q 610 464 627 452 q 567 479 593 475 q 508 484 542 484 q 479 486 494 486 q 447 486 464 486 l 338 486 l 262 0 l 50 0 l 214 1089 l 469 1089 q 731 1072 651 1089 q 886 998 836 1050 q 935 852 936 945 q 916 744 934 795 q 859 653 898 692 q 759 588 821 614 q 611 557 698 563 q 719 543 673 554 q 797 509 766 532 q 843 449 827 486 q 859 359 859 413 q 858 328 859 345 q 852 290 856 311 q 830 148 841 220 q 808 0 819 77 l 598 0 m 417 616 q 651 662 570 616 q 732 811 731 708 q 722 870 733 847 q 683 907 711 893 q 610 926 656 920 q 495 931 564 931 l 405 931 l 358 616 l 417 616 m 250 -361 l 290 -75 l 561 -75 l 519 -360 q 489 -459 511 -418 q 437 -528 467 -500 q 375 -572 408 -556 q 314 -595 342 -587 l 262 -513 q 273 -505 264 -512 q 293 -486 281 -498 q 319 -459 305 -474 q 344 -427 332 -444 q 365 -393 356 -410 q 375 -361 373 -376 l 250 -361 z "},"ŗ":{"ha":510,"x_min":43,"x_max":570,"o":"m 334 659 q 376 710 355 689 q 417 744 397 730 q 458 764 438 757 q 498 773 479 770 q 535 775 517 775 q 570 776 553 775 l 543 595 q 513 603 529 600 q 480 606 496 606 q 402 588 440 605 q 328 545 363 572 l 249 0 l 43 0 l 153 764 l 309 764 l 334 659 m 64 -361 l 104 -75 l 376 -75 l 334 -360 q 304 -459 326 -418 q 252 -528 281 -500 q 190 -572 222 -556 q 129 -595 157 -587 l 77 -513 q 88 -505 79 -512 q 108 -486 96 -498 q 134 -459 120 -474 q 159 -427 147 -444 q 179 -393 171 -410 q 190 -361 188 -376 l 64 -361 z "},"Ř":{"ha":933,"x_min":50,"x_max":935,"o":"m 598 0 q 622 172 611 94 q 643 324 633 250 q 645 351 644 339 q 645 376 646 363 q 636 431 644 410 q 610 464 627 452 q 567 479 593 475 q 508 484 542 484 q 479 486 494 486 q 447 486 464 486 l 338 486 l 262 0 l 50 0 l 214 1089 l 469 1089 q 731 1072 651 1089 q 886 998 836 1050 q 935 852 936 945 q 916 744 934 795 q 859 653 898 692 q 759 588 821 614 q 611 557 698 563 q 719 543 673 554 q 797 509 766 532 q 843 449 827 486 q 859 359 859 413 q 858 328 859 345 q 852 290 856 311 q 830 148 841 220 q 808 0 819 77 l 598 0 m 417 616 q 651 662 570 616 q 732 811 731 708 q 722 870 733 847 q 683 907 711 893 q 610 926 656 920 q 495 931 564 931 l 405 931 l 358 616 l 417 616 m 633 1197 l 485 1197 l 370 1630 l 534 1630 l 581 1413 l 681 1630 l 854 1630 l 633 1197 z "},"ř":{"ha":510,"x_min":43,"x_max":669,"o":"m 334 659 q 376 710 355 689 q 417 744 397 730 q 458 764 438 757 q 498 773 479 770 q 535 775 517 775 q 570 776 553 775 l 543 595 q 513 603 529 600 q 480 606 496 606 q 402 588 440 605 q 328 545 363 572 l 249 0 l 43 0 l 153 764 l 309 764 l 334 659 m 448 902 l 300 902 l 184 1335 l 349 1335 l 396 1118 l 496 1335 l 669 1335 l 448 902 z "},"Ś":{"ha":874,"x_min":81,"x_max":861,"o":"m 831 863 q 817 868 830 863 q 784 879 804 873 q 736 893 763 886 q 681 906 710 900 q 623 916 652 911 q 568 920 594 920 q 491 917 530 920 q 422 903 453 913 q 372 871 391 892 q 353 814 353 850 q 366 766 353 786 q 399 732 378 747 q 447 707 420 718 q 502 684 474 696 l 633 625 q 722 570 686 600 q 779 504 758 540 q 810 426 801 468 q 820 338 820 385 q 792 197 820 263 q 712 81 764 131 q 584 3 659 32 q 412 -26 508 -26 q 334 -22 374 -26 q 258 -14 295 -19 q 190 -3 222 -9 q 134 9 158 3 q 96 19 111 15 q 81 24 82 22 l 115 217 q 131 211 117 216 q 166 199 144 205 q 216 185 188 193 q 274 172 243 178 q 335 161 304 165 q 394 157 366 157 q 610 318 610 157 q 531 427 610 391 l 362 507 q 320 528 341 517 q 278 549 299 538 q 223 587 248 564 q 181 638 198 610 q 154 700 163 667 q 144 771 144 734 q 174 908 144 846 q 255 1013 203 969 q 381 1081 308 1057 q 544 1105 455 1105 q 660 1098 604 1105 q 759 1082 715 1090 q 830 1065 803 1074 q 861 1055 857 1057 l 831 863 m 458 1200 l 625 1615 l 822 1553 l 553 1183 l 458 1200 z "},"ś":{"ha":642,"x_min":28,"x_max":689,"o":"m 90 528 q 111 630 90 585 q 173 709 133 676 q 271 759 214 741 q 398 777 328 777 q 460 772 428 777 q 526 759 493 768 q 590 739 559 751 q 648 711 621 726 l 589 570 q 568 579 586 572 q 523 596 550 587 q 463 611 496 604 q 397 618 430 618 q 339 614 362 618 q 302 602 316 610 q 282 583 288 594 q 276 556 276 571 q 278 537 276 545 q 287 524 281 530 q 303 512 293 517 q 327 501 313 507 l 412 467 q 485 435 451 452 q 545 395 519 418 q 586 341 571 372 q 601 268 601 311 q 579 154 602 205 q 515 66 556 102 q 415 9 473 30 q 286 -12 357 -11 q 137 8 201 -11 q 28 62 73 27 l 86 205 q 108 193 89 203 q 157 173 127 184 q 221 154 186 163 q 292 146 256 146 q 379 166 350 146 q 409 228 409 187 q 396 266 409 250 q 348 296 382 281 l 258 336 q 183 374 214 355 q 131 417 151 394 q 100 467 110 440 q 90 528 90 494 m 326 905 l 492 1320 l 689 1258 l 420 888 l 326 905 z "},"Ŝ":{"ha":874,"x_min":81,"x_max":861,"o":"m 831 863 q 817 868 830 863 q 784 879 804 873 q 736 893 763 886 q 681 906 710 900 q 623 916 652 911 q 568 920 594 920 q 491 917 530 920 q 422 903 453 913 q 372 871 391 892 q 353 814 353 850 q 366 766 353 786 q 399 732 378 747 q 447 707 420 718 q 502 684 474 696 l 633 625 q 722 570 686 600 q 779 504 758 540 q 810 426 801 468 q 820 338 820 385 q 792 197 820 263 q 712 81 764 131 q 584 3 659 32 q 412 -26 508 -26 q 334 -22 374 -26 q 258 -14 295 -19 q 190 -3 222 -9 q 134 9 158 3 q 96 19 111 15 q 81 24 82 22 l 115 217 q 131 211 117 216 q 166 199 144 205 q 216 185 188 193 q 274 172 243 178 q 335 161 304 165 q 394 157 366 157 q 610 318 610 157 q 531 427 610 391 l 362 507 q 320 528 341 517 q 278 549 299 538 q 223 587 248 564 q 181 638 198 610 q 154 700 163 667 q 144 771 144 734 q 174 908 144 846 q 255 1013 203 969 q 381 1081 308 1057 q 544 1105 455 1105 q 660 1098 604 1105 q 759 1082 715 1090 q 830 1065 803 1074 q 861 1055 857 1057 l 831 863 m 524 1631 l 673 1631 l 789 1198 l 624 1198 l 577 1414 l 477 1198 l 304 1198 l 524 1631 z "},"ŝ":{"ha":642,"x_min":28,"x_max":648,"o":"m 90 528 q 111 630 90 585 q 173 709 133 676 q 271 759 214 741 q 398 777 328 777 q 460 772 428 777 q 526 759 493 768 q 590 739 559 751 q 648 711 621 726 l 589 570 q 568 579 586 572 q 523 596 550 587 q 463 611 496 604 q 397 618 430 618 q 339 614 362 618 q 302 602 316 610 q 282 583 288 594 q 276 556 276 571 q 278 537 276 545 q 287 524 281 530 q 303 512 293 517 q 327 501 313 507 l 412 467 q 485 435 451 452 q 545 395 519 418 q 586 341 571 372 q 601 268 601 311 q 579 154 602 205 q 515 66 556 102 q 415 9 473 30 q 286 -12 357 -11 q 137 8 201 -11 q 28 62 73 27 l 86 205 q 108 193 89 203 q 157 173 127 184 q 221 154 186 163 q 292 146 256 146 q 379 166 350 146 q 409 228 409 187 q 396 266 409 250 q 348 296 382 281 l 258 336 q 183 374 214 355 q 131 417 151 394 q 100 467 110 440 q 90 528 90 494 m 361 1336 l 509 1336 l 625 903 l 460 903 l 414 1119 l 314 903 l 140 903 l 361 1336 z "},"Ş":{"ha":874,"x_min":81,"x_max":861,"o":"m 831 863 q 817 868 830 863 q 784 879 804 873 q 736 893 763 886 q 681 906 710 900 q 623 916 652 911 q 568 920 594 920 q 491 917 530 920 q 422 903 453 913 q 372 871 391 892 q 353 814 353 850 q 366 766 353 786 q 399 732 378 747 q 447 707 420 718 q 502 684 474 696 l 633 625 q 722 570 686 600 q 779 504 758 540 q 810 426 801 468 q 820 338 820 385 q 792 197 820 263 q 712 81 764 131 q 584 3 659 32 q 412 -26 508 -26 q 334 -22 374 -26 q 258 -14 295 -19 q 190 -3 222 -9 q 134 9 158 3 q 96 19 111 15 q 81 24 82 22 l 115 217 q 131 211 117 216 q 166 199 144 205 q 216 185 188 193 q 274 172 243 178 q 335 161 304 165 q 394 157 366 157 q 610 318 610 157 q 531 427 610 391 l 362 507 q 320 528 341 517 q 278 549 299 538 q 223 587 248 564 q 181 638 198 610 q 154 700 163 667 q 144 771 144 734 q 174 908 144 846 q 255 1013 203 969 q 381 1081 308 1057 q 544 1105 455 1105 q 660 1098 604 1105 q 759 1082 715 1090 q 830 1065 803 1074 q 861 1055 857 1057 l 831 863 m 304 -385 q 303 -382 304 -383 q 302 -380 303 -382 l 312 -290 q 322 -296 313 -291 q 344 -306 330 -300 q 377 -316 358 -311 q 418 -320 395 -320 q 439 -319 429 -320 q 458 -317 449 -319 q 504 -290 488 -312 q 518 -224 519 -269 q 477 -156 517 -179 q 360 -132 438 -132 l 393 50 l 471 50 q 456 -13 463 17 q 443 -71 450 -43 q 478 -74 458 -71 q 519 -83 498 -77 q 562 -100 541 -90 q 600 -126 583 -111 q 627 -164 616 -142 q 638 -215 637 -186 q 638 -225 639 -220 q 638 -235 638 -230 q 578 -374 630 -328 q 434 -420 527 -420 q 389 -416 410 -420 q 351 -407 368 -412 q 322 -395 334 -401 q 304 -385 311 -389 z "},"ş":{"ha":642,"x_min":28,"x_max":648,"o":"m 90 528 q 111 630 90 585 q 173 709 133 676 q 271 759 214 741 q 398 777 328 777 q 460 772 428 777 q 526 759 493 768 q 590 739 559 751 q 648 711 621 726 l 589 570 q 568 579 586 572 q 523 596 550 587 q 463 611 496 604 q 397 618 430 618 q 339 614 362 618 q 302 602 316 610 q 282 583 288 594 q 276 556 276 571 q 278 537 276 545 q 287 524 281 530 q 303 512 293 517 q 327 501 313 507 l 412 467 q 485 435 451 452 q 545 395 519 418 q 586 341 571 372 q 601 268 601 311 q 579 154 602 205 q 515 66 556 102 q 415 9 473 30 q 286 -12 357 -11 q 137 8 201 -11 q 28 62 73 27 l 86 205 q 108 193 89 203 q 157 173 127 184 q 221 154 186 163 q 292 146 256 146 q 379 166 350 146 q 409 228 409 187 q 396 266 409 250 q 348 296 382 281 l 258 336 q 183 374 214 355 q 131 417 151 394 q 100 467 110 440 q 90 528 90 494 m 172 -385 q 171 -382 171 -383 q 170 -380 170 -382 l 179 -290 q 189 -296 180 -291 q 211 -306 197 -300 q 244 -316 225 -311 q 285 -320 262 -320 q 306 -319 296 -320 q 325 -317 316 -319 q 371 -290 355 -312 q 385 -224 387 -269 q 345 -156 384 -179 q 227 -132 305 -132 l 260 50 l 338 50 q 323 -13 330 17 q 310 -71 317 -43 q 345 -74 325 -71 q 386 -83 365 -77 q 429 -100 408 -90 q 467 -126 450 -111 q 494 -164 484 -142 q 505 -215 505 -186 q 506 -225 506 -220 q 505 -235 505 -230 q 446 -374 497 -328 q 301 -420 394 -420 q 256 -416 277 -420 q 218 -407 235 -412 q 190 -395 201 -401 q 172 -385 178 -389 z "},"Š":{"ha":874,"x_min":81,"x_max":861,"o":"m 831 863 q 817 868 830 863 q 784 879 804 873 q 736 893 763 886 q 681 906 710 900 q 623 916 652 911 q 568 920 594 920 q 491 917 530 920 q 422 903 453 913 q 372 871 391 892 q 353 814 353 850 q 366 766 353 786 q 399 732 378 747 q 447 707 420 718 q 502 684 474 696 l 633 625 q 722 570 686 600 q 779 504 758 540 q 810 426 801 468 q 820 338 820 385 q 792 197 820 263 q 712 81 764 131 q 584 3 659 32 q 412 -26 508 -26 q 334 -22 374 -26 q 258 -14 295 -19 q 190 -3 222 -9 q 134 9 158 3 q 96 19 111 15 q 81 24 82 22 l 115 217 q 131 211 117 216 q 166 199 144 205 q 216 185 188 193 q 274 172 243 178 q 335 161 304 165 q 394 157 366 157 q 610 318 610 157 q 531 427 610 391 l 362 507 q 320 528 341 517 q 278 549 299 538 q 223 587 248 564 q 181 638 198 610 q 154 700 163 667 q 144 771 144 734 q 174 908 144 846 q 255 1013 203 969 q 381 1081 308 1057 q 544 1105 455 1105 q 660 1098 604 1105 q 759 1082 715 1090 q 830 1065 803 1074 q 861 1055 857 1057 l 831 863 m 633 1204 l 485 1204 l 370 1638 l 534 1638 l 581 1421 l 681 1638 l 854 1638 l 633 1204 z "},"š":{"ha":661,"x_min":33,"x_max":701,"o":"m 96 528 q 117 630 95 585 q 179 709 138 676 q 276 759 219 741 q 404 777 334 777 q 466 772 433 777 q 531 759 498 768 q 595 739 564 751 q 653 711 627 726 l 595 570 q 573 579 591 572 q 529 596 555 587 q 469 611 502 604 q 402 618 435 618 q 345 614 368 618 q 308 602 321 610 q 288 583 294 594 q 281 556 281 571 q 284 537 281 545 q 292 524 286 530 q 308 512 298 517 q 332 501 318 507 l 418 467 q 491 435 456 452 q 551 395 525 418 q 591 341 576 372 q 606 268 606 311 q 584 154 607 205 q 520 66 562 102 q 420 9 479 30 q 291 -12 362 -11 q 143 8 207 -11 q 33 62 79 27 l 92 205 q 114 193 94 203 q 162 173 133 184 q 227 154 191 163 q 298 146 262 146 q 385 166 355 146 q 414 228 414 187 q 401 266 414 250 q 353 296 388 281 l 263 336 q 188 374 220 355 q 136 417 157 394 q 105 467 115 440 q 96 528 96 494 m 479 878 l 331 878 l 216 1312 l 380 1312 l 427 1095 l 527 1312 l 701 1312 l 479 878 z "},"Ţ":{"ha":734,"x_min":92,"x_max":866,"o":"m 843 930 l 574 930 l 444 0 l 235 0 l 363 930 l 92 930 l 114 1089 l 866 1089 l 843 930 m 236 -361 l 276 -75 l 547 -75 l 506 -360 q 475 -459 498 -418 q 424 -528 453 -500 q 361 -572 394 -556 q 300 -595 329 -587 l 249 -513 q 259 -505 251 -512 q 280 -486 268 -498 q 305 -459 292 -474 q 331 -427 319 -444 q 351 -393 342 -410 q 361 -361 359 -376 l 236 -361 z "},"ţ":{"ha":530,"x_min":91,"x_max":574,"o":"m 383 127 q 424 132 404 127 q 459 143 444 137 q 486 155 475 150 l 495 160 l 530 47 q 511 37 529 46 q 464 17 494 28 q 395 -2 435 7 q 311 -11 356 -11 q 185 28 234 -11 q 123 149 136 66 q 119 180 120 163 q 118 217 118 197 q 120 260 118 238 q 126 307 123 283 l 178 661 l 94 661 l 109 764 l 199 764 l 237 1035 l 447 1090 l 398 764 l 574 764 l 559 661 l 384 661 l 323 246 q 321 191 319 214 q 332 154 323 168 q 353 133 340 140 q 383 127 366 127 m 91 -361 l 131 -75 l 402 -75 l 361 -360 q 330 -459 353 -418 q 278 -528 308 -500 q 216 -572 249 -556 q 155 -595 184 -587 l 104 -513 q 114 -505 106 -512 q 135 -486 123 -498 q 160 -459 146 -474 q 185 -427 174 -444 q 206 -393 197 -410 q 216 -361 214 -376 l 91 -361 z "},"Ť":{"ha":683,"x_min":92,"x_max":866,"o":"m 843 930 l 574 930 l 444 0 l 235 0 l 363 930 l 92 930 l 114 1089 l 866 1089 l 843 930 z "},"ť":{"ha":1032,"x_min":94,"x_max":943,"o":"m 383 127 q 424 132 404 127 q 459 143 444 137 q 486 155 475 150 l 495 160 l 530 47 q 511 37 529 46 q 464 17 494 28 q 395 -2 435 7 q 311 -11 356 -11 q 185 28 234 -11 q 123 149 136 66 q 119 180 120 163 q 118 217 118 197 q 120 260 118 238 q 126 307 123 283 l 178 661 l 94 661 l 109 764 l 199 764 l 237 1035 l 447 1090 l 398 764 l 574 764 l 559 661 l 384 661 l 323 246 q 321 191 319 214 q 332 154 323 168 q 353 133 340 140 q 383 127 366 127 m 643 810 l 672 1097 l 943 1097 l 912 812 q 884 712 905 753 q 834 644 863 671 q 774 601 806 616 q 714 577 742 585 l 660 660 q 671 668 662 661 q 691 687 680 675 q 715 714 702 699 q 739 746 728 730 q 758 779 750 762 q 768 810 766 795 l 643 810 z "},"Ŧ":{"ha":734,"x_min":92,"x_max":866,"o":"m 843 930 l 574 930 l 444 0 l 235 0 l 363 930 l 92 930 l 114 1089 l 866 1089 l 843 930 m 684 479 l 141 479 l 162 633 l 707 633 l 684 479 z "},"ŧ":{"ha":530,"x_min":7,"x_max":574,"o":"m 383 127 q 424 132 404 127 q 459 143 444 137 q 486 155 475 150 l 495 160 l 530 47 q 511 37 529 46 q 464 17 494 28 q 395 -2 435 7 q 311 -11 356 -11 q 185 28 234 -11 q 123 149 136 66 q 119 180 120 163 q 118 217 118 197 q 120 260 118 238 q 126 307 123 283 l 178 661 l 94 661 l 109 764 l 199 764 l 237 1035 l 447 1090 l 398 764 l 574 764 l 559 661 l 384 661 l 323 246 q 321 191 319 214 q 332 154 323 168 q 353 133 340 140 q 383 127 366 127 m 550 386 l 7 386 l 28 539 l 572 539 l 550 386 z "},"Ũ":{"ha":1020,"x_min":126,"x_max":1044,"o":"m 499 150 q 596 167 555 151 q 665 223 636 184 q 712 329 693 262 q 747 496 732 395 l 831 1089 l 1044 1089 l 962 498 q 921 315 947 394 q 860 177 895 235 q 783 80 825 119 q 691 17 740 41 q 587 -16 642 -6 q 475 -26 533 -26 q 332 -7 397 -26 q 222 54 268 11 q 151 170 176 98 q 126 349 126 242 q 129 419 126 383 q 136 495 131 454 q 176 781 155 634 q 218 1089 197 928 l 432 1089 q 388 779 409 927 q 347 492 367 631 q 339 415 342 448 q 336 353 336 381 q 345 258 336 297 q 373 196 353 220 q 423 161 392 172 q 499 150 454 150 m 821 1157 q 747 1173 781 1157 q 684 1208 713 1189 q 630 1243 654 1227 q 586 1259 606 1259 q 554 1241 566 1259 q 537 1175 542 1222 l 408 1175 q 461 1345 418 1289 q 578 1402 505 1402 q 650 1387 619 1402 q 707 1353 681 1371 q 757 1319 733 1335 q 808 1304 781 1304 q 828 1307 820 1304 q 840 1318 836 1310 q 848 1340 845 1326 q 854 1375 850 1354 l 990 1375 q 970 1284 985 1324 q 935 1216 956 1244 q 884 1172 913 1187 q 821 1157 855 1157 z "},"ũ":{"ha":820,"x_min":80,"x_max":794,"o":"m 358 764 q 342 654 351 712 q 326 536 334 596 q 309 415 317 475 q 292 297 300 354 q 288 266 289 277 q 288 249 288 257 q 289 235 288 241 q 315 170 290 194 q 378 143 339 145 q 450 159 418 145 q 506 201 481 174 l 588 764 l 794 764 l 686 0 l 540 0 q 525 58 532 29 q 511 115 518 86 q 479 67 498 90 q 437 27 461 45 q 384 -1 414 9 q 319 -12 354 -12 q 138 51 196 -12 q 80 237 79 114 q 82 277 80 255 q 87 322 84 298 q 120 550 104 436 q 151 764 137 663 l 358 764 m 614 865 q 539 881 574 865 q 476 916 505 897 q 423 951 447 935 q 378 967 399 967 q 346 948 358 967 q 330 882 334 930 l 200 882 q 254 1053 211 996 q 371 1109 297 1109 q 443 1094 412 1109 q 499 1061 473 1079 q 549 1027 526 1042 q 600 1012 573 1012 q 620 1015 612 1012 q 633 1026 628 1018 q 640 1047 637 1034 q 646 1083 643 1061 l 783 1083 q 763 992 777 1032 q 727 923 749 951 q 676 880 705 895 q 614 865 648 865 z "},"Ū":{"ha":1020,"x_min":126,"x_max":1044,"o":"m 499 150 q 596 167 555 151 q 665 223 636 184 q 712 329 693 262 q 747 496 732 395 l 831 1089 l 1044 1089 l 962 498 q 921 315 947 394 q 860 177 895 235 q 783 80 825 119 q 691 17 740 41 q 587 -16 642 -6 q 475 -26 533 -26 q 332 -7 397 -26 q 222 54 268 11 q 151 170 176 98 q 126 349 126 242 q 129 419 126 383 q 136 495 131 454 q 176 781 155 634 q 218 1089 197 928 l 432 1089 q 388 779 409 927 q 347 492 367 631 q 339 415 342 448 q 336 353 336 381 q 345 258 336 297 q 373 196 353 220 q 423 161 392 172 q 499 150 454 150 m 903 1197 l 359 1197 l 380 1350 l 925 1350 l 903 1197 z "},"ū":{"ha":820,"x_min":80,"x_max":794,"o":"m 358 764 q 342 654 351 712 q 326 536 334 596 q 309 415 317 475 q 292 297 300 354 q 288 266 289 277 q 288 249 288 257 q 289 235 288 241 q 315 170 290 194 q 378 143 339 145 q 450 159 418 145 q 506 201 481 174 l 588 764 l 794 764 l 686 0 l 540 0 q 525 58 532 29 q 511 115 518 86 q 479 67 498 90 q 437 27 461 45 q 384 -1 414 9 q 319 -12 354 -12 q 138 51 196 -12 q 80 237 79 114 q 82 277 80 255 q 87 322 84 298 q 120 550 104 436 q 151 764 137 663 l 358 764 m 755 902 l 212 902 l 233 1055 l 777 1055 l 755 902 z "},"Ŭ":{"ha":1020,"x_min":126,"x_max":1044,"o":"m 499 150 q 596 167 555 151 q 665 223 636 184 q 712 329 693 262 q 747 496 732 395 l 831 1089 l 1044 1089 l 962 498 q 921 315 947 394 q 860 177 895 235 q 783 80 825 119 q 691 17 740 41 q 587 -16 642 -6 q 475 -26 533 -26 q 332 -7 397 -26 q 222 54 268 11 q 151 170 176 98 q 126 349 126 242 q 129 419 126 383 q 136 495 131 454 q 176 781 155 634 q 218 1089 197 928 l 432 1089 q 388 779 409 927 q 347 492 367 631 q 339 415 342 448 q 336 353 336 381 q 345 258 336 297 q 373 196 353 220 q 423 161 392 172 q 499 150 454 150 m 921 1383 q 837 1218 901 1270 q 658 1166 772 1166 q 511 1204 560 1166 q 459 1322 463 1242 q 460 1353 458 1337 q 465 1386 461 1369 l 603 1386 q 601 1370 602 1377 q 599 1356 600 1363 q 598 1340 598 1347 q 600 1326 599 1333 q 618 1276 603 1292 q 674 1260 634 1260 q 751 1290 725 1260 q 787 1386 777 1320 l 924 1386 l 921 1383 z "},"ŭ":{"ha":820,"x_min":80,"x_max":794,"o":"m 358 764 q 342 654 351 712 q 326 536 334 596 q 309 415 317 475 q 292 297 300 354 q 288 266 289 277 q 288 249 288 257 q 289 235 288 241 q 315 170 290 194 q 378 143 339 145 q 450 159 418 145 q 506 201 481 174 l 588 764 l 794 764 l 686 0 l 540 0 q 525 58 532 29 q 511 115 518 86 q 479 67 498 90 q 437 27 461 45 q 384 -1 414 9 q 319 -12 354 -12 q 138 51 196 -12 q 80 237 79 114 q 82 277 80 255 q 87 322 84 298 q 120 550 104 436 q 151 764 137 663 l 358 764 m 773 1088 q 689 923 753 975 q 510 871 624 871 q 363 909 412 871 q 311 1027 315 947 q 312 1058 311 1042 q 317 1091 313 1074 l 455 1091 q 453 1075 454 1082 q 451 1061 452 1068 q 451 1045 450 1052 q 452 1031 451 1038 q 471 981 455 997 q 526 965 486 965 q 603 995 577 965 q 639 1091 629 1025 l 776 1091 l 773 1088 z "},"Ů":{"ha":1020,"x_min":126,"x_max":1044,"o":"m 499 150 q 596 167 555 151 q 665 223 636 184 q 712 329 693 262 q 747 496 732 395 l 831 1089 l 1044 1089 l 962 498 q 921 315 947 394 q 860 177 895 235 q 783 80 825 119 q 691 17 740 41 q 587 -16 642 -6 q 475 -26 533 -26 q 332 -7 397 -26 q 222 54 268 11 q 151 170 176 98 q 126 349 126 242 q 129 419 126 383 q 136 495 131 454 q 176 781 155 634 q 218 1089 197 928 l 432 1089 q 388 779 409 927 q 347 492 367 631 q 339 415 342 448 q 336 353 336 381 q 345 258 336 297 q 373 196 353 220 q 423 161 392 172 q 499 150 454 150 m 702 1541 q 651 1531 676 1541 q 607 1501 626 1520 q 575 1457 587 1482 q 564 1404 564 1432 q 574 1361 565 1380 q 598 1328 583 1341 q 633 1306 614 1314 q 675 1298 653 1298 q 726 1309 701 1298 q 770 1338 751 1319 q 801 1382 789 1356 q 811 1436 812 1407 q 802 1478 810 1459 q 778 1511 793 1497 q 744 1533 764 1525 q 702 1541 724 1541 m 454 1388 q 474 1488 452 1442 q 533 1569 496 1535 q 617 1624 570 1604 q 713 1643 664 1643 q 793 1629 755 1643 q 858 1588 830 1614 q 903 1528 886 1563 q 922 1451 920 1493 q 903 1353 924 1399 q 846 1271 882 1306 q 762 1216 810 1236 q 665 1196 715 1196 q 585 1210 623 1196 q 518 1250 547 1225 q 472 1311 490 1276 q 454 1388 455 1346 z "},"ů":{"ha":820,"x_min":80,"x_max":794,"o":"m 358 764 q 342 654 351 712 q 326 536 334 596 q 309 415 317 475 q 292 297 300 354 q 288 266 289 277 q 288 249 288 257 q 289 235 288 241 q 315 170 290 194 q 378 143 339 145 q 450 159 418 145 q 506 201 481 174 l 588 764 l 794 764 l 686 0 l 540 0 q 525 58 532 29 q 511 115 518 86 q 479 67 498 90 q 437 27 461 45 q 384 -1 414 9 q 319 -12 354 -12 q 138 51 196 -12 q 80 237 79 114 q 82 277 80 255 q 87 322 84 298 q 120 550 104 436 q 151 764 137 663 l 358 764 m 554 1246 q 503 1236 528 1246 q 459 1206 478 1225 q 428 1162 439 1187 q 416 1109 416 1137 q 426 1066 417 1085 q 451 1033 435 1046 q 486 1011 466 1019 q 528 1003 505 1003 q 578 1014 553 1003 q 622 1043 603 1024 q 653 1087 642 1061 q 663 1141 665 1112 q 654 1183 663 1164 q 630 1216 645 1202 q 596 1238 616 1230 q 554 1246 576 1246 m 306 1093 q 326 1193 304 1147 q 385 1274 348 1240 q 469 1329 422 1309 q 565 1348 516 1348 q 645 1334 608 1348 q 710 1293 682 1319 q 755 1233 739 1267 q 774 1156 772 1198 q 755 1058 777 1104 q 698 976 734 1011 q 614 921 662 941 q 517 901 567 901 q 437 915 475 901 q 371 955 399 930 q 325 1016 342 981 q 306 1093 307 1051 z "},"Ű":{"ha":1020,"x_min":126,"x_max":1099,"o":"m 499 150 q 596 167 555 151 q 665 223 636 184 q 712 329 693 262 q 747 496 732 395 l 831 1089 l 1044 1089 l 962 498 q 921 315 947 394 q 860 177 895 235 q 783 80 825 119 q 691 17 740 41 q 587 -16 642 -6 q 475 -26 533 -26 q 332 -7 397 -26 q 222 54 268 11 q 151 170 176 98 q 126 349 126 242 q 129 419 126 383 q 136 495 131 454 q 176 781 155 634 q 218 1089 197 928 l 432 1089 q 388 779 409 927 q 347 492 367 631 q 339 415 342 448 q 336 353 336 381 q 345 258 336 297 q 373 196 353 220 q 423 161 392 172 q 499 150 454 150 m 524 1196 l 389 1196 l 509 1663 l 767 1663 l 524 1196 m 855 1196 l 721 1196 l 841 1663 l 1099 1663 l 855 1196 z "},"ű":{"ha":820,"x_min":80,"x_max":951,"o":"m 358 764 q 342 654 351 712 q 326 536 334 596 q 309 415 317 475 q 292 297 300 354 q 288 266 289 277 q 288 249 288 257 q 289 235 288 241 q 315 170 290 194 q 378 143 339 145 q 450 159 418 145 q 506 201 481 174 l 588 764 l 794 764 l 686 0 l 540 0 q 525 58 532 29 q 511 115 518 86 q 479 67 498 90 q 437 27 461 45 q 384 -1 414 9 q 319 -12 354 -12 q 138 51 196 -12 q 80 237 79 114 q 82 277 80 255 q 87 322 84 298 q 120 550 104 436 q 151 764 137 663 l 358 764 m 376 901 l 241 901 l 361 1368 l 619 1368 l 376 901 m 707 901 l 573 901 l 693 1368 l 951 1368 l 707 901 z "},"Ų":{"ha":1020,"x_min":126,"x_max":1044,"o":"m 499 150 q 596 167 555 151 q 665 223 636 184 q 712 329 693 262 q 747 496 732 395 l 831 1089 l 1044 1089 l 962 498 q 921 315 947 394 q 860 177 895 235 q 783 80 825 119 q 691 17 740 41 q 587 -16 642 -6 q 475 -26 533 -26 q 332 -7 397 -26 q 222 54 268 11 q 151 170 176 98 q 126 349 126 242 q 129 419 126 383 q 136 495 131 454 q 176 781 155 634 q 218 1089 197 928 l 432 1089 q 388 779 409 927 q 347 492 367 631 q 339 415 342 448 q 336 353 336 381 q 345 258 336 297 q 373 196 353 220 q 423 161 392 172 q 499 150 454 150 m 753 -367 q 683 -399 720 -389 q 611 -410 647 -410 q 537 -398 572 -410 q 476 -362 503 -386 q 434 -303 450 -338 q 418 -222 418 -268 q 426 -168 418 -193 q 448 -121 435 -143 q 479 -81 462 -100 q 515 -47 497 -62 q 613 14 558 -12 l 696 14 q 616 -60 651 -22 q 588 -94 602 -76 q 563 -132 574 -113 q 545 -171 551 -151 q 538 -210 538 -191 q 546 -256 538 -238 q 567 -286 553 -275 q 597 -301 580 -296 q 633 -306 614 -306 q 694 -297 663 -306 q 744 -277 724 -288 l 753 -367 z "},"ų":{"ha":820,"x_min":80,"x_max":794,"o":"m 358 764 q 342 654 351 712 q 326 536 334 596 q 309 415 317 475 q 292 297 300 354 q 288 266 289 277 q 288 249 288 257 q 289 235 288 241 q 315 170 290 194 q 378 143 339 145 q 450 159 418 145 q 506 201 481 174 l 588 764 l 794 764 l 686 0 l 540 0 q 525 58 532 29 q 511 115 518 86 q 479 67 498 90 q 437 27 461 45 q 384 -1 414 9 q 319 -12 354 -12 q 138 51 196 -12 q 80 237 79 114 q 82 277 80 255 q 87 322 84 298 q 120 550 104 436 q 151 764 137 663 l 358 764 m 606 -367 q 535 -399 572 -389 q 463 -410 499 -410 q 390 -398 425 -410 q 328 -362 355 -386 q 286 -303 302 -338 q 270 -222 270 -268 q 278 -168 270 -193 q 300 -121 287 -143 q 332 -81 314 -100 q 368 -47 349 -62 q 465 14 410 -12 l 548 14 q 469 -60 503 -22 q 440 -94 454 -76 q 415 -132 426 -113 q 397 -171 404 -151 q 390 -210 390 -191 q 398 -256 390 -238 q 419 -286 406 -275 q 449 -301 432 -296 q 485 -306 466 -306 q 546 -297 515 -306 q 596 -277 576 -288 l 606 -367 z "},"Ŵ":{"ha":1300,"x_min":145,"x_max":1376,"o":"m 630 1081 l 873 1081 l 916 280 l 1171 1089 l 1376 1089 l 1006 0 l 758 0 l 722 801 l 454 0 l 207 0 l 145 1089 l 347 1089 l 385 280 l 630 1081 m 739 1631 l 887 1631 l 1003 1198 l 838 1198 l 791 1414 l 692 1198 l 518 1198 l 739 1631 z "},"ŵ":{"ha":958,"x_min":88,"x_max":1008,"o":"m 539 0 l 513 474 l 354 0 l 156 0 l 88 764 l 271 764 l 299 260 l 460 764 l 635 764 l 663 261 l 836 764 l 1008 764 l 740 0 l 539 0 m 526 1336 l 675 1336 l 791 903 l 626 903 l 579 1119 l 479 903 l 306 903 l 526 1336 z "},"Ŷ":{"ha":818,"x_min":99,"x_max":958,"o":"m 454 617 l 724 1088 l 958 1088 l 525 355 l 477 0 l 267 0 l 315 357 l 99 1088 l 323 1088 l 454 617 m 507 1631 l 655 1631 l 771 1198 l 606 1198 l 559 1414 l 460 1198 l 286 1198 l 507 1631 z "},"ŷ":{"ha":714,"x_min":16,"x_max":766,"o":"m 16 -161 q 55 -150 36 -155 q 92 -138 74 -144 q 152 -109 123 -127 q 203 -71 181 -92 q 239 -30 225 -51 q 254 9 252 -9 l 251 26 l 79 764 l 273 764 l 380 263 l 570 764 l 766 764 l 454 -14 q 404 -116 433 -71 q 337 -196 375 -161 q 253 -257 300 -231 q 149 -301 206 -283 q 104 -315 126 -308 q 58 -327 81 -321 l 16 -161 m 370 1336 l 519 1336 l 635 903 l 470 903 l 423 1119 l 323 903 l 150 903 l 370 1336 z "},"Ÿ":{"ha":818,"x_min":99,"x_max":970,"o":"m 454 617 l 724 1088 l 958 1088 l 525 355 l 477 0 l 267 0 l 315 357 l 99 1088 l 323 1088 l 454 617 m 562 1282 q 548 1234 559 1257 q 519 1195 536 1211 q 480 1168 502 1178 q 435 1158 458 1158 q 396 1166 414 1158 q 365 1187 378 1174 q 343 1220 351 1201 q 334 1260 334 1238 q 343 1314 332 1289 q 371 1360 353 1340 q 412 1392 389 1380 q 460 1403 435 1403 q 499 1395 481 1403 q 531 1373 517 1387 q 553 1340 545 1359 q 562 1301 561 1322 q 562 1291 562 1295 q 562 1282 562 1287 m 969 1282 q 955 1234 966 1256 q 927 1195 944 1211 q 888 1168 909 1178 q 843 1158 866 1158 q 804 1166 822 1158 q 772 1187 786 1174 q 751 1220 759 1201 q 742 1260 743 1238 q 751 1315 741 1289 q 779 1360 761 1341 q 820 1392 797 1380 q 869 1403 843 1403 q 908 1395 890 1403 q 939 1373 926 1387 q 960 1340 952 1359 q 970 1301 968 1322 q 969 1291 970 1295 q 969 1282 969 1287 z "},"Ź":{"ha":829,"x_min":35,"x_max":893,"o":"m 893 1088 l 871 935 l 300 157 l 760 157 l 743 0 l 35 0 l 58 167 l 626 930 l 168 930 l 186 1088 l 893 1088 m 452 1200 l 618 1615 l 815 1553 l 546 1183 l 452 1200 z "},"ź":{"ha":641,"x_min":45,"x_max":701,"o":"m 425 608 l 137 608 l 155 764 l 653 764 l 633 614 l 276 155 l 574 155 l 558 0 l 45 0 l 64 157 l 425 608 m 337 905 l 503 1320 l 701 1258 l 431 888 l 337 905 z "},"Ż":{"ha":829,"x_min":35,"x_max":893,"o":"m 893 1088 l 871 935 l 300 157 l 760 157 l 743 0 l 35 0 l 58 167 l 626 930 l 168 930 l 186 1088 l 893 1088 m 652 1194 l 382 1193 l 422 1479 l 694 1479 l 652 1194 z "},"ż":{"ha":641,"x_min":45,"x_max":653,"o":"m 425 608 l 137 608 l 155 764 l 653 764 l 633 614 l 276 155 l 574 155 l 558 0 l 45 0 l 64 157 l 425 608 m 538 899 l 268 898 l 308 1184 l 579 1184 l 538 899 z "},"Ž":{"ha":829,"x_min":35,"x_max":893,"o":"m 893 1088 l 871 935 l 300 157 l 760 157 l 743 0 l 35 0 l 58 167 l 626 930 l 168 930 l 186 1088 l 893 1088 m 605 1197 l 456 1197 l 341 1630 l 506 1630 l 553 1413 l 652 1630 l 826 1630 l 605 1197 z "},"ž":{"ha":641,"x_min":45,"x_max":713,"o":"m 425 608 l 137 608 l 155 764 l 653 764 l 633 614 l 276 155 l 574 155 l 558 0 l 45 0 l 64 157 l 425 608 m 492 867 l 343 867 l 228 1301 l 393 1301 l 439 1084 l 539 1301 l 713 1301 l 492 867 z "},"ƒ":{"ha":537,"x_min":-75,"x_max":618,"o":"m 507 935 q 401 760 424 935 l 570 760 l 556 656 l 387 656 l 338 275 q 296 56 321 146 q 236 -90 272 -34 q 150 -171 199 -146 q 32 -197 100 -197 q -14 -188 6 -197 q -47 -168 -34 -178 q -68 -147 -61 -157 l -75 -138 l -47 -8 q -39 -12 -47 -9 q -21 -20 -32 -16 q 1 -31 -11 -25 q 24 -40 14 -36 q 42 -47 35 -45 q 50 -50 50 -50 q 78 -36 67 -50 q 98 12 90 -22 q 113 99 106 45 q 130 235 121 154 l 181 656 l 90 656 l 104 760 l 195 760 q 228 896 205 832 q 287 1006 250 959 q 373 1079 323 1053 q 487 1106 422 1106 q 555 1098 522 1106 q 618 1080 588 1090 l 593 918 q 507 935 559 935 z "},"Ǎ":{"ha":928,"x_min":-10,"x_max":893,"o":"m 559 810 l 493 649 l 374 376 l 618 376 l 583 616 l 559 810 m 488 1089 l 702 1089 l 893 0 l 679 0 l 639 269 l 334 269 l 214 0 l -10 0 l 488 1089 m 630 1160 l 481 1160 l 366 1593 l 531 1593 l 578 1376 l 677 1593 l 851 1593 l 630 1160 z "},"ǎ":{"ha":814,"x_min":64,"x_max":791,"o":"m 782 682 l 682 0 l 532 0 l 506 116 q 475 66 494 90 q 431 25 456 43 q 373 -2 405 8 q 304 -12 340 -12 q 195 9 240 -12 q 120 68 149 31 q 77 158 91 106 q 64 274 64 210 q 80 394 65 334 q 121 510 94 454 q 184 614 147 566 q 264 699 220 663 q 359 756 309 735 q 465 777 410 777 q 566 767 518 777 q 652 745 613 758 q 720 718 691 732 q 764 694 748 704 l 782 682 m 272 296 q 296 180 272 218 q 370 143 320 143 q 449 158 416 143 q 503 199 483 173 l 566 613 q 528 621 550 618 q 483 625 507 625 q 408 598 446 625 q 341 526 371 572 q 292 421 311 481 q 272 296 273 361 m 570 878 l 421 878 l 306 1312 l 471 1312 l 517 1095 l 617 1312 l 791 1312 l 570 878 z "},"Ǐ":{"ha":606,"x_min":24,"x_max":713,"o":"m 41 103 l 163 103 l 302 981 l 181 981 l 201 1088 l 650 1088 l 631 981 l 508 981 l 369 103 l 492 103 l 472 0 l 24 0 l 41 103 m 492 1190 l 343 1190 l 228 1624 l 393 1624 l 439 1407 l 539 1624 l 713 1624 l 492 1190 z "},"Ǒ":{"ha":1004,"x_min":98,"x_max":994,"o":"m 994 664 q 975 460 994 554 q 921 290 956 366 q 838 154 886 213 q 731 56 789 96 q 605 -5 672 16 q 467 -26 538 -26 q 314 1 382 -26 q 197 81 245 27 q 123 214 149 134 q 98 401 98 294 q 139 696 98 566 q 252 917 180 826 q 420 1055 323 1007 q 627 1103 516 1103 q 776 1076 709 1103 q 892 994 844 1048 q 967 856 941 939 q 994 664 994 774 m 777 660 q 735 856 777 790 q 601 921 694 921 q 494 889 546 921 q 402 795 442 858 q 339 638 363 732 q 315 417 315 543 q 493 157 315 157 q 612 196 559 157 q 701 301 665 234 q 757 460 738 368 q 777 660 777 552 m 749 1160 l 601 1160 l 486 1593 l 650 1593 l 697 1376 l 797 1593 l 970 1593 l 749 1160 z "},"ǒ":{"ha":789,"x_min":66,"x_max":769,"o":"m 66 293 q 73 393 65 339 q 98 500 80 446 q 147 604 117 554 q 222 692 177 654 q 328 753 267 730 q 469 777 389 777 q 600 755 545 777 q 692 694 655 734 q 747 596 728 654 q 766 465 765 538 q 757 365 766 418 q 730 258 749 311 q 681 156 711 205 q 605 70 650 107 q 500 11 560 33 q 363 -12 440 -12 q 236 9 291 -12 q 143 68 181 29 q 86 164 106 108 q 66 293 66 220 m 384 143 q 463 172 429 143 q 519 248 497 201 q 552 353 541 294 q 562 472 562 412 q 534 585 560 548 q 449 621 507 621 q 384 605 412 621 q 336 561 356 588 q 303 498 316 533 q 283 428 290 464 q 273 357 275 391 q 271 296 270 323 q 299 182 271 221 q 384 143 326 143 m 548 878 l 399 878 l 284 1312 l 449 1312 l 496 1095 l 595 1312 l 769 1312 l 548 878 z "},"Ǔ":{"ha":1020,"x_min":126,"x_max":1044,"o":"m 499 150 q 596 167 555 151 q 665 223 636 184 q 712 329 693 262 q 747 496 732 395 l 831 1089 l 1044 1089 l 962 498 q 921 315 947 394 q 860 177 895 235 q 783 80 825 119 q 691 17 740 41 q 587 -16 642 -6 q 475 -26 533 -26 q 332 -7 397 -26 q 222 54 268 11 q 151 170 176 98 q 126 349 126 242 q 129 419 126 383 q 136 495 131 454 q 176 781 155 634 q 218 1089 197 928 l 432 1089 q 388 779 409 927 q 347 492 367 631 q 339 415 342 448 q 336 353 336 381 q 345 258 336 297 q 373 196 353 220 q 423 161 392 172 q 499 150 454 150 m 744 1160 l 595 1160 l 480 1593 l 645 1593 l 692 1376 l 791 1593 l 965 1593 l 744 1160 z "},"ǔ":{"ha":820,"x_min":80,"x_max":794,"o":"m 358 764 q 342 654 351 712 q 326 536 334 596 q 309 415 317 475 q 292 297 300 354 q 288 266 289 277 q 288 249 288 257 q 289 235 288 241 q 315 170 290 194 q 378 143 339 145 q 450 159 418 145 q 506 201 481 174 l 588 764 l 794 764 l 686 0 l 540 0 q 525 58 532 29 q 511 115 518 86 q 479 67 498 90 q 437 27 461 45 q 384 -1 414 9 q 319 -12 354 -12 q 138 51 196 -12 q 80 237 79 114 q 82 277 80 255 q 87 322 84 298 q 120 550 104 436 q 151 764 137 663 l 358 764 m 559 867 l 410 867 l 295 1301 l 460 1301 l 507 1084 l 606 1301 l 780 1301 l 559 867 z "},"Ǽ":{"ha":1337,"x_min":-10,"x_max":1287,"o":"m 841 652 l 1210 652 l 1193 494 l 825 494 l 789 176 l 1202 176 l 1184 0 l 581 0 l 606 237 l 357 237 l 222 0 l -10 0 l 641 1088 l 1287 1088 l 1267 913 l 869 913 l 841 652 m 621 387 l 666 759 l 442 387 l 621 387 z "},"ǽ":{"ha":1153,"x_min":64,"x_max":1183,"o":"m 1103 53 q 975 5 1040 21 q 845 -11 910 -11 q 758 -4 797 -11 q 688 17 719 3 q 631 52 656 31 q 585 102 606 73 q 530 59 565 79 q 455 22 495 38 q 375 -2 415 7 q 304 -12 335 -12 q 196 9 241 -12 q 121 67 151 30 q 78 157 92 104 q 64 274 64 210 q 79 394 64 334 q 120 510 94 454 q 183 615 146 566 q 264 699 220 663 q 360 756 309 735 q 466 777 411 777 q 546 770 508 777 q 618 755 585 764 q 679 734 651 745 q 726 714 706 724 q 826 763 775 747 q 939 779 877 779 q 1049 757 1003 779 q 1126 699 1096 736 q 1170 613 1156 663 q 1183 508 1183 564 q 1181 486 1183 501 q 1166 452 1179 471 q 1126 413 1153 433 q 1048 375 1099 393 q 920 347 998 358 q 730 334 843 335 q 728 315 729 324 q 728 296 728 305 q 768 178 728 220 q 883 135 808 135 q 988 151 939 135 q 1082 198 1036 168 l 1103 53 m 272 292 q 297 179 273 216 q 370 143 321 143 q 414 146 389 143 q 463 156 439 150 q 509 172 488 163 q 543 192 530 181 q 534 236 537 213 q 532 284 532 259 q 556 457 532 377 q 625 600 580 537 q 600 606 615 602 q 565 614 584 610 q 525 622 546 618 q 484 625 504 625 q 408 598 446 625 q 341 526 371 571 q 292 420 311 480 q 272 292 273 359 m 745 443 q 856 448 810 444 q 930 457 901 452 q 976 469 960 463 q 999 482 991 475 q 1008 494 1006 488 q 1009 505 1009 500 q 983 602 1009 570 q 905 634 958 633 q 846 618 873 633 q 799 579 819 604 q 765 519 779 554 q 745 443 751 484 z "},"Ǿ":{"ha":982,"x_min":102,"x_max":990,"o":"m 804 667 q 785 795 802 741 q 736 883 769 849 l 458 146 q 477 144 467 144 q 501 143 488 143 q 635 183 577 143 q 732 293 694 223 q 789 459 771 363 q 804 667 808 555 m 990 664 q 978 460 994 554 q 929 290 962 366 q 850 154 897 213 q 746 56 804 96 q 623 -5 689 16 q 486 -26 557 -26 q 397 -18 441 -26 l 358 -121 l 257 -83 l 295 18 q 155 161 203 66 q 102 401 106 256 q 115 605 99 511 q 162 778 131 700 q 240 917 194 857 q 344 1019 287 977 q 469 1082 401 1061 q 610 1103 536 1103 q 662 1101 638 1103 q 703 1094 685 1099 l 743 1200 l 841 1162 l 801 1056 q 938 908 889 1006 q 990 664 986 810 m 597 935 q 521 921 559 935 q 447 877 482 906 q 381 804 411 848 q 329 702 351 760 q 295 571 307 644 q 288 411 284 498 q 361 192 292 257 l 642 930 q 620 934 631 932 q 597 935 609 935 z "},"ǿ":{"ha":734,"x_min":65,"x_max":755,"o":"m 374 118 q 380 117 376 117 q 508 184 463 117 q 568 381 553 250 q 572 435 570 411 q 572 480 573 460 q 530 614 569 574 l 374 118 m 65 293 q 70 390 64 337 q 92 496 75 442 q 136 600 108 549 q 209 689 165 650 q 313 751 253 728 q 454 774 374 774 q 485 773 469 774 q 517 770 500 772 l 566 927 l 621 909 l 574 755 q 693 672 650 730 q 749 528 736 615 q 755 454 755 494 q 749 358 756 410 q 725 254 743 306 q 679 155 708 203 q 606 70 650 106 q 504 11 563 33 q 368 -12 445 -12 q 349 -11 357 -12 q 335 -10 340 -11 l 300 -123 l 241 -104 l 274 0 q 120 99 172 24 q 65 293 69 174 m 477 641 q 442 645 455 645 q 315 581 360 645 q 254 388 270 516 q 248 286 247 332 q 315 133 252 169 l 477 641 z "},"Ș":{"ha":874,"x_min":81,"x_max":861,"o":"m 831 863 q 817 868 830 863 q 784 879 804 873 q 736 893 763 886 q 681 906 710 900 q 623 916 652 911 q 568 920 594 920 q 491 917 530 920 q 422 903 453 913 q 372 871 391 892 q 353 814 353 850 q 366 766 353 786 q 399 732 378 747 q 447 707 420 718 q 502 684 474 696 l 633 625 q 722 570 686 600 q 779 504 758 540 q 810 426 801 468 q 820 338 820 385 q 792 197 820 263 q 712 81 764 131 q 584 3 659 32 q 412 -26 508 -26 q 334 -22 374 -26 q 258 -14 295 -19 q 190 -3 222 -9 q 134 9 158 3 q 96 19 111 15 q 81 24 82 22 l 115 217 q 131 211 117 216 q 166 199 144 205 q 216 185 188 193 q 274 172 243 178 q 335 161 304 165 q 394 157 366 157 q 610 318 610 157 q 531 427 610 391 l 362 507 q 320 528 341 517 q 278 549 299 538 q 223 587 248 564 q 181 638 198 610 q 154 700 163 667 q 144 771 144 734 q 174 908 144 846 q 255 1013 203 969 q 381 1081 308 1057 q 544 1105 455 1105 q 660 1098 604 1105 q 759 1082 715 1090 q 830 1065 803 1074 q 861 1055 857 1057 l 831 863 m 254 -361 l 294 -75 l 565 -75 l 524 -360 q 493 -459 515 -418 q 441 -528 471 -500 q 379 -572 412 -556 q 318 -595 347 -587 l 267 -513 q 277 -505 269 -512 q 297 -486 286 -498 q 323 -459 309 -474 q 348 -427 336 -444 q 369 -393 360 -410 q 379 -361 377 -376 l 254 -361 z "},"ș":{"ha":642,"x_min":28,"x_max":648,"o":"m 90 528 q 111 630 90 585 q 173 709 133 676 q 271 759 214 741 q 398 777 328 777 q 460 772 428 777 q 526 759 493 768 q 590 739 559 751 q 648 711 621 726 l 589 570 q 568 579 586 572 q 523 596 550 587 q 463 611 496 604 q 397 618 430 618 q 339 614 362 618 q 302 602 316 610 q 282 583 288 594 q 276 556 276 571 q 278 537 276 545 q 287 524 281 530 q 303 512 293 517 q 327 501 313 507 l 412 467 q 485 435 451 452 q 545 395 519 418 q 586 341 571 372 q 601 268 601 311 q 579 154 602 205 q 515 66 556 102 q 415 9 473 30 q 286 -12 357 -11 q 137 8 201 -11 q 28 62 73 27 l 86 205 q 108 193 89 203 q 157 173 127 184 q 221 154 186 163 q 292 146 256 146 q 379 166 350 146 q 409 228 409 187 q 396 266 409 250 q 348 296 382 281 l 258 336 q 183 374 214 355 q 131 417 151 394 q 100 467 110 440 q 90 528 90 494 m 95 -361 l 135 -75 l 406 -75 l 365 -360 q 334 -459 357 -418 q 282 -528 312 -500 q 220 -572 253 -556 q 159 -595 188 -587 l 108 -513 q 118 -505 110 -512 q 139 -486 127 -498 q 164 -459 151 -474 q 190 -427 178 -444 q 210 -393 201 -410 q 220 -361 218 -376 l 95 -361 z "},"ˆ":{"ha":786,"x_min":155,"x_max":640,"o":"m 375 536 l 524 536 l 640 102 l 475 102 l 428 319 l 328 102 l 155 102 l 375 536 z "},"ˇ":{"ha":786,"x_min":202,"x_max":687,"o":"m 466 102 l 317 102 l 202 535 l 367 535 l 414 318 l 513 535 l 687 535 l 466 102 z "},"˘":{"ha":847,"x_min":261,"x_max":726,"o":"m 723 288 q 638 122 703 174 q 460 71 574 71 q 313 109 362 71 q 261 227 264 146 q 262 258 260 242 q 267 291 263 273 l 405 291 q 402 275 404 282 q 401 260 401 268 q 400 244 400 252 q 402 231 401 237 q 420 181 405 197 q 476 165 436 165 q 553 195 527 165 q 589 291 578 224 l 726 291 l 723 288 z "},"˙":{"ha":490,"x_min":113,"x_max":425,"o":"m 383 99 l 113 98 l 153 384 l 425 384 l 383 99 z "},"˚":{"ha":594,"x_min":64,"x_max":532,"o":"m 312 446 q 261 435 286 446 q 217 406 236 425 q 185 362 197 387 q 174 309 174 337 q 184 266 175 285 q 209 232 193 246 q 243 211 224 218 q 286 203 263 203 q 336 213 311 203 q 380 242 361 224 q 411 287 399 261 q 421 341 422 312 q 412 382 420 363 q 388 416 403 401 q 354 438 374 430 q 312 446 334 446 m 64 293 q 84 393 62 347 q 143 474 106 439 q 227 528 180 509 q 323 548 274 548 q 403 533 366 548 q 468 493 440 519 q 513 432 496 467 q 532 356 530 397 q 513 257 534 304 q 456 176 492 211 q 372 121 420 141 q 275 100 325 100 q 195 115 233 100 q 129 155 157 130 q 82 216 100 180 q 64 293 65 251 z "},"˛":{"ha":271,"x_min":-33,"x_max":303,"o":"m 303 -367 q 233 -399 269 -389 q 161 -410 197 -410 q 87 -398 122 -410 q 26 -362 52 -386 q -17 -303 -1 -338 q -33 -222 -33 -268 q -24 -168 -33 -193 q -2 -121 -16 -143 q 29 -81 12 -100 q 65 -47 47 -62 q 163 14 108 -12 l 245 14 q 166 -60 201 -22 q 137 -94 151 -76 q 112 -132 123 -113 q 94 -171 101 -151 q 87 -210 87 -191 q 95 -256 87 -238 q 116 -286 103 -275 q 146 -301 130 -296 q 182 -306 163 -306 q 243 -297 213 -306 q 294 -277 274 -288 l 303 -367 z "},"˜":{"ha":741,"x_min":87,"x_max":670,"o":"m 501 99 q 427 115 461 99 q 363 150 393 131 q 310 185 334 170 q 266 201 286 201 q 234 183 245 201 q 217 117 222 164 l 87 117 q 141 287 98 231 q 258 344 184 344 q 330 329 299 344 q 387 295 361 313 q 437 261 413 277 q 488 246 460 246 q 508 249 500 246 q 520 260 515 252 q 528 282 525 268 q 534 317 530 296 l 670 317 q 650 226 665 267 q 614 158 636 186 q 564 114 593 130 q 501 99 535 99 z "},"˝":{"ha":1225,"x_min":178,"x_max":887,"o":"m 312 100 l 178 100 l 298 568 l 555 568 l 312 100 m 644 100 l 509 100 l 629 568 l 887 568 l 644 100 z "},"́":{"ha":692,"x_min":323,"x_max":686,"o":"m 323 105 l 489 519 l 686 458 l 417 87 l 323 105 z "},"̆":{"ha":847,"x_min":261,"x_max":726,"o":"m 723 288 q 638 122 703 174 q 460 71 574 71 q 313 109 362 71 q 261 227 264 146 q 262 258 260 242 q 267 291 263 273 l 405 291 q 402 275 404 282 q 401 260 401 268 q 400 244 400 252 q 402 231 401 237 q 420 181 405 197 q 476 165 436 165 q 553 195 527 165 q 589 291 578 224 l 726 291 l 723 288 z "},"Ѐ":{"ha":812,"x_min":52,"x_max":848,"o":"m 707 0 l 52 0 l 206 1089 l 848 1089 l 825 931 l 396 931 l 355 648 l 739 648 l 718 494 l 332 494 l 283 155 l 736 155 l 707 0 m 581 1156 l 450 1156 l 299 1639 l 563 1639 l 581 1156 z "},"Ё":{"ha":812,"x_min":52,"x_max":863,"o":"m 707 0 l 52 0 l 206 1089 l 848 1089 l 825 931 l 396 931 l 355 648 l 739 648 l 718 494 l 332 494 l 283 155 l 736 155 l 707 0 m 454 1257 q 440 1209 452 1232 q 412 1170 429 1186 q 373 1143 395 1153 q 328 1133 351 1133 q 289 1141 307 1133 q 258 1162 271 1149 q 236 1195 244 1176 q 227 1235 227 1213 q 236 1289 225 1263 q 264 1335 246 1315 q 305 1367 281 1355 q 353 1378 328 1378 q 392 1370 374 1378 q 424 1348 410 1362 q 446 1315 437 1334 q 455 1276 454 1297 q 455 1266 455 1270 q 454 1257 454 1262 m 862 1257 q 848 1208 859 1231 q 820 1170 837 1186 q 781 1143 802 1153 q 736 1133 759 1133 q 697 1141 715 1133 q 665 1162 679 1149 q 644 1195 652 1176 q 635 1235 635 1213 q 644 1290 633 1263 q 672 1335 654 1316 q 713 1367 690 1355 q 762 1378 736 1378 q 801 1370 783 1378 q 832 1348 819 1362 q 853 1315 845 1334 q 863 1276 861 1297 q 862 1266 863 1270 q 862 1257 862 1262 z "},"Ђ":{"ha":1106,"x_min":136,"x_max":1105,"o":"m 608 -33 q 612 -32 610 -32 q 617 -31 614 -31 q 637 -33 627 -32 q 660 -33 648 -33 q 757 7 720 -32 q 807 115 794 45 q 823 210 815 163 q 838 307 830 257 q 853 408 846 356 q 870 519 861 460 q 872 534 871 527 q 873 547 873 541 q 873 562 873 555 q 873 575 873 569 q 845 646 869 621 q 773 671 821 671 q 725 667 746 671 q 687 657 705 664 q 651 638 669 650 q 613 612 633 627 l 516 1 l 275 1 l 419 923 l 136 923 l 163 1091 l 967 1091 l 941 923 l 662 923 l 631 727 q 667 763 644 745 q 722 795 690 781 q 792 818 753 809 q 875 826 831 826 q 1042 771 983 826 q 1105 603 1101 715 q 1104 555 1106 579 q 1098 503 1102 531 q 1084 411 1091 458 q 1069 317 1076 363 q 1054 225 1061 270 q 1041 138 1047 180 q 999 -3 1028 58 q 928 -105 970 -64 q 831 -168 886 -146 q 711 -190 777 -189 q 636 -184 670 -190 q 574 -164 602 -178 l 608 -33 z "},"Ѓ":{"ha":730,"x_min":56,"x_max":851,"o":"m 436 1235 l 629 1659 l 827 1569 l 535 1190 l 436 1235 m 851 1090 l 831 941 l 431 941 l 298 0 l 56 0 l 210 1090 l 851 1090 z "},"Є":{"ha":841,"x_min":99,"x_max":984,"o":"m 109 528 q 174 769 128 662 q 291 951 220 876 q 459 1066 363 1026 q 676 1107 556 1107 q 772 1100 727 1107 q 854 1084 817 1094 q 920 1063 892 1075 q 964 1041 948 1051 q 984 1030 974 1036 l 891 859 q 818 902 854 885 q 734 926 781 918 q 697 930 716 929 q 658 931 678 931 q 550 908 597 930 q 468 847 503 886 q 409 752 433 807 q 368 629 385 696 l 754 629 l 730 481 l 342 481 q 338 432 340 455 q 338 388 337 410 q 392 215 342 273 q 542 156 442 156 q 791 231 667 156 l 829 60 q 770 28 806 43 q 690 2 734 14 q 595 -16 646 -9 q 494 -22 545 -22 q 326 5 399 -22 q 204 83 254 32 q 128 207 155 134 q 99 371 102 279 q 100 446 98 408 q 109 528 102 485 z "},"Ѕ":{"ha":842,"x_min":81,"x_max":861,"o":"m 831 863 q 817 868 830 863 q 784 879 804 873 q 736 893 763 886 q 681 906 710 900 q 623 916 652 911 q 568 920 594 920 q 491 917 530 920 q 422 903 453 913 q 372 871 391 892 q 353 814 353 850 q 366 766 353 786 q 399 732 378 747 q 447 707 420 718 q 502 684 474 696 l 633 625 q 722 570 686 600 q 779 504 758 540 q 810 426 801 468 q 820 338 820 385 q 792 197 820 263 q 712 81 764 131 q 584 3 659 32 q 412 -26 508 -26 q 334 -22 374 -26 q 258 -14 295 -19 q 190 -3 222 -9 q 134 9 158 3 q 96 19 111 15 q 81 24 82 22 l 115 217 q 131 211 117 216 q 166 199 144 205 q 216 185 188 193 q 274 172 243 178 q 335 161 304 165 q 394 157 366 157 q 610 318 610 157 q 531 427 610 391 l 362 507 q 320 528 341 517 q 278 549 299 538 q 223 587 248 564 q 181 638 198 610 q 154 700 163 667 q 144 771 144 734 q 174 908 144 846 q 255 1013 203 969 q 381 1081 308 1057 q 544 1105 455 1105 q 660 1098 604 1105 q 759 1082 715 1090 q 830 1065 803 1074 q 861 1055 857 1057 l 831 863 z "},"І":{"ha":610,"x_min":26,"x_max":652,"o":"m 43 103 l 165 103 l 304 981 l 183 981 l 203 1088 l 652 1088 l 633 981 l 510 981 l 371 103 l 494 103 l 474 0 l 26 0 l 43 103 z "},"Ї":{"ha":606,"x_min":24,"x_max":758,"o":"m 41 103 l 163 103 l 302 981 l 181 981 l 201 1088 l 650 1088 l 631 981 l 508 981 l 369 103 l 492 103 l 472 0 l 24 0 l 41 103 m 350 1291 q 336 1242 347 1265 q 308 1203 325 1219 q 268 1176 290 1186 q 223 1166 246 1166 q 185 1174 203 1166 q 153 1196 167 1182 q 131 1228 140 1209 q 122 1268 123 1246 q 131 1322 121 1297 q 159 1368 142 1348 q 200 1400 177 1388 q 249 1411 224 1411 q 288 1403 270 1411 q 319 1381 306 1395 q 341 1349 333 1367 q 351 1309 349 1330 q 350 1299 351 1303 q 350 1291 350 1295 m 758 1290 q 744 1242 755 1264 q 715 1203 732 1219 q 676 1176 698 1186 q 631 1166 654 1166 q 592 1174 610 1166 q 561 1196 574 1182 q 539 1228 547 1209 q 530 1268 531 1246 q 539 1323 529 1297 q 567 1369 549 1349 q 608 1400 585 1388 q 657 1411 631 1411 q 696 1403 678 1411 q 727 1381 714 1395 q 749 1349 741 1367 q 758 1309 757 1330 q 758 1299 758 1303 q 758 1290 758 1295 z "},"Ј":{"ha":578,"x_min":46,"x_max":602,"o":"m 46 98 q 166 131 121 111 q 234 180 210 151 q 269 250 258 210 q 286 345 279 290 l 390 1088 l 602 1088 l 501 370 q 485 272 494 321 q 458 177 475 223 q 413 91 441 132 q 340 19 385 51 q 233 -33 296 -12 q 82 -60 170 -54 l 46 98 z "},"Љ":{"ha":1761,"x_min":28,"x_max":1734,"o":"m 1155 0 l 857 0 l 1004 939 l 621 939 l 560 564 q 529 414 547 486 q 484 278 511 341 q 418 164 456 216 q 325 75 379 112 q 197 18 270 39 q 28 -2 124 -2 l 64 219 q 142 228 108 219 q 203 256 176 237 q 248 304 229 275 q 280 376 267 334 q 298 452 289 405 q 319 568 307 499 l 403 1089 l 1270 1089 l 1209 701 l 1257 701 q 1451 689 1364 701 q 1600 647 1538 677 q 1697 567 1662 617 q 1734 439 1731 516 q 1725 337 1735 387 q 1696 244 1715 288 q 1652 165 1678 201 q 1596 106 1626 130 q 1509 53 1556 74 q 1407 20 1461 33 q 1291 3 1352 8 q 1164 -2 1230 -2 l 1155 0 m 1487 366 q 1490 389 1489 377 q 1489 411 1490 401 q 1465 480 1486 453 q 1410 524 1444 508 q 1330 547 1375 541 q 1231 554 1284 554 l 1183 554 l 1119 147 l 1187 147 q 1310 159 1257 147 q 1399 197 1362 171 q 1457 264 1435 222 q 1487 366 1478 306 z "}}}
